<svg width="74" height="74" fill="none" xmlns="http://www.w3.org/2000/svg"><path d="M50.43 16.386v3.645a1.64 1.64 0 0 0 1.015 1.519 1.641 1.641 0 0 0 1.793-.357l4.578-4.576h11.559a4.268 4.268 0 0 0 4.264-4.262V4.262A4.268 4.268 0 0 0 69.375 0h-17.56a4.268 4.268 0 0 0-4.264 4.262v8.093a4.284 4.284 0 0 0 2.878 4.03Zm-.711-12.124c0-1.155.94-2.095 2.096-2.095h17.56c1.156 0 2.096.94 2.096 2.095v8.093c0 1.155-.94 2.095-2.096 2.095H57.559c-.413 0-.801.16-1.094.453l-3.868 3.865v-2.853c0-.726-.512-1.362-1.218-1.51a2.103 2.103 0 0 1-1.66-2.05V4.262Z" fill="#173C5C"/><path d="M71.122 63.596H69.06v-34.08a4.079 4.079 0 0 0-4.075-4.074H44.704a1.084 1.084 0 1 0 0 2.168h20.28a1.91 1.91 0 0 1 1.908 1.906v34.08h-3.613V34.29a3.072 3.072 0 0 0-3.07-3.069H38.066c.318-.827.537-1.704.638-2.617a2.573 2.573 0 0 0 2.016-2.509V16.73a3.909 3.909 0 0 0-3.871-3.904 3.91 3.91 0 0 0-3.903-3.772h-9.722c-4.178 0-7.577 3.397-7.577 7.573v9.47c0 1.226.864 2.254 2.016 2.508.1.914.32 1.79.638 2.617h-4.51a3.072 3.072 0 0 0-3.07 3.068v8.851a8.891 8.891 0 0 0-3.613 2.531V29.516a1.91 1.91 0 0 1 1.907-1.907h2.703a1.084 1.084 0 1 0 0-2.167H9.015a4.079 4.079 0 0 0-4.075 4.073v34.081H2.878A2.881 2.881 0 0 0 0 66.473C0 70.623 3.378 74 7.53 74h58.94c4.152 0 7.53-3.376 7.53-7.526a2.881 2.881 0 0 0-2.878-2.878ZM60.209 33.388c.497 0 .902.405.902.901v29.307h-9.68v-3.97a1.084 1.084 0 0 0-2.168 0v3.97h-5.204v-3.438a1.084 1.084 0 0 0-2.168 0v3.438h-8.818l-2.337-13.172.897-1.606c.173.038.349.059.525.059a2.48 2.48 0 0 0 1.72-.697l4.024-3.917c.288-.28.49-.622.604-.987l5.922 1.738a6.765 6.765 0 0 1 4.835 6.456v3.091a1.084 1.084 0 0 0 2.168 0V51.47c0-3.921-2.628-7.43-6.392-8.535l-7.154-2.1a2.381 2.381 0 0 0-.675-.454l-1.48-.659a2.885 2.885 0 0 0-1.363-.244v-3.464a10.668 10.668 0 0 0 2.561-2.626h23.281Zm-40.12 8.96 1.451-.652a.721.721 0 0 1 .727.08l4.278 3.195-2.101 1.755a.304.304 0 0 1-.405-.013l-4.015-4.019a.215.215 0 0 1 .064-.347Zm12.11-5.126v3.309l-3.918 3.032-4.113-3.072v-3.27a10.534 10.534 0 0 0 8.03 0Zm4.129 5.139a.215.215 0 0 1 .062.35l-4.019 3.91a.304.304 0 0 1-.41.013l-1.952-1.669 4.104-3.175a.719.719 0 0 1 .734-.089l1.48.66Zm-8.936 6.788-.808-1.387 1.7-1.42 1.522 1.301-.84 1.506h-1.574Zm.286 2.167h1.015l2.178 12.28h-5.37l2.177-12.28Zm18.98 14.447a3.038 3.038 0 0 1-2.834 1.952H30.175a3.039 3.039 0 0 1-2.832-1.952h19.314ZM17.814 16.626a5.414 5.414 0 0 1 5.409-5.406h9.722c.958 0 1.737.779 1.737 1.736 0 1.123.914 2.036 2.037 2.036h.095c.958 0 1.737.78 1.737 1.737v5.074h-.865a.88.88 0 0 1-.88-.879v-1.073a3.154 3.154 0 0 0-4.146-2.996 14.367 14.367 0 0 1-8.964-.003c-2.039-.667-4.137.846-4.137 2.998v1.074a.88.88 0 0 1-.88.88h-.865v-5.178Zm0 9.47V23.97h.865a3.05 3.05 0 0 0 3.048-3.046V19.85a.988.988 0 0 1 1.31-.934 16.55 16.55 0 0 0 10.303-.003.988.988 0 0 1 1.299.938v1.073a3.05 3.05 0 0 0 3.047 3.046h.865v2.125c0 .222-.18.402-.401.402-.827 0-1.515.648-1.568 1.476-.278 4.417-3.968 7.877-8.4 7.877-4.43 0-8.12-3.46-8.4-7.877a1.575 1.575 0 0 0-1.567-1.476.402.402 0 0 1-.401-.402Zm-4.024 7.292h5.648A10.669 10.669 0 0 0 22 36.014v3.457a2.884 2.884 0 0 0-1.348.248l-1.452.652a2.384 2.384 0 0 0-.67.453l-5.64 1.654V34.29c0-.497.404-.902.9-.902ZM7.108 51.47a6.765 6.765 0 0 1 4.836-6.456l.176-.052.012-.003 5.773-1.694c.113.352.307.682.585.96l4.022 4.027a2.467 2.467 0 0 0 2.234.661l.887 1.522-2.334 13.161h-8.822v-3.438a1.084 1.084 0 0 0-2.168 0v3.438h-5.2V51.47ZM66.47 71.833H7.53a5.367 5.367 0 0 1-5.362-5.36c0-.391.319-.71.71-.71h22.208a5.212 5.212 0 0 0 5.09 4.119h13.649a5.212 5.212 0 0 0 5.09-4.119H71.12c.392 0 .711.319.711.71a5.366 5.366 0 0 1-5.362 5.36Z" fill="#173C5C"/></svg>