<svg width="217" height="245" fill="none" xmlns="http://www.w3.org/2000/svg"><path d="M94.49 3.498c-5.753 1.94-10.964 6.48-12.142 12.43-.546 2.757-.212 5.624-.671 8.398-1.066 6.433-6.12 11.346-10.783 15.909-4.663 4.563-9.478 9.865-9.818 16.377-.373 7.13 4.804 13.81 3.908 20.894-1.04 8.23-9.742 13.562-11.893 21.574-1.436 5.35.324 11.113 3.22 15.836 5.518 9.002 14.95 15.113 24.995 18.389 10.045 3.276 20.743 3.965 31.309 4.076 12.865.134 26.834-.969 36.5-9.451a29.194 29.194 0 0 0 9.707-19.016c.919-9.824-3.186-19.976-.355-29.43 1.782-5.95 6.251-11.383 5.584-17.557-.652-6.037-5.93-10.316-9.551-15.193-3.381-4.553-5.433-9.93-7.443-15.232l-6.88-18.14c-1.352-3.566-2.837-7.316-5.851-9.657-5.643-4.381-14.715-3.52-21.313-2.617-6.12.839-12.637.424-18.523 2.41Z" fill="#2F2E41"/><path d="M96.644 56.338s3.05 9.901-19.823 21.325c-22.872 11.424 2.288 23.609 2.288 23.609l26.685 6.093s27.447-3.808 30.497-8.377c3.049-4.57 8.386-19.802 6.861-22.087a35.63 35.63 0 0 0-3.812-4.57s-18.298-3.046-17.536-11.423c.763-8.378-25.16-4.57-25.16-4.57Z" fill="#FFB9B9"/><path opacity=".1" d="M96.644 56.338s3.05 9.901-19.823 21.325c-22.872 11.424 2.288 23.609 2.288 23.609l26.685 6.093s27.447-3.808 30.497-8.377c3.049-4.57 8.386-19.802 6.861-22.087a35.63 35.63 0 0 0-3.812-4.57s-18.298-3.046-17.536-11.423c.763-8.378-25.16-4.57-25.16-4.57Z" fill="#000"/><path d="M111.511 71.951c13.475 0 24.398-10.911 24.398-24.37 0-13.46-10.923-24.372-24.398-24.372-13.474 0-24.397 10.912-24.397 24.371 0 13.46 10.923 24.371 24.397 24.371Z" fill="#FFB9B9"/><path d="M108.842 98.987S79.46 96.841 78.902 76.59c0 0-10.468-1.211-13.518 1.835-3.05 3.046-12.961 5.331-12.961 12.947 0 7.616 16.773 30.464 16.773 30.464s9.15 30.464 5.337 35.795c-3.812 5.331-4.574 19.04-4.574 19.04s38.121-3.047 44.22 0c6.1 3.046 30.497 3.046 32.022 0 1.525-3.047-1.525-41.126-1.525-41.126s6.862-9.14 5.337-19.802l18.298-21.324s-6.861-20.564-17.535-20.564c0 0-14.486-3.808-14.868-1.903-.381 1.904 7.243 23.228-27.066 27.036Z" fill="#0094FF"/><path d="M40.225 166.008s6.862 10.662 24.398 12.947c17.536 2.285 20.585-3.808 19.06-5.331-1.524-1.523-19.822-8.378-19.822-8.378l-10.674-8.377-12.962 9.139Zm125.036-9.139-19.823 11.424s-25.922-1.524-16.011 6.092c9.912 7.616 28.21 4.57 28.21 4.57l17.536-8.378-9.912-13.708Z" fill="#FFB9B9"/><path d="M66.148 176.67s-18.298 44.934 3.813 51.789c22.11 6.854 83.104 5.331 96.827-3.808 13.724-9.14 17.536-21.325 15.249-25.133-2.287-3.808-17.536-14.47-28.21-15.232-10.674-.762-87.678-7.616-87.678-7.616Z" fill="#2F2E41"/><path opacity=".05" d="M66.148 176.67s-18.298 44.934 3.813 51.789c22.11 6.854 83.104 5.331 96.827-3.808 13.724-9.14 17.536-21.325 15.249-25.133-2.287-3.808-17.536-14.47-28.21-15.232-10.674-.762-87.678-7.616-87.678-7.616Z" fill="#000"/><path d="M152.521 179.462s64.587-23.355 63.825 4.824c-.763 28.179-41.171 35.795-41.171 35.795l-12.199 1.524-67.093 2.284s2.287-12.185-3.05-13.708c0 0 17.536-4.57 18.298-5.332.763-.761 44.221-15.993 47.27-16.755 3.05-.761 12.199-6.854 19.061-6.092 0 0 7.624-6.093 16.011-4.57l-23.635 1.523-17.317.507Z" fill="#2F2E41"/><path opacity=".1" d="M152.521 179.462s64.587-23.355 63.825 4.824c-.763 28.179-41.171 35.795-41.171 35.795l-12.199 1.524-67.093 2.284s2.287-12.185-3.05-13.708c0 0 17.536-4.57 18.298-5.332.763-.761 44.221-15.993 47.27-16.755 3.05-.761 12.199-6.854 19.061-6.092 0 0 7.624-6.093 16.011-4.57l-23.635 1.523-17.317.507Z" fill="#000"/><path d="m141.109 183.244 8.143 18.559 49.557-17.517 3.813-9.9-12.962-2.286-26.058 4.571-11.301 3.046-11.192 3.527Z" fill="#2F2E41"/><path opacity=".1" d="m141.109 183.244 8.143 18.559 49.557-17.517 3.813-9.9-12.962-2.286-26.058 4.571-11.301 3.046-11.192 3.527Z" fill="#000"/><path d="M35.65 205.611s14.486 18.278 31.26 22.847c16.773 4.57 25.922-1.523 25.922-1.523l-5.337-21.324-2.287-13.709-9.911-6.854-19.823-9.14-23.636-7.616s-9.911-1.523-9.911 0c0 1.524 9.149 24.371 9.149 24.371l4.575 12.948Z" fill="#2F2E41"/><path d="M53.185 215.511s3.05 22.086 6.862 23.61c3.812 1.523 15.249-1.524 18.298-3.047 3.05-1.523 13.416-8.551 13.416-8.551s-36.288-13.535-38.576-12.012Z" fill="#CCC"/><path d="m122.568 217.796 14.486 2.285-1.526 17.516-20.205-4.902 7.245-14.899Z" fill="#FFB9B9"/><path d="M131.642 222.671s-6.789 8.073.073 12.642l4.575 3.808s15.248 3.046 16.773 4.57c1.525 1.523 7.624-2.285 7.624-2.285s.763-22.848 0-24.371c-.762-1.523-9.911-3.046-10.674-1.523-.762 1.523-9.911 3.808-15.248 2.285l-3.123 4.874Z" fill="#CCC"/><path d="M70.721 182.001S17.351 150.776 8.965 162.2c-8.387 11.423-17.536 27.417 6.862 39.602 24.397 12.186 100.64 37.319 100.64 37.319s11.436-17.517 11.436-22.087c0 0-40.408-18.278-47.27-19.801-6.862-1.523-34.31-19.04-38.121-20.563-3.812-1.523-9.15-6.093-9.15-6.093l37.36 11.424Z" fill="#2F2E41"/><path d="m55.474 87.563-3.05 2.285s-6.862 17.517-7.624 27.417c-.763 9.901-9.912 40.365-9.15 44.173.763 3.808 1.526 6.854 6.1 10.662 0 0 6.1-13.708 16.773-11.424l12.962-47.219-16.011-25.894Zm106.739 0 6.099 6.855s3.812 9.139 3.812 11.424c0 2.284 7.624 35.794 8.387 37.318.762 1.523 3.812 20.563 0 25.132-3.812 4.57-10.674 7.616-10.674 7.616s4.575-15.993-9.912-16.755l1.525-6.093-13.723-45.695 14.486-19.802Z" fill="#0094FF"/><path d="M56.998 139.998v40.116c0 2.533.998 4.965 2.778 6.769a9.66 9.66 0 0 0 6.734 2.875L150.497 191a9.657 9.657 0 0 0 6.786-2.644 9.644 9.644 0 0 0 3.005-6.629l1.545-40.12a9.645 9.645 0 0 0-9.509-10.015l-85.53-1.238a9.662 9.662 0 0 0-9.047 5.921 9.635 9.635 0 0 0-.749 3.723Z" fill="#3F3D56"/><path d="M112.942 46.799c14.504 0 26.262-6.324 26.262-14.126 0-7.801-11.758-14.125-26.262-14.125-14.504 0-26.261 6.324-26.261 14.125 0 7.802 11.757 14.126 26.261 14.126Z" fill="#2F2E41"/><path d="M108.461 167.15a6.096 6.096 0 0 0 6.099-6.093 6.096 6.096 0 0 0-6.099-6.092 6.096 6.096 0 0 0-6.1 6.092 6.097 6.097 0 0 0 6.1 6.093Z" fill="#F2F2F2"/></svg>