<svg width="695" height="753" fill="none" xmlns="http://www.w3.org/2000/svg"><path fill-rule="evenodd" clip-rule="evenodd" d="M440.351 76.5c-73.72-15.902-144.662 28.928-209.445 77.549-69.058 51.83-144.522 108.626-157.593 197.923-13.999 95.633 31.009 183.744 92.408 247.387 63.978 66.315 148.34 116.962 237.748 94.835 87.832-21.738 147.754-110.273 188.563-200.342 37.513-82.793 48.815-175.819 19.019-257.805-29.485-81.128-92.342-142.646-170.7-159.548Z" fill="#fff"/><g filter="url(#a)"><path d="M600.133 424.655H117.535a12.436 12.436 0 0 1-12.426-12.423V114.695a9.116 9.116 0 0 1 9.103-9.102h489.086a9.272 9.272 0 0 1 9.261 9.26v297.379a12.436 12.436 0 0 1-12.426 12.423Z" fill="#F2F2F2"/></g><path d="M584.529 408.969H134.76c-6.593 0-11.957-5.022-11.957-11.195V138.676c0-4.578 3.975-8.303 8.861-8.303h455.815c4.967 0 9.008 3.786 9.008 8.44v258.961c0 6.173-5.365 11.195-11.958 11.195Z" fill="#fff"/><path d="M612.386 116.244H104.935v-6.326a12.478 12.478 0 0 1 12.471-12.46h482.509a12.482 12.482 0 0 1 12.471 12.46v6.326Z" fill="#0094FF"/><path d="M127.598 110.095a3.226 3.226 0 1 0 0-6.451 3.226 3.226 0 0 0 0 6.451Zm12.245 0a3.225 3.225 0 1 0 0-6.45 3.225 3.225 0 0 0 0 6.45Zm12.244 0a3.226 3.226 0 1 0 0-6.452 3.226 3.226 0 0 0 0 6.452Z" fill="#fff"/><path d="M348.975 187.025H261.01a4.943 4.943 0 1 1 0-9.888h87.965a4.945 4.945 0 0 1 0 9.888Zm109.306 0h-87.965a4.941 4.941 0 0 1-4.945-4.944 4.947 4.947 0 0 1 4.945-4.944h87.965a4.945 4.945 0 0 1 0 9.888Zm0 18.735H305.253a4.943 4.943 0 1 1 0-9.888h153.028a4.945 4.945 0 0 1 0 9.888Zm-109.307-37.73h-87.965a4.946 4.946 0 0 1-4.938-4.944 4.944 4.944 0 0 1 4.938-4.944h87.965a4.953 4.953 0 0 1 4.574 3.051 4.937 4.937 0 0 1 0 3.786 4.933 4.933 0 0 1-2.679 2.677 4.948 4.948 0 0 1-1.895.374Zm48.408.26h-24.984a4.947 4.947 0 0 1-4.945-4.944 4.945 4.945 0 0 1 4.945-4.944h24.984a4.945 4.945 0 0 1 0 9.888Zm-111.388 37.47h-24.985a4.942 4.942 0 0 1-3.492-8.437 4.947 4.947 0 0 1 3.492-1.451h24.985a4.953 4.953 0 0 1 4.573 3.051 4.941 4.941 0 0 1-2.679 6.463 4.947 4.947 0 0 1-1.894.374Zm62.981 156.706H261.01a4.947 4.947 0 0 1-4.945-4.944 4.943 4.943 0 0 1 4.945-4.944h87.965a4.935 4.935 0 0 1 3.496 1.448 4.92 4.92 0 0 1 1.072 1.604 4.929 4.929 0 0 1 0 3.784 4.934 4.934 0 0 1-2.676 2.675c-.6.249-1.243.377-1.892.377Zm109.306 0h-87.965a4.946 4.946 0 0 1-3.497-8.44 4.941 4.941 0 0 1 3.497-1.448h87.965a4.935 4.935 0 0 1 3.496 1.448 4.936 4.936 0 0 1 1.448 3.496 4.935 4.935 0 0 1-3.052 4.567c-.6.249-1.243.377-1.892.377Zm0 18.734H305.253a4.943 4.943 0 1 1 0-9.888h153.028a4.963 4.963 0 0 1 3.5 1.446 4.946 4.946 0 0 1 1.074 5.392 4.957 4.957 0 0 1-2.68 2.676 4.943 4.943 0 0 1-1.894.374Zm-109.306-37.73H261.01a4.947 4.947 0 0 1-4.945-4.944 4.945 4.945 0 0 1 4.945-4.944h87.965a4.945 4.945 0 0 1 0 9.888Zm48.407.261h-24.984a4.947 4.947 0 0 1-4.945-4.944 4.945 4.945 0 0 1 4.945-4.944h24.984a4.945 4.945 0 0 1 0 9.888ZM285.994 381.2H261.01a4.943 4.943 0 1 1 0-9.888h24.984a4.963 4.963 0 0 1 3.5 1.446 4.946 4.946 0 0 1 1.074 5.392 4.957 4.957 0 0 1-2.68 2.676 4.943 4.943 0 0 1-1.894.374Z" fill="#CCC"/><path d="M326.001 309.387a7.075 7.075 0 0 1-4.988-2.041l-33.066-32.647a6.884 6.884 0 0 1-2.05-4.904 6.88 6.88 0 0 1 2.05-4.903l32.932-32.516a7.306 7.306 0 0 1 10.275.033 7.29 7.29 0 0 1 0 10.305l-24.472 24.469a4.076 4.076 0 0 0 0 5.757l24.339 24.336a7.09 7.09 0 0 1-5.02 12.111Zm52.689 0a7.095 7.095 0 0 1-6.562-4.376 7.09 7.09 0 0 1 1.542-7.735l24.339-24.335a4.08 4.08 0 0 0 0-5.758l-24.472-24.469a7.273 7.273 0 0 1-2.135-5.153 7.288 7.288 0 0 1 2.135-5.152 7.304 7.304 0 0 1 10.275-.033l32.932 32.516a6.884 6.884 0 0 1 2.05 4.904 6.89 6.89 0 0 1-2.05 4.903l-33.066 32.648a7.08 7.08 0 0 1-4.988 2.04Z" fill="#0094FF"/><path d="M461.49 352.498c-5.753 1.941-10.964 6.479-12.142 12.429-.546 2.758-.212 5.625-.671 8.399-1.066 6.433-6.121 11.346-10.783 15.909-4.663 4.563-9.478 9.866-9.818 16.377-.372 7.13 4.804 13.81 3.908 20.894-1.04 8.229-9.742 13.562-11.893 21.574-1.436 5.35.324 11.113 3.219 15.836 5.519 9.002 14.951 15.113 24.996 18.389 10.045 3.276 20.743 3.965 31.309 4.076 12.865.134 26.834-.969 36.5-9.451a29.194 29.194 0 0 0 9.707-19.016c.919-9.824-3.186-19.976-.355-29.43 1.782-5.949 6.251-11.383 5.584-17.557-.652-6.037-5.93-10.316-9.551-15.193-3.381-4.553-5.433-9.931-7.443-15.232l-6.88-18.14c-1.352-3.566-2.837-7.316-5.851-9.657-5.643-4.381-14.715-3.52-21.313-2.617-6.12.839-12.637.424-18.523 2.41Z" fill="#2F2E41"/><path d="M463.644 405.338s3.05 9.901-19.823 21.325c-22.872 11.424 2.288 23.609 2.288 23.609l26.685 6.093s27.447-3.808 30.497-8.377c3.049-4.57 8.386-19.802 6.861-22.087a35.653 35.653 0 0 0-3.812-4.569s-18.298-3.047-17.536-11.424c.763-8.378-25.16-4.57-25.16-4.57Z" fill="#FFB9B9"/><path opacity=".1" d="M463.644 405.338s3.05 9.901-19.823 21.325c-22.872 11.424 2.288 23.609 2.288 23.609l26.685 6.093s27.447-3.808 30.497-8.377c3.049-4.57 8.386-19.802 6.861-22.087a35.653 35.653 0 0 0-3.812-4.569s-18.298-3.047-17.536-11.424c.763-8.378-25.16-4.57-25.16-4.57Z" fill="#000"/><path d="M478.511 420.951c13.475 0 24.398-10.911 24.398-24.371 0-13.459-10.923-24.371-24.398-24.371-13.474 0-24.397 10.912-24.397 24.371 0 13.46 10.923 24.371 24.397 24.371Z" fill="#FFB9B9"/><path d="M475.842 447.987s-29.382-2.146-29.939-22.398c0 0-10.469-1.211-13.519 1.835-3.05 3.046-12.961 5.331-12.961 12.947 0 7.616 16.773 30.464 16.773 30.464s9.149 30.464 5.337 35.795c-3.812 5.331-4.574 19.04-4.574 19.04s38.121-3.047 44.22 0c6.1 3.046 30.497 3.046 32.022 0 1.525-3.047-1.525-41.126-1.525-41.126s6.862-9.14 5.337-19.802l18.298-21.324s-6.861-20.563-17.535-20.563c0 0-14.486-3.808-14.868-1.904-.381 1.904 7.243 23.228-27.066 27.036Z" fill="#0094FF"/><path d="M407.225 515.008s6.862 10.662 24.398 12.947c17.536 2.285 20.586-3.808 19.061-5.331-1.525-1.523-19.823-8.378-19.823-8.378l-10.674-8.377-12.962 9.139Zm125.036-9.139-19.823 11.424s-25.922-1.524-16.011 6.092c9.912 7.616 28.21 4.57 28.21 4.57l17.536-8.378-9.912-13.708Z" fill="#FFB9B9"/><path d="M433.148 525.67s-18.298 44.934 3.813 51.789c22.11 6.854 83.104 5.331 96.827-3.808 13.724-9.14 17.536-21.325 15.249-25.133-2.287-3.808-17.536-14.47-28.21-15.232-10.674-.762-87.679-7.616-87.679-7.616Z" fill="#2F2E41"/><path opacity=".05" d="M433.148 525.67s-18.298 44.934 3.813 51.789c22.11 6.854 83.104 5.331 96.827-3.808 13.724-9.14 17.536-21.325 15.249-25.133-2.287-3.808-17.536-14.47-28.21-15.232-10.674-.762-87.679-7.616-87.679-7.616Z" fill="#000"/><path d="M519.521 528.462s64.587-23.355 63.825 4.824c-.763 28.179-41.171 35.795-41.171 35.795l-12.199 1.524-67.093 2.284s2.287-12.185-3.05-13.708c0 0 17.536-4.57 18.298-5.332.763-.761 44.221-15.993 47.27-16.755 3.05-.761 12.199-6.854 19.061-6.092 0 0 7.624-6.093 16.011-4.57l-23.635 1.523-17.317.507Z" fill="#2F2E41"/><path opacity=".1" d="M519.521 528.462s64.587-23.355 63.825 4.824c-.763 28.179-41.171 35.795-41.171 35.795l-12.199 1.524-67.093 2.284s2.287-12.185-3.05-13.708c0 0 17.536-4.57 18.298-5.332.763-.761 44.221-15.993 47.27-16.755 3.05-.761 12.199-6.854 19.061-6.092 0 0 7.624-6.093 16.011-4.57l-23.635 1.523-17.317.507Z" fill="#000"/><path d="m508.109 532.244 8.143 18.559 49.557-17.517 3.813-9.9-12.962-2.286-26.058 4.571-11.301 3.046-11.192 3.527Z" fill="#2F2E41"/><path opacity=".1" d="m508.109 532.244 8.143 18.559 49.557-17.517 3.813-9.9-12.962-2.286-26.058 4.571-11.301 3.046-11.192 3.527Z" fill="#000"/><path d="M402.65 554.611s14.487 18.278 31.26 22.847c16.773 4.57 25.922-1.523 25.922-1.523l-5.337-21.324-2.287-13.709-9.911-6.854-19.823-9.14-23.636-7.616s-9.911-1.523-9.911 0c0 1.524 9.149 24.371 9.149 24.371l4.574 12.948Z" fill="#2F2E41"/><path d="M420.185 564.511s3.05 22.086 6.862 23.61c3.812 1.523 15.249-1.524 18.298-3.047 3.05-1.523 13.416-8.551 13.416-8.551s-36.288-13.535-38.576-12.012Z" fill="#CCC"/><path d="m489.568 566.796 14.486 2.285-1.526 17.516-20.205-4.902 7.245-14.899Z" fill="#FFB9B9"/><path d="M498.642 571.671s-6.789 8.073.073 12.642l4.575 3.808s15.248 3.046 16.773 4.57c1.525 1.523 7.624-2.285 7.624-2.285s.763-22.848 0-24.371c-.762-1.523-9.911-3.046-10.674-1.523-.762 1.523-9.911 3.808-15.248 2.285l-3.123 4.874Z" fill="#CCC"/><path d="M437.721 531.001s-53.369-31.225-61.756-19.801c-8.387 11.423-17.536 27.417 6.862 39.602 24.397 12.186 100.64 37.319 100.64 37.319s11.436-17.517 11.436-22.087c0 0-40.408-18.278-47.27-19.801-6.862-1.523-34.309-19.04-38.121-20.563-3.812-1.523-9.149-6.093-9.149-6.093l37.358 11.424Z" fill="#2F2E41"/><path d="m422.474 436.563-3.05 2.285s-6.862 17.517-7.624 27.417c-.763 9.901-9.912 40.365-9.149 44.173.762 3.808 1.525 6.854 6.099 10.662 0 0 6.1-13.708 16.773-11.424l12.962-47.219-16.011-25.894Zm106.739 0 6.099 6.855s3.812 9.139 3.812 11.424c0 2.284 7.624 35.794 8.387 37.318.762 1.523 3.812 20.563 0 25.132-3.812 4.57-10.674 7.616-10.674 7.616s4.575-15.993-9.912-16.755l1.525-6.093-13.723-45.695 14.486-19.802Z" fill="#0094FF"/><path d="M423.998 488.998v40.116c0 2.533.998 4.965 2.778 6.769a9.66 9.66 0 0 0 6.734 2.875L517.497 540a9.657 9.657 0 0 0 6.786-2.644 9.644 9.644 0 0 0 3.005-6.629l1.545-40.12a9.645 9.645 0 0 0-9.509-10.015l-85.531-1.238a9.66 9.66 0 0 0-9.046 5.921 9.636 9.636 0 0 0-.749 3.723Z" fill="#3F3D56"/><path d="M479.942 395.799c14.504 0 26.262-6.324 26.262-14.126 0-7.801-11.758-14.125-26.262-14.125-14.504 0-26.261 6.324-26.261 14.125 0 7.802 11.757 14.126 26.261 14.126Z" fill="#2F2E41"/><path d="M475.461 516.15a6.096 6.096 0 0 0 6.099-6.093 6.096 6.096 0 0 0-6.099-6.092 6.096 6.096 0 0 0-6.1 6.092 6.097 6.097 0 0 0 6.1 6.093Z" fill="#F2F2F2"/><path d="m19.535 520.569-4.617 19.023c-.051.212-.043.434.023.642l20.942 65.372a1.187 1.187 0 0 0 1.25.821 1.192 1.192 0 0 0 1.065-1.049l2.897-25.466a1.19 1.19 0 0 0-.05-.503L21.821 520.48a1.19 1.19 0 0 0-2.287.089Z" fill="#2F2E41"/><path d="m21.233 522.175-4.264 16.321 18.472 59.609 4.262-18.45-18.47-57.48Z" fill="#F2F2F2"/><path d="M114.295 610.878c-.71 2.129-73.882-.709-74.592-1.419a15.398 15.398 0 0 1-1.563-2.839c-.668-1.419-1.279-2.838-1.279-2.838l2.842-22.978 72.461-2.569s1.811 19.473 2.181 28.385a21.26 21.26 0 0 1-.05 4.258Z" fill="#2F2E41"/><path opacity=".1" d="m48.938 583.912-1.42 19.87h31.968v-19.87H48.938Zm41.203 6.387-.19-.037.9 8.553h17.76v-8.516h-18.47Zm24.154 20.579c-.71 2.129-73.882-.709-74.592-1.419a15.398 15.398 0 0 1-1.563-2.839h76.205a21.26 21.26 0 0 1-.05 4.258Z" fill="#000"/><path d="M227.25 536.367h-19.891l-49.018-19.16s-34.81-14.192-31.968 12.774c2.842 26.966 7.814 63.157 7.814 63.157s15.629-7.097 24.154-4.968c8.525 2.129 2.842-43.287 2.842-43.287s69.619 33.352 76.013 29.095c6.393-4.258 7.814-34.062 7.814-34.062l-17.76-3.549Z" fill="#2F2E41"/><path opacity=".1" d="M227.25 536.367h-19.891l-49.018-19.16s-34.81-14.192-31.968 12.774c2.842 26.966 7.814 63.157 7.814 63.157s15.629-7.097 24.154-4.968c8.525 2.129 2.842-43.287 2.842-43.287s69.619 33.352 76.013 29.095c6.393-4.258 7.814-34.062 7.814-34.062l-17.76-3.549Z" fill="#000"/><path d="m195.91 474.143-24.072 34.549-56.122 46.835s-51.86 12.064-44.755 20.579c7.103 8.516 50.438-8.515 50.438-8.515s64.647-46.836 66.778-50.384c2.131-3.548 25.574-36.901 25.574-36.901l-17.841-6.163Z" fill="#FFB8B8"/><path opacity=".1" d="m195.91 474.143-24.072 34.549-56.122 46.835s-51.86 12.064-44.755 20.579c7.103 8.516 50.438-8.515 50.438-8.515s64.647-46.836 66.778-50.384c2.131-3.548 25.574-36.901 25.574-36.901l-17.841-6.163Z" fill="#000"/><path d="M199.544 436.309c-17.656 0-31.968-14.297-31.968-31.933s14.312-31.933 31.968-31.933c17.655 0 31.968 14.297 31.968 31.933s-14.313 31.933-31.968 31.933Z" fill="#FFB8B8"/><path d="M201.674 432.762s10.656 18.45 12.787 28.385c2.131 9.935 31.968-19.87 31.968-19.87l3.907-10.289s-28.061-13.128-25.93-23.773c2.132-10.644-22.732 25.547-22.732 25.547Z" fill="#FFB8B8"/><path d="m210.199 446.244-15.629 30.514s3.552 14.903 9.235 16.322c5.684 1.419 29.837-18.45 29.837-18.45l-23.443-28.386Z" fill="#C1E8F2"/><path d="m195.992 488.113-29.127 38.319-69.619 51.803s-50.439 10.645-39.072 18.451c11.366 7.806 44.045-7.097 44.045-7.097s70.33-37.61 85.248-53.222c14.918-15.612 42.624-41.868 42.624-41.868l-34.099-6.386Z" fill="#FFB8B8"/><path d="m235.062 547.721-8.524 13.483-50.877-15.988a40.04 40.04 0 0 0-33.306 4.013c-8.88 5.589-14.563 14.459-1.776 27.587 25.574 26.257 42.624 12.064 42.624 12.064s85.959 40.449 100.167 20.579c14.208-19.87 14.918-29.804 14.918-29.804s-54.701-34.062-63.226-31.934Z" fill="#2F2E41"/><path d="M128.17 591.212s-22.733 14.902 4.262 21.998c26.996 7.096 46.887-2.838 46.887-2.838s23.443 0 23.443-12.064-7.814-13.483-7.814-13.483l-24.154 3.548s-29.126-7.806-42.624 2.839Z" fill="#CCC"/><path d="M173.317 396.344a23.863 23.863 0 0 1-6.699 2.397 6.124 6.124 0 0 1-6.179-2.645 8.292 8.292 0 0 1-.701-3.754c-.086-3.896.196-8.109 2.668-11.125 1.574-1.919 3.87-3.129 5.499-5.001a23.667 23.667 0 0 0 2.779-4.537c3.167-5.942 7.857-11.652 14.374-13.365a31.188 31.188 0 0 1 8.39-.641l16.412.231c2.658-.085 5.316.2 7.895.849 5.282 1.595 9.129 6.033 12.651 10.276a64.232 64.232 0 0 1 7.256 10.003 35.062 35.062 0 0 1 4.165 17.198 16.08 16.08 0 0 1-.59 4.55 25.204 25.204 0 0 1-1.791 3.929c-3.077 6.038-4.905 13.581-1.439 19.406-6.021-2.457-11.978-5.678-15.95-10.823-1.777-2.302-3.17-4.996-5.538-6.685-2.368-1.689-6.227-1.835-7.746.644a6.924 6.924 0 0 0-.783 3.248 14.861 14.861 0 0 1-.898 5.481 4.109 4.109 0 0 1-4.467 2.546c-3.093-.87-2.797-5.612-5.179-7.766-1.809-1.636-4.6-1.323-6.925-2.066a10.275 10.275 0 0 1-5.898-5.803c-.88-1.971-.867-7.131-2.532-8.199-2.089-1.339-6.838.79-8.774 1.652Z" fill="#2F2E41"/><path d="M252.875 427.622a8.427 8.427 0 0 0-4.388.011c-4.56 1.223-14.783 4.46-16.975 9.387-2.842 6.386-12.787 16.321-12.787 16.321s-13.498 13.483-10.656 22.708c2.841 9.225 13.497 19.87 13.497 19.87s-2.841 43.997 11.367 55.351c14.208 11.354 19.891 3.548 19.891 14.192 0 10.645 44.045 43.997 52.57 23.418 0 0-4.262-38.32-2.842-51.803 1.401-13.288-.649-96.197-49.677-109.455Z" fill="#C1E8F2"/><path d="M230.09 445.536s-43.334 31.933-35.52 45.416c0 0 26.285 12.773 31.968 12.064 5.684-.71 27.706-25.547 33.389-27.676 5.684-2.129 8.525-40.449-29.837-29.804Z" fill="#C1E8F2"/><defs><filter id="a" x="97.109" y="97.593" width="523.45" height="335.062" filterUnits="userSpaceOnUse" color-interpolation-filters="sRGB"><feFlood flood-opacity="0" result="BackgroundImageFix"/><feColorMatrix in="SourceAlpha" values="0 0 0 0 0 0 0 0 0 0 0 0 0 0 0 0 0 0 127 0" result="hardAlpha"/><feOffset/><feGaussianBlur stdDeviation="4"/><feColorMatrix values="0 0 0 0 0 0 0 0 0 0 0 0 0 0 0 0 0 0 0.19 0"/><feBlend in2="BackgroundImageFix" result="effect1_dropShadow_157_10"/><feBlend in="SourceGraphic" in2="effect1_dropShadow_157_10" result="shape"/></filter></defs></svg>