<svg width="292" height="259" fill="none" xmlns="http://www.w3.org/2000/svg"><path d="M5.535 163.569.918 182.592c-.051.212-.043.434.023.642l20.942 65.372a1.187 1.187 0 0 0 1.25.821 1.192 1.192 0 0 0 1.065-1.049l2.897-25.466a1.19 1.19 0 0 0-.05-.503L7.821 163.48a1.19 1.19 0 0 0-2.287.089Z" fill="#2F2E41"/><path d="m7.233 165.175-4.264 16.321 18.472 59.609 4.262-18.45-18.47-57.48Z" fill="#F2F2F2"/><path d="M100.295 253.878c-.71 2.129-73.882-.709-74.592-1.419a15.398 15.398 0 0 1-1.563-2.839c-.668-1.419-1.279-2.838-1.279-2.838l2.842-22.978 72.46-2.569s1.812 19.473 2.182 28.385a21.26 21.26 0 0 1-.05 4.258Z" fill="#2F2E41"/><path opacity=".1" d="m34.938 226.912-1.42 19.87h31.968v-19.87H34.938Zm41.203 6.387-.19-.037.9 8.553h17.76v-8.516h-18.47Zm24.154 20.579c-.71 2.129-73.882-.709-74.592-1.419a15.398 15.398 0 0 1-1.563-2.839h76.205a21.26 21.26 0 0 1-.05 4.258Z" fill="#000"/><path d="M213.25 179.367h-19.891l-49.018-19.16s-34.81-14.192-31.968 12.774c2.842 26.966 7.814 63.157 7.814 63.157s15.629-7.097 24.154-4.968c8.525 2.129 2.842-43.287 2.842-43.287s69.619 33.352 76.013 29.095c6.393-4.258 7.814-34.062 7.814-34.062l-17.76-3.549Z" fill="#2F2E41"/><path opacity=".1" d="M213.25 179.367h-19.891l-49.018-19.16s-34.81-14.192-31.968 12.774c2.842 26.966 7.814 63.157 7.814 63.157s15.629-7.097 24.154-4.968c8.525 2.129 2.842-43.287 2.842-43.287s69.619 33.352 76.013 29.095c6.393-4.258 7.814-34.062 7.814-34.062l-17.76-3.549Z" fill="#000"/><path d="m181.91 117.143-24.072 34.549-56.122 46.835s-51.86 12.064-44.755 20.579c7.103 8.516 50.438-8.515 50.438-8.515s64.647-46.836 66.778-50.384c2.131-3.548 25.574-36.901 25.574-36.901l-17.841-6.163Z" fill="#FFB8B8"/><path opacity=".1" d="m181.91 117.143-24.072 34.549-56.122 46.835s-51.86 12.064-44.755 20.579c7.103 8.516 50.438-8.515 50.438-8.515s64.647-46.836 66.778-50.384c2.131-3.548 25.574-36.901 25.574-36.901l-17.841-6.163Z" fill="#000"/><path d="M185.544 79.31c-17.656 0-31.968-14.298-31.968-31.934 0-17.636 14.312-31.933 31.968-31.933 17.655 0 31.968 14.297 31.968 31.933s-14.313 31.933-31.968 31.933Z" fill="#FFB8B8"/><path d="M187.674 75.762s10.656 18.45 12.787 28.385c2.131 9.935 31.968-19.87 31.968-19.87l3.907-10.29s-28.061-13.127-25.93-23.772c2.132-10.644-22.732 25.547-22.732 25.547Z" fill="#FFB8B8"/><path d="m196.199 89.244-15.629 30.514s3.552 14.903 9.235 16.322c5.684 1.419 29.837-18.45 29.837-18.45l-23.443-28.386Z" fill="#C1E8F2"/><path d="m181.992 131.113-29.127 38.319-69.619 51.803s-50.439 10.645-39.072 18.451c11.366 7.806 44.045-7.097 44.045-7.097s70.33-37.61 85.248-53.222c14.918-15.612 42.624-41.868 42.624-41.868l-34.099-6.386Z" fill="#FFB8B8"/><path d="m221.062 190.721-8.524 13.483-50.877-15.988a40.04 40.04 0 0 0-33.306 4.013c-8.88 5.589-14.563 14.459-1.776 27.587 25.574 26.257 42.624 12.064 42.624 12.064s85.959 40.449 100.167 20.579c14.208-19.87 14.918-29.804 14.918-29.804s-54.701-34.062-63.226-31.934Z" fill="#2F2E41"/><path d="M114.17 234.212s-22.733 14.902 4.262 21.998c26.996 7.096 46.887-2.838 46.887-2.838s23.443 0 23.443-12.064-7.814-13.483-7.814-13.483l-24.154 3.548s-29.126-7.806-42.624 2.839Z" fill="#CCC"/><path d="M159.317 39.344a23.845 23.845 0 0 1-6.699 2.397 6.123 6.123 0 0 1-6.179-2.645 8.295 8.295 0 0 1-.701-3.754c-.086-3.896.196-8.11 2.668-11.125 1.574-1.919 3.87-3.129 5.499-5.002a23.663 23.663 0 0 0 2.779-4.536c3.167-5.942 7.857-11.652 14.374-13.365a31.204 31.204 0 0 1 8.39-.641l16.412.231c2.658-.085 5.316.2 7.895.849 5.282 1.595 9.129 6.033 12.651 10.276a64.208 64.208 0 0 1 7.256 10.003 35.061 35.061 0 0 1 4.165 17.198 16.083 16.083 0 0 1-.59 4.55 25.194 25.194 0 0 1-1.791 3.929c-3.077 6.038-4.905 13.581-1.439 19.406-6.021-2.457-11.978-5.678-15.95-10.823-1.777-2.302-3.17-4.996-5.538-6.685-2.368-1.689-6.227-1.835-7.746.644a6.928 6.928 0 0 0-.783 3.248 14.863 14.863 0 0 1-.898 5.481 4.11 4.11 0 0 1-4.467 2.546c-3.093-.87-2.797-5.612-5.179-7.766-1.809-1.636-4.6-1.323-6.925-2.066a10.274 10.274 0 0 1-5.898-5.803c-.88-1.971-.867-7.131-2.532-8.199-2.089-1.34-6.838.79-8.774 1.652Z" fill="#2F2E41"/><path d="M238.875 70.622a8.438 8.438 0 0 0-4.388.01c-4.56 1.224-14.783 4.461-16.975 9.388-2.842 6.386-12.787 16.321-12.787 16.321s-13.498 13.483-10.656 22.708c2.841 9.225 13.497 19.87 13.497 19.87s-2.841 43.997 11.367 55.351c14.208 11.354 19.891 3.548 19.891 14.192 0 10.645 44.045 43.997 52.57 23.418 0 0-4.262-38.32-2.842-51.803 1.401-13.288-.649-96.197-49.677-109.455Z" fill="#C1E8F2"/><path d="M216.09 88.536s-43.334 31.933-35.52 45.416c0 0 26.285 12.773 31.968 12.064 5.684-.71 27.706-25.547 33.389-27.676 5.684-2.129 8.525-40.449-29.837-29.804Z" fill="#C1E8F2"/></svg>