<svg width="74" height="74" fill="none" xmlns="http://www.w3.org/2000/svg"><path d="M36.377 30.372c-4.819-.303-8.682-4.155-8.986-8.96-.366-5.77 4.407-10.57 10.232-10.203 4.819.304 8.682 4.156 8.986 8.96.367 5.792-4.432 10.57-10.232 10.203Zm8.064-10.067c-.235-3.718-3.225-6.7-6.955-6.935-4.499-.282-8.212 3.416-7.927 7.906.235 3.718 3.225 6.7 6.955 6.935 4.495.282 8.212-3.412 7.927-7.905Z" fill="#173C5C"/><path d="M53.587 15.69h.024c2.329 0 4.24 1.81 4.24 4.148v1.803a4.262 4.262 0 0 1-4.264 4.25c-1.567 0-2.352 1.88-1.24 2.988a4.247 4.247 0 0 1 0 6.012l-1.206 1.202a4.27 4.27 0 0 1-6.03 0c-1.107-1.105-2.995-.329-2.995 1.238a4.262 4.262 0 0 1-4.263 4.25h-1.706c-2.35 0-4.263-1.907-4.263-4.25 0-1.565-1.887-2.344-2.996-1.238a4.277 4.277 0 0 1-6.028 0l-1.206-1.202a4.247 4.247 0 0 1 0-6.012c1.112-1.108.324-2.987-1.241-2.987h-.024c-2.334 0-4.24-1.814-4.24-4.148v-1.906c0-2.336 1.908-4.148 4.24-4.148h.024c1.568 0 2.351-1.88 1.24-2.988a4.247 4.247 0 0 1 0-6.011l1.28-1.275c1.647-1.643 4.288-1.602 5.95.067 1.108 1.113 3.001.335 3.001-1.232C31.884 1.907 33.797 0 36.147 0h1.706a4.262 4.262 0 0 1 4.263 4.25c0 1.563 1.884 2.346 2.996 1.238a4.276 4.276 0 0 1 6.028 0l1.206 1.202a4.247 4.247 0 0 1 0 6.012c-1.114 1.11-.32 2.988 1.241 2.988Zm-2.777-4.52a2.083 2.083 0 0 0 0-2.948l-1.206-1.203a2.094 2.094 0 0 0-2.956 0c-2.473 2.466-6.704.725-6.704-2.768a2.09 2.09 0 0 0-2.091-2.085h-1.706a2.09 2.09 0 0 0-2.09 2.085c0 3.494-4.242 5.242-6.715 2.758-.818-.822-2.082-.852-2.874-.062L23.19 8.222a2.083 2.083 0 0 0 0 2.949c2.48 2.473.714 6.703-2.792 6.684h-.009c-1.147 0-2.067.859-2.067 1.983v1.905c0 1.126.922 1.983 2.067 1.983h.024c3.498 0 5.253 4.215 2.777 6.684a2.083 2.083 0 0 0 0 2.95l1.206 1.202c.817.815 2.14.815 2.957 0 2.473-2.466 6.703-.724 6.703 2.768a2.09 2.09 0 0 0 2.091 2.085h1.706a2.09 2.09 0 0 0 2.09-2.085c0-3.487 4.227-5.238 6.705-2.768.817.814 2.14.814 2.956 0l1.206-1.203a2.083 2.083 0 0 0 0-2.949c-2.473-2.466-.725-6.684 2.777-6.684a2.09 2.09 0 0 0 2.091-2.085v-1.803c0-1.126-.922-1.983-2.067-1.983h-.024c-3.497 0-5.253-4.215-2.777-6.684Z" fill="#173C5C"/><path d="M4.223 10.077H16.73a1.084 1.084 0 1 1 0 2.165H4.223a2.05 2.05 0 0 0-2.051 2.045v34.106h69.656V14.287a2.05 2.05 0 0 0-2.05-2.045H57.247a1.084 1.084 0 1 1 0-2.165h12.53A4.221 4.221 0 0 1 74 14.287v40.06a4.221 4.221 0 0 1-4.222 4.21H44.983v.216a9.48 9.48 0 0 0 3.606 7.42h3.585a3.913 3.913 0 0 1 3.915 3.904A3.913 3.913 0 0 1 52.174 74H21.826a3.913 3.913 0 0 1-3.915-3.903 3.913 3.913 0 0 1 3.915-3.903h3.585a9.481 9.481 0 0 0 3.606-7.42v-.217H4.223A4.221 4.221 0 0 1 0 54.347v-40.06a4.221 4.221 0 0 1 4.223-4.21Zm17.603 58.282c-.961 0-1.743.78-1.743 1.738s.782 1.737 1.743 1.737h30.348c.961 0 1.743-.78 1.743-1.737 0-.958-.782-1.738-1.743-1.738H21.826Zm6.673-2.165h17.002a11.644 11.644 0 0 1-2.69-7.42v-.217H31.19v.216c0 2.729-.975 5.355-2.69 7.42ZM2.172 54.346a2.05 2.05 0 0 0 2.05 2.045h65.555a2.05 2.05 0 0 0 2.051-2.045v-3.788H2.172v3.788Z" fill="#173C5C"/></svg>