<svg width="71" height="74" fill="none" xmlns="http://www.w3.org/2000/svg"><path d="M25.246 34.662a5.003 5.003 0 0 0 3.603 1.526h.004a5.013 5.013 0 0 0 3.608-1.525c.421-.43.41-1.117-.025-1.533a1.104 1.104 0 0 0-1.549.025 2.83 2.83 0 0 1-2.034.865h-.002a2.819 2.819 0 0 1-2.029-.864 1.104 1.104 0 0 0-1.549-.027 1.076 1.076 0 0 0-.027 1.533Zm-3.32-8.407a1.066 1.066 0 0 1 1.461.001c.213.204.487.305.761.305.287 0 .573-.11.788-.33.42-.432.41-1.118-.026-1.534-1.246-1.191-3.27-1.19-4.51.002a1.076 1.076 0 0 0-.023 1.533c.422.43 1.115.44 1.55.023Zm11.862.305c.274 0 .548-.1.76-.304a1.066 1.066 0 0 1 1.462-.002 1.104 1.104 0 0 0 1.549-.022 1.076 1.076 0 0 0-.023-1.533c-1.24-1.192-3.264-1.193-4.51-.002a1.076 1.076 0 0 0-.027 1.533c.215.22.502.33.788.33Z" fill="#173C5C"/><path d="M69.862 53.458a1.1 1.1 0 0 0-1.43-.59 1.08 1.08 0 0 0-.597 1.414c1.98 4.763.883 10.191-2.793 13.83a12.793 12.793 0 0 1-9.06 3.72h-.002a12.803 12.803 0 0 1-9.066-3.72c-5-4.953-5-13.013 0-17.966a12.798 12.798 0 0 1 4.83-3.011l.055-.019a12.945 12.945 0 0 1 4.18-.69h.003a12.79 12.79 0 0 1 9.06 3.72 1.104 1.104 0 0 0 1.55 0 1.074 1.074 0 0 0 0-1.532 14.98 14.98 0 0 0-10.61-4.356h-.003c-1.505 0-2.977.218-4.379.64-2.238-1.552-4.849-2.69-7.434-3.243a207.13 207.13 0 0 1-2.147-1.64 589.19 589.19 0 0 0-2.325-1.784c2.426-2.338 4.305-5.25 5.164-8.214.985-.2 1.981-.737 2.788-1.524.997-.974 1.569-2.2 1.569-3.36v-1.52c0-1.443-1.185-2.616-2.642-2.616h-1.216v-7.23c0-2.924-1.148-5.706-3.319-8.044-1.89-2.036-4.558-3.705-7.512-4.7-2.766-.93-5.692-1.24-8.239-.871-2.678.388-4.864 1.489-6.353 3.195-3.027.43-7.537 2.707-7.383 12.475l.003.236v4.939h-1.212c-1.459 0-2.646 1.173-2.646 2.616v1.52c0 1.16.572 2.386 1.57 3.36.806.788 1.802 1.324 2.787 1.524.872 3.01 2.795 5.965 5.275 8.32-.733.56-1.501 1.15-2.207 1.694-.9.693-1.693 1.304-2.124 1.624-2.743.586-5.517 1.834-7.838 3.53a1.077 1.077 0 0 0-.23 1.516 1.1 1.1 0 0 0 1.532.228c2.004-1.465 4.382-2.557 6.744-3.1l6.456 4.757c.025.018.05.035.075.05.242.15.4.272.528.37.392.303.729.422 1.027.422.499 0 .89-.333 1.251-.698.189-.19.46-.463.872-.83l.616 2.398-3.743 12.356.002-.006c-.135.36-.11.701.071 1.033l2.055 3.855H11.896v-7.057a1.09 1.09 0 0 0-1.095-1.084 1.09 1.09 0 0 0-1.096 1.084v7.057h-6.86c-.121 0-.237.002-.347.004-.094.002-.205.004-.302.003a2.713 2.713 0 0 1-.005-.164V55.857c0-1.99.673-3.917 2-5.726a1.077 1.077 0 0 0-.244-1.514 1.103 1.103 0 0 0-1.53.24C.813 51.045 0 53.4 0 55.858V67.38c0 .52.063 1.274.603 1.8.488.473 1.09.532 1.654.532.095 0 .188-.002.28-.003.097-.002.2-.004.308-.004h42.581A14.989 14.989 0 0 0 55.98 74h.003a14.98 14.98 0 0 0 10.61-4.355c4.302-4.26 5.585-10.613 3.269-16.187Zm-25.904-9.63a18.66 18.66 0 0 1 5.161 2.067 15.058 15.058 0 0 0-3.755 2.719c-5.187 5.139-5.776 13.134-1.768 18.922h-9.097l2.047-3.845c.185-.34.211-.68.075-1.046l-3.74-12.346.664-2.578c.53.459.857.788 1.076 1.009.362.365.752.698 1.25.698.299 0 .636-.119 1.028-.422.127-.098.286-.22.527-.37.026-.016.051-.032.076-.05l6.456-4.758Zm-16.94 5.41-.77-2.997 2.834-2.582 2.63 2.397-.819 3.182h-3.875Zm13.656-7.512c.446.343.854.657 1.209.928l-5.655 4.167c-.096.06-.183.118-.262.171a19.97 19.97 0 0 0-1.06-.974l-1.22-1.11a1.02 1.02 0 0 0-.015-.015l-2.14-1.95c.526-.13 1.07-.3 1.643-.513 1.699-.627 3.34-1.574 4.84-2.742.858.651 1.803 1.378 2.66 2.038Zm5.9-18.562a.45.45 0 0 1 .45.449v1.52c0 .576-.343 1.256-.918 1.817a3.926 3.926 0 0 1-.782.594c.021-.271.033-.539.033-.801v-3.579h1.216ZM20.597 5.452c.305-.027.585-.178.772-.419 1.592-2.047 4.258-2.865 7.074-2.865 1.813 0 3.688.34 5.377.908 4.31 1.451 9.345 5.122 9.345 10.691v6.119H41.45c-2.399 0-3.93-1.423-5.705-3.072-2.121-1.97-4.525-4.205-8.785-4.205h-4.838c-3.585 0-4.164 2.798-4.587 4.84-.455 2.2-.802 3.407-2.79 3.536v-4.928l-.003-.27c-.07-4.474.888-9.9 5.856-10.335Zm-9.71 19.68v-1.52c0-.242.208-.448.454-.448h1.212v3.579c0 .263.012.53.034.802a3.96 3.96 0 0 1-.783-.595c-.575-.562-.918-1.24-.918-1.817Zm4.105 3.659-.002-.01a9.153 9.153 0 0 1-.246-2.038v-3.588c3.882-.182 4.514-3.232 4.937-5.27.476-2.302.79-3.108 2.44-3.108h4.838c3.392 0 5.283 1.758 7.285 3.618 1.937 1.799 3.939 3.659 7.205 3.659h1.716v4.689a9.157 9.157 0 0 1-.246 2.04l-.002.007c-1.111 4.817-5.628 9.806-10.511 11.61-1.292.478-2.388.701-3.45.701-1.065 0-2.16-.223-3.45-.702-4.884-1.802-9.402-6.791-10.514-11.608Zm8.265 17.227c-.48.412-.816.732-1.06.974a7.434 7.434 0 0 0-.263-.17l-5.654-4.168c.348-.267.75-.575 1.186-.912.82-.63 1.723-1.327 2.555-1.959 1.467 1.124 3.065 2.037 4.717 2.647a14.9 14.9 0 0 0 1.844.558l-2.29 2.087a.817.817 0 0 0-.021.02l-1.014.923Zm.213 16.976 3.51-11.588h3.948l3.511 11.588-2.418 4.542h-6.13l-2.42-4.542Z" fill="#173C5C"/><path d="M55.98 66.418a1.09 1.09 0 0 0 1.096-1.084v-9.79l2.371 2.35a1.1 1.1 0 0 0 .776.317c.28 0 .56-.105.774-.317a1.076 1.076 0 0 0 0-1.533l-4.242-4.203-.002-.002a1.097 1.097 0 0 0-1.509-.033.478.478 0 0 0-.039.034l-4.246 4.204a1.076 1.076 0 0 0 0 1.533 1.102 1.102 0 0 0 1.549 0l2.376-2.352v9.792a1.09 1.09 0 0 0 1.096 1.084Z" fill="#173C5C"/></svg>