<svg width="77" height="74" fill="none" xmlns="http://www.w3.org/2000/svg"><path d="m51.707 45.861-5.85-1.966c-2.003-1.509-3.819-1.402-4.571-1.581l-1.652-1.528a3.394 3.394 0 0 0-2.788-.893v-3.954c3.042-2.285 5.147-5.903 5.525-10.075 1.436-.243 2.537-1.567 2.537-3.159V10.082c0-2.756-2.112-4.998-4.708-4.998h-.12c-.045 0-.081-.039-.081-.086C39.999 2.242 37.887 0 35.29 0H22.954c-5.165 0-9.367 4.46-9.367 9.944v12.761c0 1.592 1.101 2.917 2.538 3.159.377 4.172 2.482 7.79 5.524 10.075v3.953a3.395 3.395 0 0 0-2.783.894l-1.673 1.547c-.32.085-1.468.174-2.834.985L6.793 45.86C2.73 47.227 0 51.184 0 55.708v13.74C0 71.959 1.923 74 4.287 74h49.926c2.364 0 4.287-2.042 4.287-4.551v-13.74c0-4.525-2.73-8.482-6.793-9.848Zm-13.555-3.27 1.114 1.031c-4.813 6.657-4.724 7.252-5.609 6.862L30.95 48.04l5.464-5.402.049-.043.011-.012a1.227 1.227 0 0 1 1.68.009Zm1.26 4.817c-.747 4.54-2.888 9.818-5.167 14.537l-1.923-7.71 1.078-1.35c1.187.24 2.345-.285 3.022-1.244l2.99-4.233ZM29.25 49.662l2.173 1.995-.864 1.084h-2.623l-.878-1.066 2.192-2.013Zm0-3.215-5.345-5.284v-3.859a12.462 12.462 0 0 0 5.342 1.205c1.896 0 3.706-.43 5.343-1.205v3.864l-5.34 5.28ZM15.843 9.944c0-4.162 3.19-7.549 7.111-7.549h12.337c1.352 0 2.452 1.168 2.452 2.603 0 1.368 1.048 2.481 2.337 2.481h.12c1.352 0 2.452 1.168 2.452 2.603v7.102h-1.345c-.752 0-1.363-.65-1.363-1.447v-1.448c0-2.708-2.492-4.645-4.937-3.787a17.448 17.448 0 0 1-11.52 0c-2.433-.855-4.935 1.066-4.935 3.787v1.448c0 .798-.612 1.447-1.364 1.447h-1.345v-7.24Zm2.498 15.308c-.058-.977-.823-1.743-1.742-1.743-.417 0-.756-.36-.756-.803v-3.128h1.345c1.996 0 3.62-1.723 3.62-3.841v-1.448c0-1.108 1.024-1.846 1.959-1.519l.018.007a19.603 19.603 0 0 0 12.93-.001c.975-.342 1.973.428 1.973 1.513v1.447c0 2.119 1.623 3.842 3.619 3.842h1.345v3.127c0 .443-.339.804-.756.804-.92 0-1.684.765-1.742 1.743-.362 6.09-5.153 10.862-10.907 10.862-5.753 0-10.544-4.77-10.906-10.862Zm2.007 17.34a1.227 1.227 0 0 1 1.675-.012l.015.015.046.041 5.467 5.404-2.737 2.456a.783.783 0 0 1-.931-.292l-4.65-6.582 1.115-1.03Zm1.73 9.049c.67.948 1.812 1.474 2.987 1.253l1.133 1.376-1.515 7.234c-2.371-4.54-4.645-9.609-5.507-13.972l2.902 4.109Zm4.936 19.964c-2.416-1.918-4.546-3.774-6.336-5.518a1.082 1.082 0 0 0-1.594.072 1.25 1.25 0 0 0 .068 1.692 77.944 77.944 0 0 0 4.165 3.754h-11.71v-6.648c0-.662-.506-1.198-1.129-1.198s-1.128.536-1.128 1.198v6.648H4.287c-1.12 0-2.031-.967-2.031-2.156V55.71c0-3.476 2.097-6.516 5.218-7.565l3.814-1.282c-.4.915-.604 1.8-.604 2.64 0 1.945 2.225 3.774 3.282 4.578-1.072 1.344-1.53 2.867-1.296 4.322.25 1.538 1.134 3.271 2.706 5.299.396.51 1.107.584 1.588.163.48-.42.55-1.174.154-1.685-1.616-2.085-2.102-3.425-2.224-4.182-.166-1.022.42-1.95.942-2.548a2.18 2.18 0 0 0 .506-1.647 2.097 2.097 0 0 0-.81-1.48c-1.888-1.407-2.592-2.477-2.592-2.82 0-.577.184-1.235.546-1.957a5.127 5.127 0 0 1 3.087-2.628c.383 8.23 6.835 19.277 10.786 26.04l.378.648h-.723Zm2.262-1.91a266.365 266.365 0 0 1-2.928-5.106l1.98-9.453h1.885l2.474 9.92a179.618 179.618 0 0 1-2.946 5.437l-.465-.797Zm2.466 1.91c3.998-7.121 9.915-18.493 10.194-26.776.041.017 3.057.211 4.278 3.15.23.553.346 1.065.346 1.522 0 .343-.704 1.413-2.592 2.821-.454.339-.75.878-.81 1.48a2.178 2.178 0 0 0 .507 1.647c.52.598 1.107 1.526.942 2.547-.471 2.91-4.884 7.862-12.121 13.609h-.744Zm24.502-2.156c0 1.189-.911 2.156-2.031 2.156h-5.068v-6.648c0-.662-.505-1.198-1.128-1.198-.623 0-1.128.536-1.128 1.198v6.648H36.182c3.39-2.859 9.917-8.685 10.648-13.203.236-1.455-.223-2.978-1.295-4.322 1.057-.803 3.282-2.633 3.282-4.579 0-.718-.151-1.473-.445-2.249l2.654.892c3.121 1.05 5.218 4.089 5.218 7.564V69.45Zm19.528-51.485-8.009-8.501c-.792-.842-1.845-1.305-2.966-1.305h-15.77c-.623 0-1.128.536-1.128 1.198 0 .661.505 1.197 1.128 1.197h15.424v7.712c0 1.773 1.358 3.216 3.029 3.216h7.264v39.266c0 1.134-.87 2.058-1.938 2.058H62.645c-.623 0-1.128.536-1.128 1.197 0 .662.505 1.197 1.128 1.197h10.16c2.313 0 4.195-1.997 4.195-4.452V21.113c0-1.19-.436-2.308-1.228-3.149Zm-8.293 1.122c-.426 0-.773-.368-.773-.821v-6.537l6.932 7.358h-6.159Z" fill="#173C5C"/><rect x="47.865" y="28.72" width="2.209" height="19.77" rx="1.104" transform="rotate(-90 47.865 28.72)" fill="#173C5C"/><rect x="47.865" y="37.557" width="2.209" height="19.77" rx="1.104" transform="rotate(-90 47.865 37.557)" fill="#173C5C"/><rect x="47.865" y="46.395" width="2.209" height="19.77" rx="1.104" transform="rotate(-90 47.865 46.395)" fill="#173C5C"/></svg>