<svg width="570" height="267" fill="none" xmlns="http://www.w3.org/2000/svg"><path d="M447.49 3.498c-5.753 1.94-10.964 6.48-12.142 12.43-.546 2.757-.212 5.624-.671 8.398-1.066 6.433-6.121 11.346-10.783 15.909-4.663 4.563-9.478 9.865-9.818 16.377-.372 7.13 4.804 13.81 3.908 20.894-1.04 8.23-9.742 13.562-11.893 21.574-1.436 5.35.324 11.113 3.219 15.836 5.519 9.002 14.951 15.113 24.996 18.389 10.045 3.276 20.743 3.965 31.309 4.076 12.865.134 26.834-.969 36.5-9.451a29.194 29.194 0 0 0 9.707-19.016c.919-9.824-3.186-19.976-.355-29.43 1.782-5.95 6.251-11.383 5.584-17.557-.652-6.037-5.93-10.316-9.551-15.193-3.381-4.553-5.433-9.93-7.443-15.232l-6.88-18.14c-1.352-3.566-2.837-7.316-5.851-9.657-5.643-4.381-14.715-3.52-21.313-2.617-6.12.839-12.637.424-18.523 2.41Z" fill="#2F2E41"/><path d="M449.644 56.338s3.05 9.901-19.823 21.325c-22.872 11.424 2.288 23.609 2.288 23.609l26.685 6.093s27.447-3.808 30.497-8.377c3.049-4.57 8.386-19.802 6.861-22.087a35.63 35.63 0 0 0-3.812-4.57s-18.298-3.046-17.536-11.423c.763-8.378-25.16-4.57-25.16-4.57Z" fill="#FFB9B9"/><path opacity=".1" d="M449.644 56.338s3.05 9.901-19.823 21.325c-22.872 11.424 2.288 23.609 2.288 23.609l26.685 6.093s27.447-3.808 30.497-8.377c3.049-4.57 8.386-19.802 6.861-22.087a35.63 35.63 0 0 0-3.812-4.57s-18.298-3.046-17.536-11.423c.763-8.378-25.16-4.57-25.16-4.57Z" fill="#000"/><path d="M464.511 71.951c13.475 0 24.398-10.911 24.398-24.37 0-13.46-10.923-24.372-24.398-24.372-13.474 0-24.397 10.912-24.397 24.371 0 13.46 10.923 24.371 24.397 24.371Z" fill="#FFB9B9"/><path d="M461.842 98.987s-29.382-2.146-29.939-22.398c0 0-10.469-1.211-13.519 1.835-3.05 3.046-12.961 5.331-12.961 12.947 0 7.616 16.773 30.464 16.773 30.464s9.149 30.464 5.337 35.795c-3.812 5.331-4.574 19.04-4.574 19.04s38.121-3.047 44.22 0c6.1 3.046 30.497 3.046 32.022 0 1.525-3.047-1.525-41.126-1.525-41.126s6.862-9.14 5.337-19.802l18.298-21.324s-6.861-20.564-17.535-20.564c0 0-14.486-3.808-14.868-1.903-.381 1.904 7.243 23.228-27.066 27.036Z" fill="#0094FF"/><path d="M393.225 166.008s6.862 10.662 24.398 12.947c17.536 2.285 20.586-3.808 19.061-5.331-1.525-1.523-19.823-8.378-19.823-8.378l-10.674-8.377-12.962 9.139Zm125.036-9.139-19.823 11.424s-25.922-1.524-16.011 6.092c9.912 7.616 28.21 4.57 28.21 4.57l17.536-8.378-9.912-13.708Z" fill="#FFB9B9"/><path d="M419.148 176.67s-18.298 44.934 3.813 51.789c22.11 6.854 83.104 5.331 96.827-3.808 13.724-9.14 17.536-21.325 15.249-25.133-2.287-3.808-17.536-14.47-28.21-15.232-10.674-.762-87.679-7.616-87.679-7.616Z" fill="#2F2E41"/><path opacity=".05" d="M419.148 176.67s-18.298 44.934 3.813 51.789c22.11 6.854 83.104 5.331 96.827-3.808 13.724-9.14 17.536-21.325 15.249-25.133-2.287-3.808-17.536-14.47-28.21-15.232-10.674-.762-87.679-7.616-87.679-7.616Z" fill="#000"/><path d="M505.521 179.462s64.587-23.355 63.825 4.824c-.763 28.179-41.171 35.795-41.171 35.795l-12.199 1.524-67.093 2.284s2.287-12.185-3.05-13.708c0 0 17.536-4.57 18.298-5.332.763-.761 44.221-15.993 47.27-16.755 3.05-.761 12.199-6.854 19.061-6.092 0 0 7.624-6.093 16.011-4.57l-23.635 1.523-17.317.507Z" fill="#2F2E41"/><path opacity=".1" d="M505.521 179.462s64.587-23.355 63.825 4.824c-.763 28.179-41.171 35.795-41.171 35.795l-12.199 1.524-67.093 2.284s2.287-12.185-3.05-13.708c0 0 17.536-4.57 18.298-5.332.763-.761 44.221-15.993 47.27-16.755 3.05-.761 12.199-6.854 19.061-6.092 0 0 7.624-6.093 16.011-4.57l-23.635 1.523-17.317.507Z" fill="#000"/><path d="m494.109 183.244 8.143 18.559 49.557-17.517 3.813-9.9-12.962-2.286-26.058 4.571-11.301 3.046-11.192 3.527Z" fill="#2F2E41"/><path opacity=".1" d="m494.109 183.244 8.143 18.559 49.557-17.517 3.813-9.9-12.962-2.286-26.058 4.571-11.301 3.046-11.192 3.527Z" fill="#000"/><path d="M388.65 205.611s14.487 18.278 31.26 22.847c16.773 4.57 25.922-1.523 25.922-1.523l-5.337-21.324-2.287-13.709-9.911-6.854-19.823-9.14-23.636-7.616s-9.911-1.523-9.911 0c0 1.524 9.149 24.371 9.149 24.371l4.574 12.948Z" fill="#2F2E41"/><path d="M406.185 215.511s3.05 22.086 6.862 23.61c3.812 1.523 15.249-1.524 18.298-3.047 3.05-1.523 13.416-8.551 13.416-8.551s-36.288-13.535-38.576-12.012Z" fill="#CCC"/><path d="m475.568 217.796 14.486 2.285-1.526 17.516-20.205-4.902 7.245-14.899Z" fill="#FFB9B9"/><path d="M484.642 222.671s-6.789 8.073.073 12.642l4.575 3.808s15.248 3.046 16.773 4.57c1.525 1.523 7.624-2.285 7.624-2.285s.763-22.848 0-24.371c-.762-1.523-9.911-3.046-10.674-1.523-.762 1.523-9.911 3.808-15.248 2.285l-3.123 4.874Z" fill="#CCC"/><path d="M423.721 182.001s-53.369-31.225-61.756-19.801c-8.387 11.423-17.536 27.417 6.862 39.602 24.397 12.186 100.64 37.319 100.64 37.319s11.436-17.517 11.436-22.087c0 0-40.408-18.278-47.27-19.801-6.862-1.523-34.309-19.04-38.121-20.563-3.812-1.523-9.149-6.093-9.149-6.093l37.358 11.424Z" fill="#2F2E41"/><path d="m408.474 87.563-3.05 2.285s-6.862 17.517-7.624 27.417c-.763 9.901-9.912 40.365-9.149 44.173.762 3.808 1.525 6.854 6.099 10.662 0 0 6.1-13.708 16.773-11.424l12.962-47.219-16.011-25.894Zm106.739 0 6.099 6.855s3.812 9.139 3.812 11.424c0 2.284 7.624 35.794 8.387 37.318.762 1.523 3.812 20.563 0 25.132-3.812 4.57-10.674 7.616-10.674 7.616s4.575-15.993-9.912-16.755l1.525-6.093-13.723-45.695 14.486-19.802Z" fill="#0094FF"/><path d="M409.998 139.998v40.116c0 2.533.998 4.965 2.778 6.769a9.66 9.66 0 0 0 6.734 2.875L503.497 191a9.657 9.657 0 0 0 6.786-2.644 9.644 9.644 0 0 0 3.005-6.629l1.545-40.12a9.645 9.645 0 0 0-9.509-10.015l-85.531-1.238a9.66 9.66 0 0 0-9.046 5.921 9.636 9.636 0 0 0-.749 3.723Z" fill="#3F3D56"/><path d="M465.942 46.799c14.504 0 26.262-6.324 26.262-14.126 0-7.801-11.758-14.125-26.262-14.125-14.504 0-26.261 6.324-26.261 14.125 0 7.802 11.757 14.126 26.261 14.126Z" fill="#2F2E41"/><path d="M461.461 167.15a6.096 6.096 0 0 0 6.099-6.093 6.096 6.096 0 0 0-6.099-6.092 6.096 6.096 0 0 0-6.1 6.092 6.097 6.097 0 0 0 6.1 6.093Z" fill="#F2F2F2"/><path d="M5.535 171.569.918 190.592c-.051.212-.043.434.023.642l20.942 65.372a1.187 1.187 0 0 0 1.25.821 1.192 1.192 0 0 0 1.065-1.049l2.897-25.466a1.19 1.19 0 0 0-.05-.503L7.821 171.48a1.19 1.19 0 0 0-2.287.089Z" fill="#2F2E41"/><path d="m7.233 173.175-4.264 16.321 18.472 59.609 4.262-18.45-18.47-57.48Z" fill="#F2F2F2"/><path d="M100.295 261.878c-.71 2.129-73.882-.709-74.592-1.419a15.398 15.398 0 0 1-1.563-2.839c-.668-1.419-1.279-2.838-1.279-2.838l2.842-22.978 72.46-2.569s1.812 19.473 2.182 28.385a21.26 21.26 0 0 1-.05 4.258Z" fill="#2F2E41"/><path opacity=".1" d="m34.938 234.912-1.42 19.87h31.968v-19.87H34.938Zm41.203 6.387-.19-.037.9 8.553h17.76v-8.516h-18.47Zm24.154 20.579c-.71 2.129-73.882-.709-74.592-1.419a15.398 15.398 0 0 1-1.563-2.839h76.205a21.26 21.26 0 0 1-.05 4.258Z" fill="#000"/><path d="M213.25 187.367h-19.891l-49.018-19.16s-34.81-14.192-31.968 12.774c2.842 26.966 7.814 63.157 7.814 63.157s15.629-7.097 24.154-4.968c8.525 2.129 2.842-43.287 2.842-43.287s69.619 33.352 76.013 29.095c6.393-4.258 7.814-34.062 7.814-34.062l-17.76-3.549Z" fill="#2F2E41"/><path opacity=".1" d="M213.25 187.367h-19.891l-49.018-19.16s-34.81-14.192-31.968 12.774c2.842 26.966 7.814 63.157 7.814 63.157s15.629-7.097 24.154-4.968c8.525 2.129 2.842-43.287 2.842-43.287s69.619 33.352 76.013 29.095c6.393-4.258 7.814-34.062 7.814-34.062l-17.76-3.549Z" fill="#000"/><path d="m181.91 125.143-24.072 34.549-56.122 46.835s-51.86 12.064-44.755 20.579c7.103 8.516 50.438-8.515 50.438-8.515s64.647-46.836 66.778-50.384c2.131-3.548 25.574-36.901 25.574-36.901l-17.841-6.163Z" fill="#FFB8B8"/><path opacity=".1" d="m181.91 125.143-24.072 34.549-56.122 46.835s-51.86 12.064-44.755 20.579c7.103 8.516 50.438-8.515 50.438-8.515s64.647-46.836 66.778-50.384c2.131-3.548 25.574-36.901 25.574-36.901l-17.841-6.163Z" fill="#000"/><path d="M185.544 87.31c-17.656 0-31.968-14.298-31.968-31.934 0-17.636 14.312-31.933 31.968-31.933 17.655 0 31.968 14.297 31.968 31.933s-14.313 31.933-31.968 31.933Z" fill="#FFB8B8"/><path d="M187.674 83.762s10.656 18.45 12.787 28.385c2.131 9.935 31.968-19.87 31.968-19.87l3.907-10.29s-28.061-13.127-25.93-23.772c2.132-10.644-22.732 25.547-22.732 25.547Z" fill="#FFB8B8"/><path d="m196.199 97.244-15.629 30.514s3.552 14.903 9.235 16.322c5.684 1.419 29.837-18.45 29.837-18.45l-23.443-28.386Z" fill="#C1E8F2"/><path d="m181.992 139.113-29.127 38.319-69.619 51.803s-50.439 10.645-39.072 18.451c11.366 7.806 44.045-7.097 44.045-7.097s70.33-37.61 85.248-53.222c14.918-15.612 42.624-41.868 42.624-41.868l-34.099-6.386Z" fill="#FFB8B8"/><path d="m221.062 198.721-8.524 13.483-50.877-15.988a40.04 40.04 0 0 0-33.306 4.013c-8.88 5.589-14.563 14.459-1.776 27.587 25.574 26.257 42.624 12.064 42.624 12.064s85.959 40.449 100.167 20.579c14.208-19.87 14.918-29.804 14.918-29.804s-54.701-34.062-63.226-31.934Z" fill="#2F2E41"/><path d="M114.17 242.212s-22.733 14.902 4.262 21.998c26.996 7.096 46.887-2.838 46.887-2.838s23.443 0 23.443-12.064-7.814-13.483-7.814-13.483l-24.154 3.548s-29.126-7.806-42.624 2.839Z" fill="#CCC"/><path d="M159.317 47.344a23.845 23.845 0 0 1-6.699 2.397 6.123 6.123 0 0 1-6.179-2.645 8.295 8.295 0 0 1-.701-3.754c-.086-3.896.196-8.11 2.668-11.125 1.574-1.919 3.87-3.129 5.499-5.002a23.663 23.663 0 0 0 2.779-4.536c3.167-5.942 7.857-11.652 14.374-13.365a31.204 31.204 0 0 1 8.39-.641l16.412.231c2.658-.085 5.316.2 7.895.849 5.282 1.595 9.129 6.033 12.651 10.276a64.208 64.208 0 0 1 7.256 10.003 35.061 35.061 0 0 1 4.165 17.198 16.083 16.083 0 0 1-.59 4.55 25.194 25.194 0 0 1-1.791 3.929c-3.077 6.038-4.905 13.581-1.439 19.406-6.021-2.457-11.978-5.678-15.95-10.823-1.777-2.302-3.17-4.996-5.538-6.685-2.368-1.689-6.227-1.835-7.746.644a6.928 6.928 0 0 0-.783 3.248 14.863 14.863 0 0 1-.898 5.481 4.11 4.11 0 0 1-4.467 2.546c-3.093-.87-2.797-5.612-5.179-7.766-1.809-1.636-4.6-1.323-6.925-2.066a10.274 10.274 0 0 1-5.898-5.803c-.88-1.971-.867-7.131-2.532-8.199-2.089-1.34-6.838.79-8.774 1.652Z" fill="#2F2E41"/><path d="M238.875 78.622a8.438 8.438 0 0 0-4.388.01c-4.56 1.224-14.783 4.461-16.975 9.388-2.842 6.386-12.787 16.321-12.787 16.321s-13.498 13.483-10.656 22.708c2.841 9.225 13.497 19.87 13.497 19.87s-2.841 43.997 11.367 55.351c14.208 11.354 19.891 3.548 19.891 14.192 0 10.645 44.045 43.997 52.57 23.418 0 0-4.262-38.32-2.842-51.803 1.401-13.288-.649-96.197-49.677-109.455Z" fill="#C1E8F2"/><path d="M216.09 96.536s-43.334 31.933-35.52 45.416c0 0 26.285 12.773 31.968 12.064 5.684-.71 27.706-25.547 33.389-27.676 5.684-2.129 8.525-40.449-29.837-29.804Z" fill="#C1E8F2"/></svg>