<svg width="524" height="336" fill="none" xmlns="http://www.w3.org/2000/svg"><g filter="url(#a)"><path d="M503.133 327.655H20.535a12.436 12.436 0 0 1-12.426-12.423V17.695a9.112 9.112 0 0 1 9.103-9.102h489.086a9.272 9.272 0 0 1 9.261 9.26v297.379a12.436 12.436 0 0 1-12.426 12.423Z" fill="#F2F2F2"/></g><path d="M487.529 311.969H37.76c-6.593 0-11.956-5.022-11.956-11.195V41.676c0-4.578 3.974-8.303 8.86-8.303h455.815c4.967 0 9.008 3.786 9.008 8.44v258.961c0 6.173-5.365 11.195-11.958 11.195Z" fill="#fff"/><path d="M515.386 19.244H7.935v-6.325A12.479 12.479 0 0 1 20.405.457h482.51a12.484 12.484 0 0 1 12.471 12.462v6.325Z" fill="#0094FF"/><path d="M30.598 13.095a3.225 3.225 0 1 0 0-6.451 3.225 3.225 0 0 0 0 6.45Zm12.245 0a3.225 3.225 0 1 0 0-6.451 3.225 3.225 0 0 0 0 6.45Zm12.244 0a3.225 3.225 0 1 0 0-6.451 3.225 3.225 0 0 0 0 6.45Z" fill="#fff"/><path d="M251.975 90.025H164.01a4.947 4.947 0 0 1-4.945-4.944 4.945 4.945 0 0 1 4.945-4.944h87.965a4.945 4.945 0 0 1 0 9.888Zm109.306 0h-87.965a4.945 4.945 0 1 1 0-9.888h87.965a4.945 4.945 0 0 1 0 9.888Zm0 18.735H208.253a4.943 4.943 0 1 1 0-9.888h153.028a4.945 4.945 0 0 1 4.945 4.944 4.94 4.94 0 0 1-1.449 3.496 4.94 4.94 0 0 1-3.496 1.448ZM251.974 71.03h-87.965a4.944 4.944 0 0 1 0-9.888h87.965a4.95 4.95 0 0 1 3.501 1.446 4.942 4.942 0 0 1 0 6.996 4.954 4.954 0 0 1-3.501 1.446Zm48.408.26h-24.984a4.947 4.947 0 0 1-4.945-4.944 4.945 4.945 0 0 1 4.945-4.944h24.984a4.944 4.944 0 0 1 0 9.888Zm-111.388 37.47h-24.985a4.942 4.942 0 0 1-3.492-8.437 4.944 4.944 0 0 1 3.492-1.45h24.985a4.95 4.95 0 0 1 3.5 1.445 4.941 4.941 0 0 1-1.606 8.068 4.947 4.947 0 0 1-1.894.374Zm62.981 156.706H164.01a4.947 4.947 0 0 1-4.945-4.944 4.943 4.943 0 0 1 4.945-4.944h87.965a4.935 4.935 0 0 1 3.496 1.448 4.92 4.92 0 0 1 1.072 1.604 4.929 4.929 0 0 1 0 3.784 4.934 4.934 0 0 1-2.676 2.675c-.6.249-1.243.377-1.892.377Zm109.306 0h-87.965a4.946 4.946 0 0 1-3.497-8.44 4.941 4.941 0 0 1 3.497-1.448h87.965a4.935 4.935 0 0 1 3.496 1.448 4.936 4.936 0 0 1 1.448 3.496 4.935 4.935 0 0 1-3.052 4.567c-.6.249-1.243.377-1.892.377Zm0 18.734H208.253a4.943 4.943 0 1 1 0-9.888h153.028a4.963 4.963 0 0 1 3.5 1.446 4.946 4.946 0 0 1 1.074 5.392 4.957 4.957 0 0 1-2.68 2.676 4.943 4.943 0 0 1-1.894.374Zm-109.306-37.73H164.01a4.947 4.947 0 0 1-4.945-4.944 4.945 4.945 0 0 1 4.945-4.944h87.965a4.945 4.945 0 0 1 0 9.888Zm48.407.261h-24.984a4.947 4.947 0 0 1-4.945-4.944 4.945 4.945 0 0 1 4.945-4.944h24.984a4.945 4.945 0 0 1 0 9.888ZM188.994 284.2H164.01a4.943 4.943 0 1 1 0-9.888h24.984a4.963 4.963 0 0 1 3.5 1.446 4.946 4.946 0 0 1 1.074 5.392 4.957 4.957 0 0 1-2.68 2.676 4.943 4.943 0 0 1-1.894.374Z" fill="#CCC"/><path d="M229.001 212.387a7.075 7.075 0 0 1-4.988-2.041l-33.066-32.647a6.884 6.884 0 0 1-2.05-4.904 6.88 6.88 0 0 1 2.05-4.903l32.932-32.516a7.306 7.306 0 0 1 10.275.033 7.29 7.29 0 0 1 0 10.305l-24.472 24.469a4.076 4.076 0 0 0 0 5.757l24.339 24.336a7.09 7.09 0 0 1-5.02 12.111Zm52.689 0a7.095 7.095 0 0 1-6.562-4.376 7.09 7.09 0 0 1 1.542-7.735l24.339-24.335a4.08 4.08 0 0 0 0-5.758l-24.472-24.469a7.273 7.273 0 0 1-2.135-5.153 7.288 7.288 0 0 1 2.135-5.152 7.304 7.304 0 0 1 10.275-.033l32.932 32.516a6.884 6.884 0 0 1 2.05 4.904 6.89 6.89 0 0 1-2.05 4.903l-33.066 32.648a7.08 7.08 0 0 1-4.988 2.04Z" fill="#0094FF"/><defs><filter id="a" x=".109" y=".593" width="523.45" height="335.062" filterUnits="userSpaceOnUse" color-interpolation-filters="sRGB"><feFlood flood-opacity="0" result="BackgroundImageFix"/><feColorMatrix in="SourceAlpha" values="0 0 0 0 0 0 0 0 0 0 0 0 0 0 0 0 0 0 127 0" result="hardAlpha"/><feOffset/><feGaussianBlur stdDeviation="4"/><feColorMatrix values="0 0 0 0 0 0 0 0 0 0 0 0 0 0 0 0 0 0 0.19 0"/><feBlend in2="BackgroundImageFix" result="effect1_dropShadow_157_12"/><feBlend in="SourceGraphic" in2="effect1_dropShadow_157_12" result="shape"/></filter></defs></svg>