<svg width="164" height="260" fill="none" xmlns="http://www.w3.org/2000/svg"><path d="M91.581 59.683c16.493 0 29.864-13.36 29.864-29.841C121.445 13.36 108.074 0 91.581 0 75.088 0 61.718 13.36 61.718 29.841s13.37 29.842 29.863 29.842Z" fill="#2F2E41"/><path d="m63.173 221.49-.792-13.543 51.921-9.501 1.17 19.991-52.298 3.053Z" fill="#FFB8B8"/><path d="m65.716 198.038 1.527 26.099-16.445.96-2.488-42.531a16.472 16.472 0 0 1 11.91 4.134 16.47 16.47 0 0 1 5.496 11.338Z" fill="#2F2E41"/><path d="m85.775 221.314-8.62 10.455L32.6 203.598l12.722-15.431 40.452 33.147Z" fill="#FFB8B8"/><path d="m67.996 236.832 16.612-20.196 12.725 10.451L70.261 260a16.471 16.471 0 0 1-5.934-11.115 16.449 16.449 0 0 1 3.669-12.053Zm-7.017-64.221-5.884 27.761a4.433 4.433 0 0 0 2.375 4.892 4.405 4.405 0 0 0 1.882.454l57.846.934a4.42 4.42 0 0 0 4.34-3.265 4.438 4.438 0 0 0 .088-1.932l-5.06-28.695a4.422 4.422 0 0 0-4.357-3.658H65.307a4.427 4.427 0 0 0-4.328 3.509Z" fill="#2F2E41"/><path d="M70.543 182.394s-56.39-35.366-67.447-16.578c-5.529 9.394-2.764 18.512 1.382 25.281a38.283 38.283 0 0 0 15.925 14.248l45.717 22.362 16.585-17.683-11.057-9.947-1.105-17.683Zm28.809-5.512s73.004-21.016 58.624 18.803c-14.379 39.818-68.579 24.333-68.579 24.333l-5.53-16.591 18.803-13.273-3.318-13.272Z" fill="#2F2E41"/><path d="M91.954 63.828c15.005 0 27.168-12.173 27.168-27.19 0-15.015-12.163-27.188-27.168-27.188-15.004 0-27.167 12.173-27.167 27.189S76.95 63.828 91.954 63.828Z" fill="#FFB8B8"/><path d="M93.387 181.287a146.13 146.13 0 0 1-33.483-4.409l-.324-.088-15.166-69.728A25.676 25.676 0 0 1 47.02 89.03a25.698 25.698 0 0 1 13.917-11.768 89.085 89.085 0 0 1 56.769-1.133 25.968 25.968 0 0 1 14.664 11.97 25.946 25.946 0 0 1 2.638 18.738l-16.94 69.894-.239.114c-7.04 3.333-15.843 4.442-24.443 4.442Z" fill="#0094FF"/><path d="M73.022 186.664a11.112 11.112 0 0 1 6.637-6.665 11.141 11.141 0 0 1 9.383.799l29.866-25.871 2.703 20.331-28.776 21.45a11.19 11.19 0 0 1-6.473 4.606 11.21 11.21 0 0 1-7.904-.846 11.175 11.175 0 0 1-5.347-5.871 11.145 11.145 0 0 1-.09-7.933Z" fill="#FFB8B8"/><path d="M101.511 192.312a5.018 5.018 0 0 1-1.434-.211 4.916 4.916 0 0 1-3.277-3.114l-3.603-10.204a4.942 4.942 0 0 1 1.44-5.421l40.674-24.408-16.033-71.498.407-.099c.166-.04 16.593-3.778 23.325 14.165 4.714 12.567 22.159 39.892 20.928 58.357a16.456 16.456 0 0 1-13.63 15.179l-45.783 26.22a4.934 4.934 0 0 1-3.014 1.034Z" fill="#0094FF"/><path d="M106.076 184.234a11.138 11.138 0 0 0-11.417-7.318c-1.622.138-3.193.63-4.603 1.441L60.189 152.44l-2.702 20.367 28.776 21.488a11.188 11.188 0 0 0 14.377 3.767 11.184 11.184 0 0 0 5.436-13.828Z" fill="#FFB8B8"/><path d="M80.572 192.312a4.93 4.93 0 0 1-3.014-1.034L28.45 167.27a16.467 16.467 0 0 1-13.632-15.179c-1.23-18.465 19.535-48.001 24.25-60.568C45.8 73.58 62.229 77.316 62.395 77.358l.408.098-19.354 73.709 43.997 22.197a4.948 4.948 0 0 1 1.44 5.421l-3.603 10.204a4.924 4.924 0 0 1-3.277 3.114c-.466.139-.949.21-1.434.211Z" fill="#0094FF"/><path d="M139.165 203.42H40.679a7.764 7.764 0 0 1-5.475-2.269 7.74 7.74 0 0 1-2.271-5.468v-54.157a7.742 7.742 0 0 1 2.271-5.468 7.764 7.764 0 0 1 5.475-2.269h98.486a7.764 7.764 0 0 1 5.475 2.269 7.746 7.746 0 0 1 2.272 5.468v54.157a7.744 7.744 0 0 1-2.272 5.468 7.764 7.764 0 0 1-5.475 2.269Z" fill="#3F3D56"/><path d="M89.922 175.236a6.634 6.634 0 0 0 6.636-6.631 6.634 6.634 0 0 0-6.636-6.632 6.634 6.634 0 0 0-6.636 6.632 6.634 6.634 0 0 0 6.636 6.631Z" fill="#fff"/><path d="M64.52 35.561c-1.61-4.087 1.032-8.957 4.95-10.936 3.919-1.98 8.647-1.603 12.839-.299 3.522 1.097 6.823 2.796 10.26 4.138a22.947 22.947 0 0 0 10.786 1.922c3.665-.414 7.314-2.47 8.813-5.843 1.555-3.496.498-7.763-1.896-10.746a20.795 20.795 0 0 0-9.525-6.126c-8.082-2.85-17.417-2.933-24.92 1.21-7.503 4.14-12.602 12.96-11.05 21.394" fill="#2F2E41"/></svg>