<svg width="224" height="216" fill="none" xmlns="http://www.w3.org/2000/svg"><path d="M141.059 151.78a7.833 7.833 0 0 0 5.531-2.238l36.759-36.015a7.634 7.634 0 0 0 1.714-8.369 7.635 7.635 0 0 0-1.667-2.496l-36.298-36.186a8.084 8.084 0 0 0-11.373-.013 8.082 8.082 0 0 0-2.384 5.699 8.084 8.084 0 0 0 2.334 5.72l26.971 27.228a4.518 4.518 0 0 1-.028 6.379l-27.058 26.848a7.863 7.863 0 0 0 1.137 12.103 7.852 7.852 0 0 0 4.362 1.34Zm-58.322-.254a7.85 7.85 0 0 0 7.285-4.817 7.862 7.862 0 0 0-1.67-8.577l-26.825-27.081a4.516 4.516 0 0 1 .028-6.379L88.76 77.677a8.074 8.074 0 0 0 1.787-8.791 8.073 8.073 0 0 0-1.738-2.627 8.083 8.083 0 0 0-11.373-.085l-36.61 35.87a7.632 7.632 0 0 0-2.292 5.423 7.639 7.639 0 0 0 2.245 5.442l36.445 36.332a7.826 7.826 0 0 0 5.512 2.285Z" fill="#fff"/></svg>