<svg width="30" height="30" fill="none" xmlns="http://www.w3.org/2000/svg"><path d="m3.222 25.476-.21.978.21-.978Zm23.556 0 .21.978-.21-.978Zm0-20.952.21-.978-.21.978Zm-23.556 0 .21.978-.21-.978ZM13 11l.555-.832A1 1 0 0 0 12 11h1Zm0 8h-1a1 1 0 0 0 1.555.832L13 19Zm6-4 .555.832a1 1 0 0 0 0-1.664L19 15ZM0 7.272v15.456h2V7.272H0Zm30 15.456V7.272h-2v15.456h2ZM3.012 26.454a57.214 57.214 0 0 0 23.976 0l-.42-1.956a55.214 55.214 0 0 1-23.137 0l-.419 1.956ZM26.988 3.546a57.213 57.213 0 0 0-23.976 0l.42 1.956a55.213 55.213 0 0 1 23.137 0l.419-1.956ZM30 7.272a3.81 3.81 0 0 0-3.012-3.726l-.42 1.956A1.81 1.81 0 0 1 28 7.272h2Zm-2 15.456a1.81 1.81 0 0 1-1.431 1.77l.419 1.956A3.81 3.81 0 0 0 30 22.728h-2Zm-28 0a3.81 3.81 0 0 0 3.012 3.726l.42-1.956A1.81 1.81 0 0 1 2 22.728H0ZM2 7.272a1.81 1.81 0 0 1 1.431-1.77l-.419-1.956A3.81 3.81 0 0 0 0 7.272h2ZM12 11v8h2v-8h-2Zm1.555 8.832 6-4-1.11-1.664-6 4 1.11 1.664Zm6-5.664-6-4-1.11 1.664 6 4 1.11-1.664Z" fill="#fff"/></svg>