<svg width="74" height="74" viewBox="0 0 74 74" fill="none" xmlns="http://www.w3.org/2000/svg">
<path d="M36.3767 30.3723C31.5585 30.0686 27.6955 26.2167 27.3909 21.4123C27.0254 15.6427 31.7977 10.8425 37.6234 11.2092C42.4415 11.5127 46.3046 15.3646 46.6091 20.1689C46.9761 25.9612 42.1768 30.7389 36.3767 30.3723ZM44.4414 20.3055C44.2058 16.5869 41.2157 13.6053 37.4864 13.3703C32.987 13.0882 29.2741 16.7858 29.5586 21.2756C29.7943 24.9943 32.7844 27.9758 36.5137 28.2108C41.0086 28.4931 44.7261 24.7991 44.4414 20.3055Z" fill="#173C5C"/>
<path d="M53.5873 15.6896C53.5955 15.6894 53.6031 15.6896 53.6111 15.6896C55.9397 15.6896 57.8502 17.4996 57.8502 19.8379V21.641C57.8502 23.9848 55.9379 25.8918 53.5873 25.8918C52.0205 25.8918 51.2353 27.7712 52.3465 28.8792C54.0084 30.5366 54.0084 33.2334 52.3465 34.8907L51.1405 36.0932C49.4744 37.7543 46.778 37.7547 45.1118 36.0932C44.0036 34.9883 42.1158 35.7641 42.1158 37.3307C42.1158 39.6745 40.2035 41.5814 37.8529 41.5814H36.1474C33.7968 41.5814 31.8844 39.6744 31.8844 37.3307C31.8844 35.766 29.9973 34.9873 28.8884 36.0932C27.2261 37.7505 24.5219 37.7505 22.8596 36.0932L21.6537 34.8907C19.9918 33.2334 19.9918 30.5366 21.6537 28.8792C22.7657 27.7707 21.9784 25.8918 20.4127 25.8918H20.389C18.0553 25.8918 16.1498 24.0775 16.1498 21.7436V19.8381C16.1498 17.5023 18.0573 15.6897 20.3889 15.6897C20.3944 15.6897 20.3999 15.6897 20.4054 15.6897C20.4079 15.6897 20.4101 15.6897 20.4125 15.6897C21.9808 15.6897 22.7641 13.8091 21.6537 12.7023C19.9918 11.0449 19.9918 8.34827 21.6538 6.69078L22.9324 5.41587C24.5799 3.7727 27.2215 3.81418 28.883 5.48294C29.9911 6.59626 31.8842 5.81839 31.8842 4.25066C31.8842 1.9068 33.7965 0 36.1472 0H37.8528C40.2034 0 42.1156 1.90695 42.1156 4.25066C42.1156 5.81305 44.0004 6.59583 45.1117 5.488C46.7739 3.83066 49.4781 3.83066 51.1404 5.488L52.3463 6.6905C54.0083 8.34784 54.0083 11.0446 52.3462 12.702C51.2324 13.8127 52.0253 15.6896 53.5873 15.6896ZM50.8105 11.1707C51.6258 10.3578 51.6258 9.03494 50.8105 8.22195L49.6045 7.01945C48.7875 6.20473 47.4649 6.20458 46.6476 7.01945C44.1749 9.48515 39.9439 7.74355 39.9439 4.25066C39.9439 3.10092 39.0058 2.16566 37.8529 2.16566H36.1474C34.9943 2.16566 34.0564 3.10106 34.0564 4.25066C34.0564 7.74529 29.8151 9.49281 27.3421 7.00861C26.5239 6.18695 25.2604 6.15689 24.4682 6.94704L23.1897 8.22195C22.3744 9.03494 22.3744 10.3577 23.1895 11.1707C25.6697 13.6435 23.904 17.8736 20.3976 17.8551H20.3892C19.2418 17.8551 18.3218 18.7136 18.3218 19.8378V21.7433C18.3218 22.869 19.2435 23.7258 20.3892 23.7258C20.3976 23.7258 20.405 23.726 20.4128 23.7258C23.9109 23.7258 25.6659 27.9409 23.1897 30.4104C22.3744 31.2234 22.3744 32.5461 23.1897 33.3591L24.3956 34.5616C25.2128 35.3765 26.5352 35.3765 27.3527 34.5615C29.8259 32.0956 34.0562 33.8379 34.0562 37.3304C34.0562 38.4801 34.9943 39.4154 36.1472 39.4154H37.8528C39.0058 39.4154 39.9438 38.48 39.9438 37.3303C39.9438 33.843 44.1704 32.0916 46.6475 34.5615C47.4646 35.3762 48.7872 35.3763 49.6044 34.5615L50.8103 33.359C51.6257 32.546 51.6257 31.2232 50.8103 30.4102C48.3367 27.9435 50.0853 23.7257 53.5872 23.7257C54.7402 23.7257 55.6782 22.7903 55.6782 21.6407V19.8376C55.6782 18.7117 54.7563 17.855 53.6108 17.855H53.5872C50.0898 17.8551 48.3338 13.6404 50.8105 11.1707Z" fill="#173C5C"/>
<path d="M4.22256 10.0768H16.7296C17.3294 10.0768 17.8155 10.5616 17.8155 11.1596C17.8155 11.7577 17.3294 12.2425 16.7296 12.2425H4.22256C3.09184 12.2425 2.17187 13.1598 2.17187 14.2873V48.3926H71.8281V14.2873C71.8281 13.1598 70.9082 12.2425 69.7775 12.2425H57.2469C56.6471 12.2425 56.161 11.7577 56.161 11.1596C56.161 10.5616 56.6471 10.0768 57.2469 10.0768H69.7775C72.1057 10.0768 74 11.9657 74 14.2873V54.3464C74 56.6681 72.1057 58.5569 69.7775 58.5569H44.9831V58.7731C44.9831 61.6613 46.3251 64.4093 48.589 66.1937H52.1743C54.3326 66.1937 56.0885 67.9447 56.0885 70.0969C56.0885 72.2491 54.3326 73.9999 52.1743 73.9999H21.8256C19.6672 73.9999 17.9113 72.249 17.9113 70.0969C17.9113 67.9447 19.6672 66.1937 21.8256 66.1937H25.4108C27.6749 64.4091 29.0171 61.6612 29.0171 58.7731V58.5569H4.22256C1.89429 58.5569 0 56.6681 0 54.3464C0 52.2953 0 15.6063 0 14.2873C-0.000144958 11.9655 1.89415 10.0768 4.22256 10.0768ZM21.8256 68.3593C20.8649 68.3593 20.0832 69.1388 20.0832 70.0969C20.0832 71.0548 20.8649 71.8343 21.8256 71.8343H52.1743C53.135 71.8343 53.9167 71.0548 53.9167 70.0969C53.9167 69.1388 53.135 68.3593 52.1743 68.3593H21.8256ZM28.499 66.1937H45.5008C43.7863 64.1282 42.8111 61.5018 42.8111 58.7731V58.5569H31.1891V58.7731C31.1889 61.5018 30.2137 64.1282 28.499 66.1937ZM2.17171 54.3464C2.17171 55.4739 3.09169 56.3913 4.2224 56.3913H69.7773C70.908 56.3913 71.828 55.4739 71.828 54.3464V50.5584H2.17171V54.3464Z" fill="#173C5C"/>
</svg>
