<svg width="71" height="74" viewBox="0 0 71 74" fill="none" xmlns="http://www.w3.org/2000/svg">
<path d="M25.2459 34.6617C26.2054 35.6452 27.485 36.1874 28.8494 36.1882H28.8527C30.2178 36.1882 31.4993 35.6465 32.4615 34.6627C32.8823 34.2324 32.871 33.5462 32.4362 33.1299C32.0014 32.7136 31.3076 32.7248 30.887 33.155C30.3412 33.7128 29.6188 34.0201 28.8526 34.0201C28.852 34.0201 28.8513 34.0201 28.8507 34.0201C28.0858 34.0197 27.3654 33.7127 26.8222 33.156C26.4021 32.7251 25.7084 32.713 25.2731 33.1288C24.8379 33.5448 24.8256 34.231 25.2459 34.6617Z" fill="#173C5C"/>
<path d="M21.9263 26.2545C22.3274 25.8689 22.9828 25.8698 23.3873 26.2564C23.5999 26.4598 23.8744 26.5609 24.1485 26.5609C24.4352 26.5609 24.7214 26.4502 24.9365 26.2301C25.3569 25.7995 25.3451 25.1133 24.9099 24.6974C23.6639 23.506 21.6407 23.5068 20.3998 24.6992C19.9657 25.1163 19.9555 25.8026 20.3771 26.2321C20.7989 26.6615 21.4924 26.6715 21.9263 26.2545Z" fill="#173C5C"/>
<path d="M33.7875 26.5608C34.0615 26.5608 34.3359 26.4597 34.5486 26.2563C34.953 25.8698 35.6083 25.8688 36.0096 26.2544C36.4435 26.6715 37.1373 26.6614 37.5588 26.232C37.9803 25.8025 37.97 25.1162 37.536 24.6991C36.2951 23.5067 34.272 23.5062 33.026 24.6972C32.5908 25.1133 32.579 25.7996 32.9994 26.23C33.2143 26.4503 33.5007 26.5608 33.7875 26.5608Z" fill="#173C5C"/>
<path d="M69.8618 53.4579C69.6317 52.9042 68.9917 52.6399 68.4319 52.8677C67.8722 53.0954 67.6051 53.7288 67.8352 54.2825C69.8145 59.0449 68.7183 64.4732 65.0423 68.1121C62.622 70.5102 59.4043 71.8312 55.982 71.8319C55.9812 71.8319 55.9803 71.8319 55.9795 71.8319C52.5561 71.8319 49.3365 70.5109 46.9137 68.1121C41.9147 63.1587 41.9147 55.0991 46.9135 50.146C48.2996 48.7737 49.9469 47.7559 51.7432 47.1347C51.7621 47.1288 51.7808 47.1231 51.7993 47.1163C53.127 46.664 54.5346 46.4261 55.9795 46.4261H55.982C59.4043 46.4266 62.622 47.7476 65.0423 50.1459C65.4697 50.5695 66.1635 50.5699 66.5916 50.1469C67.0196 49.7238 67.0202 49.0374 66.5926 48.6138C63.7586 45.8057 59.9905 44.2588 55.9825 44.2581C55.9814 44.2581 55.9804 44.2581 55.9794 44.2581C54.4736 44.2581 53.0016 44.4763 51.6002 44.8976C49.3618 43.3464 46.7513 42.2076 44.1661 41.6549C43.7316 41.3322 42.9294 40.7149 42.0193 40.0144C41.2732 39.4401 40.4606 38.8149 39.694 38.231C42.1204 35.8929 43.9987 32.981 44.8577 30.017C45.8426 29.8168 46.8392 29.2803 47.6455 28.4928C48.6429 27.5185 49.215 26.2939 49.215 25.1329V23.6128C49.215 22.1701 48.0299 20.9965 46.5729 20.9965H45.357V20.9702V18.7619V13.7672C45.357 10.8426 44.2093 8.06083 42.0384 5.7226C40.1482 3.68673 37.4803 2.01798 34.5262 1.0236C31.7599 0.0922427 28.8337 -0.217343 26.2875 0.151645C23.6088 0.539567 21.4231 1.64089 19.9338 3.3468C16.9072 3.77735 12.3971 6.0543 12.5512 15.8219C12.5527 15.9187 12.5541 15.998 12.5541 16.0577V18.5406V20.9965H11.3423C9.88317 20.9965 8.69604 22.1701 8.69604 23.6128V25.1329C8.69604 26.2937 9.26813 27.5185 10.2653 28.4928C11.0716 29.2805 12.0682 29.817 13.0532 30.0171C13.9253 33.0263 15.8478 35.9821 18.3279 38.3375C17.5946 38.8967 16.8269 39.4878 16.1211 40.0311C15.2212 40.7242 14.4278 41.3351 13.9969 41.6549C11.2535 42.2414 8.47953 43.4885 6.15888 45.1853C5.67226 45.5411 5.56926 46.2198 5.92894 46.7014C6.14384 46.989 6.47517 47.1412 6.81089 47.1412C7.03703 47.1412 7.26537 47.0721 7.46113 46.9289C9.46535 45.4635 11.843 44.3724 14.2051 43.8285L20.6614 48.5858C20.6857 48.6037 20.7107 48.6206 20.7365 48.6365C20.9784 48.7857 21.1368 48.9079 21.2641 49.0064C21.6563 49.3095 21.993 49.4285 22.2912 49.4285C22.7897 49.4285 23.1803 49.0953 23.542 48.73C23.7309 48.5392 24.0016 48.2668 24.4136 47.9006L25.0298 50.2983L21.2868 62.654L21.2886 62.6477C21.1538 63.008 21.1789 63.3492 21.36 63.6806L23.4154 67.536H11.8961V60.479C11.8961 59.8803 11.4056 59.395 10.8006 59.395C10.1955 59.395 9.70508 59.8803 9.70508 60.479V67.536H2.84467C2.72386 67.536 2.60815 67.538 2.49771 67.5399C2.40407 67.5416 2.29347 67.5437 2.19559 67.5426C2.19282 67.4971 2.19107 67.4428 2.19107 67.3786V55.8574C2.19107 53.8662 2.86367 51.9396 4.19031 50.1314C4.54575 49.6468 4.43691 48.9689 3.94722 48.6173C3.45723 48.2655 2.77221 48.3732 2.41707 48.8578C0.81314 51.044 0 53.399 0 55.8573V67.3785C0 67.8995 0.0625266 68.6528 0.603354 69.1786C1.09057 69.6522 1.6926 69.7108 2.25739 69.7108C2.35162 69.7108 2.44497 69.7092 2.53642 69.7076C2.63445 69.7058 2.7373 69.7041 2.84467 69.7041H25.2297C25.2307 69.7041 25.2319 69.7042 25.2329 69.7042C25.2341 69.7042 25.2352 69.7041 25.2366 69.7041H32.6788C32.68 69.7041 32.6812 69.7042 32.6825 69.7042C32.6835 69.7042 32.6845 69.7041 32.6857 69.7041H45.4258C48.2557 72.4749 51.9995 74.0001 55.9798 74H55.9829C59.9909 73.9993 63.759 72.4524 66.5927 69.6446C70.8951 65.3855 72.1784 59.0319 69.8618 53.4579ZM43.9578 43.8284C45.7236 44.235 47.4971 44.9478 49.1194 45.8946C47.7506 46.5927 46.4841 47.5044 45.3636 48.6138C40.1772 53.7528 39.5883 61.7475 43.5957 67.5361H34.4985L36.5456 63.6907C36.7312 63.3508 36.7571 63.0112 36.6212 62.6446L32.8812 50.2988L33.5447 47.7212C34.0752 48.1798 34.4024 48.5092 34.621 48.7299C34.9827 49.0951 35.3733 49.4284 35.8718 49.4284C36.17 49.4284 36.5067 49.3092 36.899 49.0062C37.0262 48.9079 37.1846 48.7855 37.4265 48.6364C37.4522 48.6205 37.4773 48.6036 37.5016 48.5856L43.9578 43.8284ZM27.0183 49.2381L26.2481 46.2408L29.0817 43.6587L31.7123 46.0559L30.8932 49.2381H27.0183ZM40.6741 41.7256C41.1198 42.0687 41.5281 42.3829 41.8827 42.6544L36.2281 46.8209C36.1317 46.8812 36.0446 46.9386 35.9662 46.992C35.7215 46.7497 35.3863 46.4298 34.9057 46.0182L33.6866 44.9072C33.6813 44.9023 33.6761 44.8976 33.6708 44.8929L31.5301 42.9423C32.0568 42.8122 32.6011 42.6424 33.1739 42.4302C34.8725 41.8029 36.5143 40.8558 38.0145 39.688C38.8723 40.339 39.8174 41.0661 40.6741 41.7256ZM46.5731 23.1643C46.8217 23.1643 47.0241 23.3654 47.0241 23.6127V25.1327C47.0241 25.7092 46.681 26.3885 46.1063 26.9498C45.865 27.1855 45.5984 27.3858 45.3237 27.5436C45.3452 27.2726 45.357 27.0053 45.357 26.7428V23.1642H46.5731V23.1643ZM20.598 5.45218C20.9031 5.42544 21.183 5.27369 21.3697 5.03348C22.9621 2.9859 25.6284 2.16814 28.4437 2.16814C30.2567 2.16814 32.1317 2.5075 33.8207 3.07595C38.1318 4.52718 43.1661 8.19799 43.1661 13.7672V18.7616V19.8859H41.4497C39.0513 19.8859 37.5194 18.4626 35.7454 16.8145C33.624 14.8434 31.2195 12.6094 26.9604 12.6094H22.1223C18.5371 12.6094 17.9579 15.4066 17.5351 17.449C17.0796 19.6493 16.7335 20.8565 14.7452 20.9848V18.5403V16.0574C14.7452 15.9891 14.7439 15.8985 14.7421 15.7878C14.6714 11.3128 15.6299 5.88722 20.598 5.45218ZM10.8871 25.1327V23.6127C10.8871 23.3697 11.0956 23.1643 11.3422 23.1643H12.554V26.7429C12.554 27.0058 12.566 27.2738 12.5875 27.5454C12.3129 27.387 12.0463 27.1858 11.8048 26.9499C11.2303 26.3884 10.8871 25.7092 10.8871 25.1327ZM14.9934 28.7909C14.9927 28.7875 14.9917 28.7841 14.9908 28.7807C14.8277 28.0706 14.7451 27.3848 14.7451 26.7428V23.1554C18.6274 22.973 19.2593 19.9232 19.6815 17.8842C20.158 15.5828 20.472 14.7775 22.1222 14.7775H26.9603C30.3519 14.7775 32.2432 16.5347 34.2455 18.395C36.1815 20.1939 38.1837 22.054 41.4495 22.054H43.1659V26.7429C43.1659 27.3849 43.0834 28.0706 42.9204 28.7807C42.9201 28.7817 42.9198 28.7827 42.9196 28.7837C42.9192 28.7859 42.9185 28.788 42.918 28.7902C41.8066 33.6067 37.29 38.5962 32.4068 40.3997C31.1151 40.8782 30.0193 41.1011 28.9578 41.1011C27.8925 41.1011 26.7969 40.8784 25.5074 40.3991C20.6232 38.5968 16.1052 33.6076 14.9934 28.7909ZM23.2578 46.0183C22.7771 46.43 22.4418 46.7498 22.1971 46.9922C22.1187 46.9386 22.0318 46.8813 21.9353 46.8211L16.2806 42.6544C16.6292 42.3871 17.0301 42.0786 17.467 41.7419C18.2863 41.1111 19.1899 40.4154 20.0218 39.7834C21.4889 40.9073 23.0871 41.8198 24.7394 42.4296C25.3848 42.6694 25.9939 42.8525 26.5834 42.9879L24.2935 45.0745C24.2862 45.081 24.2789 45.0876 24.2719 45.0943L23.2578 46.0183ZM23.4713 62.9941L26.9817 51.406H30.9294L34.44 62.9942L32.0223 67.5359H25.8928L23.4713 62.9941Z" fill="#173C5C"/>
<path d="M55.9801 66.418C56.5852 66.418 57.0756 65.9327 57.0756 65.334V55.5434L59.4475 57.8934C59.6616 58.1055 59.942 58.2114 60.2227 58.2114C60.5029 58.2114 60.7831 58.1058 60.9968 57.8944C61.4249 57.4714 61.4253 56.785 60.9978 56.3614L56.7552 52.1577C56.7545 52.157 56.7536 52.1563 56.7529 52.1555C56.7349 52.1379 56.7193 52.124 56.7047 52.1122C56.5114 51.9431 56.2582 51.8396 55.9799 51.8396C55.6962 51.8396 55.4385 51.9473 55.2439 52.1223C55.2318 52.1321 55.2188 52.1435 55.2051 52.1573L50.9585 56.361C50.5309 56.7844 50.531 57.4707 50.9589 57.894C51.1728 58.1055 51.453 58.2113 51.7334 58.2113C52.0139 58.2113 52.2942 58.1053 52.5082 57.8936L54.8844 55.5415V65.3339C54.8845 65.9327 55.375 66.418 55.9801 66.418Z" fill="#173C5C"/>
</svg>
