<svg width="74" height="74" viewBox="0 0 74 74" fill="none" xmlns="http://www.w3.org/2000/svg">
<path d="M50.4295 16.3859V20.0307C50.4295 20.6982 50.8281 21.2944 51.4448 21.5498C52.0705 21.8088 52.7722 21.6584 53.2376 21.1933L57.8158 16.617H69.3748C71.726 16.617 73.6387 14.705 73.6387 12.355V4.26208C73.6387 1.912 71.726 0 69.3748 0H51.8148C49.4636 0 47.5509 1.912 47.5509 4.26208V12.3548C47.5508 14.1824 48.7343 15.8023 50.4295 16.3859ZM49.7188 4.26208C49.7188 3.10684 50.6591 2.16696 51.8148 2.16696H69.3749C70.5306 2.16696 71.4709 3.10684 71.4709 4.26208V12.3548C71.4709 13.5101 70.5306 14.4499 69.3749 14.4499H57.559C57.146 14.4499 56.7576 14.6107 56.4647 14.9028L52.5975 18.7684V15.9151C52.5975 15.1885 52.0851 14.5531 51.3789 14.4043C50.417 14.2015 49.7189 13.3395 49.7189 12.355V4.26208H49.7188Z" fill="#173C5C"/>
<path d="M71.1216 63.5964H69.0599V29.5156C69.0599 27.2696 67.232 25.4424 64.985 25.4424H44.7037C44.1049 25.4424 43.6197 25.9275 43.6197 26.526C43.6197 27.1245 44.1049 27.6095 44.7037 27.6095H64.9849C66.0363 27.6095 66.8919 28.4646 66.8919 29.5157V63.5965H63.2786V34.2895C63.2786 32.5977 61.9017 31.2213 60.2092 31.2213H38.0658C38.3839 30.3942 38.6035 29.5175 38.7042 28.6036C39.8557 28.3499 40.72 27.3218 40.72 26.0954C40.72 25.1044 40.72 17.6207 40.72 16.7288C40.72 14.5877 38.9866 12.8436 36.8488 12.8254C36.7795 10.7333 35.0552 9.05286 32.9457 9.05286H23.2238C19.0459 9.05286 15.6469 12.4504 15.6469 16.6264V26.0954C15.6469 27.3218 16.5112 28.3499 17.6629 28.6036C17.7635 29.5176 17.9831 30.3942 18.3013 31.2213H13.7908C12.0983 31.2213 10.7214 32.5977 10.7214 34.2895V43.1404C9.30115 43.6733 8.06733 44.5564 7.10809 45.6713V29.5156C7.10809 28.4646 7.96351 27.6094 9.01514 27.6094H11.7182C12.3169 27.6094 12.8022 27.1243 12.8022 26.5258C12.8022 25.9273 12.3169 25.4423 11.7182 25.4423H9.01514C6.76815 25.4423 4.9402 27.2694 4.9402 29.5154V51.4697V63.5962H2.87843C1.29122 63.5962 0 64.887 0 66.4734C0 70.6237 3.37771 74 7.52958 74H66.4704C70.6223 74 74 70.6237 74 66.4737C74 64.8872 72.7086 63.5964 71.1216 63.5964ZM60.2092 33.3883C60.7063 33.3883 61.1107 33.7926 61.1107 34.2895V63.5965H51.4309V59.6265C51.4309 59.028 50.9457 58.543 50.3469 58.543C49.7481 58.543 49.2629 59.028 49.2629 59.6265V63.5965H44.0586V60.1582C44.0586 59.5597 43.5734 59.0747 42.9746 59.0747C42.3759 59.0747 41.8906 59.5597 41.8906 60.1582V63.5965H33.0733L30.7362 50.4238L31.633 48.8176C31.806 48.8555 31.9817 48.8767 32.1578 48.8767C32.7768 48.8767 33.3954 48.6433 33.8781 48.1798L37.9021 44.2628C38.1904 43.9823 38.3911 43.6409 38.5057 43.2761L44.4281 45.014C47.2748 45.8494 49.263 48.5041 49.263 51.4696V54.5611C49.263 55.1596 49.7483 55.6447 50.347 55.6447C50.9458 55.6447 51.431 55.1596 51.431 54.5611V51.4696C51.431 47.5489 48.8025 44.0392 45.0388 42.9346L37.8853 40.8354C37.6884 40.6474 37.4604 40.4929 37.2099 40.3814L35.7293 39.7221C35.2931 39.5277 34.8257 39.4486 34.3669 39.4783V36.0143C35.3641 35.2945 36.2321 34.4059 36.928 33.3884H60.2092V33.3883ZM20.0881 42.3475L21.5404 41.6957C21.779 41.5887 22.0572 41.6194 22.2667 41.7759L26.545 44.9712L24.4436 46.7256C24.3245 46.8255 24.1511 46.8197 24.0387 46.7134L20.0242 42.6945V42.6944C19.9162 42.5866 19.9557 42.4069 20.0881 42.3475ZM32.1988 37.2216V40.5305L28.281 43.5629L24.1684 40.4913V37.2217C26.7075 38.2672 29.588 38.2967 32.1988 37.2216ZM36.3275 42.361C36.4608 42.4199 36.5007 42.602 36.3897 42.7103L32.371 46.6219C32.2572 46.7313 32.0812 46.7363 31.9613 46.6339C31.9612 46.6339 31.9612 46.6339 31.9612 46.6339L30.0093 44.9655L34.1127 41.7896C34.3226 41.6269 34.6039 41.5932 34.8467 41.7013L36.3275 42.361ZM27.3925 49.1494L26.5843 47.7621L28.2843 46.3426L29.806 47.6433L28.9652 49.1494H27.3925ZM27.678 51.3164H28.6928L30.8715 63.5964H25.5004L27.678 51.3164ZM46.6571 65.7634C46.2195 66.9026 45.1163 67.7148 43.8245 67.7148H30.1753C28.8835 67.7148 27.7804 66.9026 27.3427 65.7634H46.6571ZM17.815 16.6264C17.815 13.6452 20.2414 11.2198 23.224 11.2198H32.9459C33.9038 11.2198 34.683 11.9987 34.683 12.9562C34.683 14.0788 35.5969 14.9922 36.7199 14.9922H36.8149C37.7729 14.9922 38.5521 15.7711 38.5521 16.7286V21.803H37.6867C37.202 21.803 36.8077 21.4088 36.8077 20.9244V19.8505C36.8077 17.6983 34.7057 16.1797 32.6609 16.8549C29.7746 17.8084 26.5957 17.8087 23.7095 16.8557C23.7062 16.8545 23.7017 16.8531 23.6974 16.8518C21.658 16.1848 19.5595 17.6981 19.5595 19.8502V20.9245C19.5595 21.409 19.1652 21.8031 18.6804 21.8031H17.815V16.6264ZM17.815 26.0954V23.9701H18.6804C20.3606 23.9701 21.7276 22.6038 21.7276 20.9244V19.8501C21.7276 19.1757 22.387 18.7005 23.0257 18.9121C23.0289 18.9132 23.0331 18.9145 23.0371 18.9157C26.3601 20.0111 30.0194 20.0101 33.3412 18.9125C33.9797 18.701 34.6396 19.1752 34.6396 19.8505V20.9244C34.6396 22.6038 36.0065 23.9701 37.6867 23.9701H38.5521V26.0954C38.5521 26.3167 38.3721 26.4965 38.151 26.4965C37.3245 26.4965 36.6358 27.1447 36.5833 27.9726C36.3046 32.3896 32.6152 35.8497 28.1837 35.8497C23.7522 35.8497 20.0627 32.3896 19.7839 27.9727C19.7319 27.1448 19.0433 26.4965 18.2164 26.4965C17.995 26.4965 17.815 26.3165 17.815 26.0954ZM13.7908 33.3883H19.4394C20.1353 34.4058 21.0033 35.2944 22.0003 36.0141V39.4715C21.5451 39.4453 21.0827 39.5258 20.6524 39.7189L19.2001 40.3706C18.9515 40.4822 18.7251 40.6363 18.5293 40.8236L12.8892 42.4783V34.2896C12.8894 33.7926 13.2937 33.3883 13.7908 33.3883ZM7.10809 51.4699C7.10809 48.5041 9.0964 45.8495 11.9435 45.0141L12.1199 44.9624C12.1239 44.9612 12.1278 44.9601 12.1319 44.9589L17.9051 43.2651C18.0176 43.6168 18.212 43.9473 18.4901 44.2258V44.2257L22.5121 48.252C22.5157 48.2557 22.5194 48.2593 22.523 48.2627C23.0029 48.7297 23.6245 48.9659 24.2481 48.9659C24.415 48.9659 24.5817 48.9468 24.7461 48.913L25.6327 50.435L23.2989 63.5965H14.4766V60.1582C14.4766 59.5597 13.9913 59.0747 13.3926 59.0747C12.7938 59.0747 12.3086 59.5597 12.3086 60.1582V63.5965H7.10809V51.4699ZM66.4704 71.833H7.52958C4.57322 71.833 2.1679 69.4289 2.1679 66.4737C2.1679 66.082 2.48658 65.7634 2.87843 65.7634H25.0856C25.5858 68.1134 27.6775 69.8817 30.1753 69.8817H43.8245C46.3224 69.8817 48.4141 68.1134 48.9143 65.7634H71.1214C71.5133 65.7634 71.832 66.082 71.832 66.4737C71.8321 69.4288 69.4268 71.833 66.4704 71.833Z" fill="#173C5C"/>
</svg>
