<svg width="77" height="74" viewBox="0 0 77 74" fill="none" xmlns="http://www.w3.org/2000/svg">
<path d="M51.7069 45.861L45.8565 43.8946C43.8539 42.3865 42.0381 42.4926 41.2858 42.3137L39.6339 40.7858C38.8393 40.0509 37.8213 39.7568 36.8462 39.8927V35.9387C39.8881 33.6536 41.9927 30.0357 42.3705 25.8639C43.8068 25.6214 44.9083 24.2974 44.9083 22.7053C44.9083 20.0812 44.9083 12.5071 44.9083 10.082C44.9083 7.32603 42.7964 5.08401 40.2005 5.08401H40.0799C40.0352 5.08401 39.9986 5.04538 39.9986 4.9978C39.9986 2.24202 37.8867 0 35.2908 0H22.954C17.789 0 13.5867 4.46088 13.5867 9.94403V22.7053C13.5867 24.2974 14.6882 25.6216 16.1246 25.8639C16.5022 30.0357 18.6069 33.6536 21.6489 35.9387V39.892C20.6753 39.7578 19.6592 40.0523 18.8659 40.7859L17.1934 42.3328C16.8723 42.4184 15.725 42.5065 14.3594 43.3179L6.79284 45.8612C2.72974 47.2267 0 51.1839 0 55.7081V69.4489C0 71.9583 1.9232 74 4.28704 74H54.2127C56.5765 74 58.4997 71.9583 58.4997 69.4489V55.7081C58.4997 51.1839 55.77 47.2267 51.7069 45.861ZM38.1521 42.5918L39.2664 43.6222C34.4533 50.2794 34.5417 50.8743 33.6574 50.4843L30.9487 48.0401L36.4135 42.6379C36.4296 42.6239 36.4457 42.6097 36.4615 42.5948C36.4657 42.591 36.4693 42.5865 36.4733 42.5825C36.957 42.1449 37.6683 42.1443 38.1521 42.5918ZM39.4117 47.4082C38.6651 51.9481 36.5237 57.2263 34.2447 61.9453L32.3223 54.2355L33.3995 52.8859C34.5865 53.1245 35.7445 52.5998 36.4221 51.6408L39.4117 47.4082ZM29.2498 49.6619L31.4231 51.6574L30.5586 52.7405H27.9355L27.0581 51.6745L29.2498 49.6619ZM29.2498 46.4471L23.9046 41.1631V37.3042C25.5422 38.0785 27.3512 38.509 29.2474 38.509C31.1435 38.509 32.9525 38.0785 34.5901 37.3044V41.1677L29.2498 46.4471ZM15.8426 9.94419C15.8426 5.78154 19.0327 2.39497 22.954 2.39497H35.2908C36.6428 2.39497 37.7428 3.56267 37.7428 4.99812C37.7428 6.36603 38.7912 7.47898 40.0799 7.47898H40.2005C41.5525 7.47898 42.6524 8.64669 42.6524 10.0821V17.1837H41.3067C40.5551 17.1837 39.9436 16.5345 39.9436 15.7366V14.2893C39.9436 11.5811 37.4518 9.64404 35.0067 10.5019C31.2942 11.8043 27.2051 11.8046 23.5059 10.5075C23.4999 10.5052 23.4939 10.5031 23.4879 10.5011C21.0536 9.64724 18.5516 11.5677 18.5516 14.2889V15.7366C18.5516 16.5345 17.9401 17.1837 17.1884 17.1837H15.8426V9.94419ZM18.3413 25.2521C18.2833 24.2746 17.5181 23.5089 16.5994 23.5089C16.182 23.5089 15.8426 23.1484 15.8426 22.7055V19.5785H17.1884C19.184 19.5785 20.8074 17.855 20.8074 15.7366V14.2889C20.8074 13.1807 21.8318 12.4429 22.7669 12.7702C22.7729 12.7725 22.7789 12.7745 22.7849 12.7766C26.9541 14.2387 31.5459 14.2382 35.7148 12.7757C36.6896 12.4342 37.6877 13.2037 37.6877 14.2892V15.7364C37.6877 17.855 39.3112 19.5783 41.3067 19.5783H42.6524V22.7053C42.6524 23.1482 42.313 23.5087 41.8957 23.5087C40.9768 23.5087 40.2116 24.2744 40.1537 25.252C39.7919 31.3429 35.0013 36.1142 29.2475 36.1142C23.4937 36.1142 18.7033 31.3431 18.3413 25.2521ZM20.3477 42.5916C20.8303 42.1452 21.5397 42.1451 22.0232 42.5797C22.0283 42.5844 22.0327 42.5899 22.0378 42.5947C22.0518 42.6074 22.0667 42.6205 22.0844 42.636L27.551 48.04L24.8143 50.4956C24.4914 50.623 24.1081 50.5232 23.8826 50.2044L19.2335 43.6224L20.3477 42.5916ZM22.0778 51.641C22.7475 52.5888 23.8902 53.1146 25.0653 52.8935L26.1983 54.2698L24.6835 61.5039C22.3117 56.9648 20.0376 51.8953 19.1756 47.5323L22.0778 51.641ZM27.0139 71.6052C24.5982 69.6866 22.4675 67.8311 20.6781 66.0869C20.2193 65.6396 19.5058 65.6717 19.0844 66.1591C18.6632 66.6462 18.6936 67.4036 19.1524 67.8509C20.3909 69.0582 21.7853 70.3147 23.3169 71.6054H11.6061V64.9566C11.6061 64.2951 11.1011 63.7592 10.4782 63.7592C9.85525 63.7592 9.35024 64.2951 9.35024 64.9566V71.6054H4.28704C3.16708 71.6054 2.25586 70.638 2.25586 69.4491V55.7083C2.25586 52.233 4.35276 49.1933 7.47366 48.1444L11.288 46.8624C10.888 47.7767 10.6844 48.6626 10.6844 49.5011C10.6844 51.4471 12.9085 53.2763 13.966 54.0797C12.8943 55.4238 12.4351 56.9475 12.6704 58.402C12.9192 59.9399 13.8044 61.673 15.3761 63.7006C15.7719 64.2115 16.4827 64.2847 16.9638 63.8642C17.4447 63.444 17.5137 62.6895 17.1179 62.1788C15.5015 60.0937 15.0162 58.7535 14.8936 57.9966C14.7284 56.975 15.3147 56.0476 15.8358 55.4493C16.2187 55.0098 16.4033 54.4094 16.3424 53.802C16.282 53.2005 15.9868 52.6612 15.5325 52.3227C13.6439 50.9149 12.9402 49.8449 12.9402 49.5011C12.9402 48.9248 13.1238 48.2667 13.4861 47.5452C14.1567 46.2097 15.3006 45.3032 16.5733 44.917C16.9564 53.1462 23.4085 64.1936 27.3586 70.9575C27.489 71.1807 27.6147 71.3962 27.7367 71.6054H27.0139V71.6052ZM29.2759 69.6956C28.4243 68.2373 27.4079 66.4967 26.3484 64.5889L28.328 55.1355H30.2132L32.687 65.0565C31.6312 67.0958 30.608 68.9503 29.7411 70.4927C29.5919 70.2368 29.4375 69.9723 29.2759 69.6956ZM31.7423 71.6052C35.7396 64.484 41.6575 53.1122 41.936 44.8287C41.9773 44.8459 44.9931 45.0402 46.2138 47.9787C46.4438 48.5322 46.5603 49.0442 46.5603 49.5008C46.5603 49.8444 45.8565 50.9144 43.9682 52.3222C43.5139 52.6608 43.2187 53.2001 43.1582 53.8019C43.0971 54.4092 43.2818 55.0095 43.6647 55.449C44.1858 56.0472 44.7722 56.9748 44.6071 57.9963C44.136 60.9069 39.723 65.8577 32.486 71.605H31.7423V71.6052ZM56.2438 69.4491C56.2438 70.638 55.3326 71.6054 54.2127 71.6054H49.1447V64.9566C49.1447 64.2951 48.6396 63.7592 48.0167 63.7592C47.3938 63.7592 46.8888 64.2951 46.8888 64.9566V71.6054H36.1817C39.5726 68.7463 46.0995 62.9202 46.8304 58.402C47.0658 56.9475 46.6067 55.424 45.5348 54.0797C46.5922 53.2765 48.8165 51.4473 48.8165 49.5011C48.8165 48.7835 48.666 48.0278 48.3719 47.2522L51.0262 48.1444C54.1471 49.1933 56.244 52.233 56.244 55.7083V69.4491H56.2438Z" fill="#173C5C"/>
<path d="M75.7715 17.9641L67.763 9.46254C66.9709 8.62148 65.9176 8.15833 64.7972 8.15833H49.0273C48.4044 8.15833 47.8994 8.69428 47.8994 9.35573C47.8994 10.0172 48.4044 10.5531 49.0273 10.5531H64.4507V18.2652C64.4507 20.0382 65.8094 21.4808 67.4797 21.4808H74.7441V60.7467C74.7441 61.8813 73.8746 62.8046 72.8056 62.8046H62.6449C62.022 62.8046 61.517 63.3406 61.517 64.002C61.517 64.6635 62.022 65.1994 62.6449 65.1994H72.8056C75.1183 65.1994 77 63.2018 77 60.7467V21.1128C77 19.9235 76.5637 18.8053 75.7715 17.9641ZM67.4795 19.0858C67.0533 19.0858 66.7064 18.7177 66.7064 18.265V11.7277L73.6377 19.0858H67.4795Z" fill="#173C5C"/>
<rect x="47.8648" y="28.7204" width="2.20895" height="19.7703" rx="1.10448" transform="rotate(-90 47.8648 28.7204)" fill="#173C5C"/>
<rect x="47.8648" y="37.5575" width="2.20895" height="19.7703" rx="1.10448" transform="rotate(-90 47.8648 37.5575)" fill="#173C5C"/>
<rect x="47.8648" y="46.3945" width="2.20895" height="19.7703" rx="1.10448" transform="rotate(-90 47.8648 46.3945)" fill="#173C5C"/>
</svg>
