<svg width="292" height="259" viewBox="0 0 292 259" fill="none" xmlns="http://www.w3.org/2000/svg">
<path d="M5.53467 163.569L0.91801 182.592C0.866553 182.804 0.874579 183.026 0.941153 183.234L21.8832 248.606C21.9661 248.865 22.1355 249.088 22.3629 249.237C22.5903 249.386 22.862 249.453 23.1328 249.427C23.4036 249.4 23.657 249.281 23.8509 249.09C24.0447 248.9 24.1672 248.648 24.1979 248.378L27.0951 222.912C27.1143 222.742 27.0969 222.571 27.0441 222.409L7.82157 163.48C7.74137 163.234 7.5831 163.021 7.37071 162.874C7.15832 162.726 6.90344 162.651 6.64476 162.661C6.38608 162.671 6.1377 162.765 5.93736 162.929C5.73702 163.093 5.59564 163.317 5.53467 163.569V163.569Z" fill="#2F2E41"/>
<path d="M7.23285 165.175L2.96934 181.496L21.4407 241.105L25.7029 222.655L7.23285 165.175Z" fill="#F2F2F2"/>
<path d="M100.295 253.878C99.5846 256.007 26.4131 253.169 25.7027 252.459C25.0834 251.57 24.5595 250.619 24.1399 249.62C23.4721 248.201 22.8612 246.782 22.8612 246.782L25.7027 223.804L98.1638 221.235C98.1638 221.235 99.9754 240.708 100.345 249.62C100.471 251.038 100.454 252.464 100.295 253.878V253.878Z" fill="#2F2E41"/>
<path opacity="0.1" d="M34.9378 226.912L33.5179 246.782H65.4861V226.912H34.9378Z" fill="black"/>
<path opacity="0.1" d="M76.1414 233.299L75.9505 233.262L76.8513 241.815H94.6115V233.299H76.1414Z" fill="black"/>
<path opacity="0.1" d="M100.295 253.878C99.5846 256.007 26.4131 253.169 25.7028 252.459C25.0834 251.57 24.5596 250.619 24.1399 249.62H100.345C100.471 251.038 100.454 252.464 100.295 253.878V253.878Z" fill="black"/>
<path d="M213.25 179.367H193.359L144.341 160.207C144.341 160.207 109.531 146.015 112.373 172.981C115.215 199.947 120.187 236.138 120.187 236.138C120.187 236.138 135.816 229.041 144.341 231.17C152.866 233.299 147.183 187.883 147.183 187.883C147.183 187.883 216.802 221.235 223.196 216.978C229.589 212.72 231.01 182.916 231.01 182.916L213.25 179.367Z" fill="#2F2E41"/>
<path opacity="0.1" d="M213.25 179.367H193.359L144.341 160.207C144.341 160.207 109.531 146.015 112.373 172.981C115.215 199.947 120.187 236.138 120.187 236.138C120.187 236.138 135.816 229.041 144.341 231.17C152.866 233.299 147.183 187.883 147.183 187.883C147.183 187.883 216.802 221.235 223.196 216.978C229.589 212.72 231.01 182.916 231.01 182.916L213.25 179.367Z" fill="black"/>
<path d="M181.91 117.143L157.838 151.692L101.716 198.527C101.716 198.527 49.8565 210.591 56.9605 219.106C64.0645 227.622 107.399 210.591 107.399 210.591C107.399 210.591 172.046 163.755 174.177 160.207C176.308 156.659 199.751 123.306 199.751 123.306L181.91 117.143Z" fill="#FFB8B8"/>
<path opacity="0.1" d="M181.91 117.143L157.838 151.692L101.716 198.527C101.716 198.527 49.8565 210.591 56.9605 219.106C64.0645 227.622 107.399 210.591 107.399 210.591C107.399 210.591 172.046 163.755 174.177 160.207C176.308 156.659 199.751 123.306 199.751 123.306L181.91 117.143Z" fill="black"/>
<path d="M185.544 79.3093C167.888 79.3093 153.576 65.0123 153.576 47.376C153.576 29.7397 167.888 15.4427 185.544 15.4427C203.199 15.4427 217.512 29.7397 217.512 47.376C217.512 65.0123 203.199 79.3093 185.544 79.3093Z" fill="#FFB8B8"/>
<path d="M187.674 75.7618C187.674 75.7618 198.33 94.2121 200.461 104.147C202.592 114.082 232.429 84.2773 232.429 84.2773L236.336 73.9877C236.336 73.9877 208.275 60.8595 210.406 50.2151C212.538 39.5707 187.674 75.7618 187.674 75.7618Z" fill="#FFB8B8"/>
<path d="M196.199 89.2444L180.57 119.758C180.57 119.758 184.122 134.661 189.805 136.08C195.489 137.499 219.642 117.63 219.642 117.63L196.199 89.2444Z" fill="#C1E8F2"/>
<path d="M181.992 131.113L152.865 169.432L83.246 221.235C83.246 221.235 32.8074 231.88 44.1739 239.686C55.5403 247.492 88.2187 232.589 88.2187 232.589C88.2187 232.589 158.549 194.979 173.467 179.367C188.385 163.755 216.091 137.499 216.091 137.499L181.992 131.113Z" fill="#FFB8B8"/>
<path d="M221.062 190.721L212.538 204.204L161.661 188.216C156.149 186.436 150.317 185.873 144.566 186.566C138.816 187.259 133.284 189.192 128.355 192.229C119.475 197.818 113.792 206.688 126.579 219.816C152.153 246.073 169.203 231.88 169.203 231.88C169.203 231.88 255.162 272.329 269.37 252.459C283.578 232.589 284.288 222.655 284.288 222.655C284.288 222.655 229.587 188.593 221.062 190.721Z" fill="#2F2E41"/>
<path d="M114.17 234.212C114.17 234.212 91.4371 249.114 118.432 256.21C145.428 263.306 165.319 253.372 165.319 253.372C165.319 253.372 188.762 253.372 188.762 241.308C188.762 229.244 180.948 227.825 180.948 227.825L156.794 231.373C156.794 231.373 127.668 223.567 114.17 234.212Z" fill="#CCCCCC"/>
<path d="M159.317 39.3438C157.217 40.4731 154.959 41.2811 152.618 41.7408C151.442 41.951 150.23 41.8126 149.132 41.3427C148.034 40.8728 147.098 40.0919 146.439 39.0964C145.917 37.9165 145.676 36.6311 145.738 35.3422C145.652 31.4455 145.934 27.2329 148.406 24.2173C149.98 22.298 152.276 21.0882 153.905 19.2155C154.999 17.8126 155.931 16.2909 156.684 14.679C159.851 8.73713 164.541 3.02655 171.058 1.31356C173.813 0.722162 176.635 0.506601 179.448 0.672793L195.86 0.904087C198.518 0.81857 201.176 1.10426 203.755 1.7529C209.037 3.34836 212.884 7.78579 216.406 12.0294C219.141 15.1232 221.571 18.473 223.662 22.0323C226.498 27.3154 227.932 33.236 227.827 39.2297C227.849 40.7669 227.65 42.2993 227.237 43.7802C226.754 45.1383 226.154 46.4527 225.446 47.7087C222.369 53.7474 220.541 61.2902 224.007 67.1151C217.986 64.6583 212.029 61.4369 208.057 56.292C206.28 53.9905 204.887 51.2962 202.519 49.6073C200.151 47.9183 196.292 47.7718 194.773 50.2506C194.251 51.2533 193.982 52.3684 193.99 53.4986C194.038 55.3659 193.733 57.2255 193.092 58.9802C192.748 59.8486 192.118 60.574 191.306 61.0368C190.494 61.4997 189.549 61.6723 188.625 61.5262C185.532 60.6559 185.828 55.9139 183.446 53.7599C181.637 52.124 178.846 52.4367 176.521 51.6941C175.189 51.1882 173.977 50.4111 172.962 49.4121C171.946 48.4132 171.15 47.2141 170.623 45.8913C169.743 43.9195 169.756 38.7597 168.091 37.692C166.002 36.3529 161.253 38.4818 159.317 39.3438Z" fill="#2F2E41"/>
<path d="M238.875 70.6216C237.437 70.2383 235.923 70.2421 234.487 70.6327C229.927 71.8557 219.704 75.0931 217.512 80.0196C214.67 86.4062 204.725 96.341 204.725 96.341C204.725 96.341 191.227 109.824 194.069 119.049C196.91 128.274 207.566 138.919 207.566 138.919C207.566 138.919 204.725 182.916 218.933 194.27C233.141 205.624 238.824 197.818 238.824 208.462C238.824 219.107 282.869 252.459 291.394 231.88C291.394 231.88 287.132 193.56 288.552 180.077C289.953 166.789 287.903 83.88 238.875 70.6216Z" fill="#C1E8F2"/>
<path d="M216.09 88.5356C216.09 88.5356 172.756 120.469 180.57 133.952C180.57 133.952 206.855 146.725 212.538 146.016C218.222 145.306 240.244 120.469 245.927 118.34C251.611 116.211 254.452 77.8912 216.09 88.5356Z" fill="#C1E8F2"/>
</svg>
