<svg width="524" height="336" viewBox="0 0 524 336" fill="none" xmlns="http://www.w3.org/2000/svg">
<g filter="url(#filter0_d_157_12)">
<path d="M503.133 327.655H20.5346C17.2403 327.652 14.0819 326.342 11.7524 324.012C9.42298 321.683 8.11265 318.525 8.10892 315.232V17.6952C8.11161 15.282 9.07153 12.9685 10.7781 11.2621C12.4847 9.55574 14.7985 8.59586 17.212 8.59308H506.298C508.753 8.59587 511.107 9.57232 512.843 11.3082C514.579 13.0441 515.556 15.3977 515.559 17.8525V315.232C515.555 318.525 514.245 321.683 511.915 324.012C509.586 326.342 506.427 327.652 503.133 327.655Z" fill="#F2F2F2"/>
</g>
<path d="M487.529 311.969H37.7604C31.1673 311.969 25.8035 306.947 25.8035 300.774V41.6758C25.8035 37.0977 29.7782 33.373 34.6639 33.373H490.479C495.446 33.373 499.487 37.1591 499.487 41.8126V300.774C499.487 306.947 494.122 311.969 487.529 311.969Z" fill="white"/>
<path d="M515.386 19.2437H7.93484V12.9185C7.93962 9.61365 9.2553 6.44566 11.5932 4.10951C13.9312 1.77336 17.1004 0.459833 20.4057 0.457092H502.915C506.22 0.459805 509.39 1.77332 511.728 4.10947C514.066 6.44563 515.381 9.61364 515.386 12.9185V19.2437Z" fill="#0094FF"/>
<path d="M30.5982 13.0947C32.3797 13.0947 33.8239 11.6507 33.8239 9.86939C33.8239 8.08813 32.3797 6.64413 30.5982 6.64413C28.8166 6.64413 27.3724 8.08813 27.3724 9.86939C27.3724 11.6507 28.8166 13.0947 30.5982 13.0947Z" fill="white"/>
<path d="M42.8426 13.0947C44.6241 13.0947 46.0683 11.6507 46.0683 9.86939C46.0683 8.08813 44.6241 6.64413 42.8426 6.64413C41.0611 6.64413 39.6169 8.08813 39.6169 9.86939C39.6169 11.6507 41.0611 13.0947 42.8426 13.0947Z" fill="white"/>
<path d="M55.0868 13.0947C56.8683 13.0947 58.3125 11.6507 58.3125 9.86939C58.3125 8.08813 56.8683 6.64413 55.0868 6.64413C53.3053 6.64413 51.8611 8.08813 51.8611 9.86939C51.8611 11.6507 53.3053 13.0947 55.0868 13.0947Z" fill="white"/>
<path d="M251.975 90.0255H164.01C162.698 90.0255 161.441 89.5046 160.513 88.5774C159.586 87.6502 159.065 86.3927 159.065 85.0814C159.065 83.7702 159.586 82.5126 160.513 81.5854C161.441 80.6583 162.698 80.1374 164.01 80.1374H251.975C253.286 80.1374 254.544 80.6583 255.471 81.5854C256.399 82.5126 256.92 83.7702 256.92 85.0814C256.92 86.3927 256.399 87.6502 255.471 88.5774C254.544 89.5046 253.286 90.0255 251.975 90.0255Z" fill="#CCCCCC"/>
<path d="M361.281 90.0255H273.316C272.004 90.0255 270.746 89.5046 269.819 88.5774C268.892 87.6502 268.371 86.3927 268.371 85.0814C268.371 83.7702 268.892 82.5126 269.819 81.5854C270.746 80.6583 272.004 80.1374 273.316 80.1374H361.281C362.592 80.1374 363.85 80.6583 364.777 81.5854C365.704 82.5126 366.225 83.7702 366.225 85.0814C366.225 86.3927 365.704 87.6502 364.777 88.5774C363.85 89.5046 362.592 90.0255 361.281 90.0255Z" fill="#CCCCCC"/>
<path d="M361.281 108.76H208.253C206.941 108.76 205.684 108.24 204.756 107.312C203.829 106.385 203.308 105.128 203.308 103.816C203.308 102.505 203.829 101.248 204.756 100.32C205.684 99.3932 206.941 98.8723 208.253 98.8723H361.281C362.592 98.8723 363.85 99.3932 364.777 100.32C365.705 101.248 366.226 102.505 366.226 103.816C366.226 105.128 365.705 106.385 364.777 107.312C363.85 108.24 362.592 108.76 361.281 108.76Z" fill="#CCCCCC"/>
<path d="M251.974 71.0301H164.009C162.699 71.0285 161.443 70.5069 160.517 69.5799C159.591 68.6528 159.071 67.3962 159.071 66.086C159.071 64.7758 159.591 63.5192 160.517 62.5922C161.443 61.6652 162.699 61.1436 164.009 61.142H251.974C252.624 61.1412 253.268 61.2685 253.869 61.5166C254.469 61.7647 255.015 62.1287 255.475 62.5879C255.935 63.0471 256.299 63.5924 256.548 64.1926C256.797 64.7928 256.925 65.4363 256.925 66.086C256.925 66.7358 256.797 67.3792 256.548 67.9794C256.299 68.5797 255.935 69.125 255.475 69.5842C255.015 70.0433 254.469 70.4074 253.869 70.6555C253.268 70.9036 252.624 71.0309 251.974 71.0301Z" fill="#CCCCCC"/>
<path d="M300.382 71.2903H275.398C274.086 71.2903 272.829 70.7694 271.901 69.8422C270.974 68.915 270.453 67.6574 270.453 66.3462C270.453 65.0349 270.974 63.7774 271.901 62.8502C272.829 61.923 274.086 61.4021 275.398 61.4021H300.382C301.693 61.4021 302.951 61.923 303.878 62.8502C304.806 63.7774 305.327 65.0349 305.327 66.3462C305.327 67.6574 304.806 68.915 303.878 69.8422C302.951 70.7694 301.693 71.2903 300.382 71.2903Z" fill="#CCCCCC"/>
<path d="M188.994 108.76H164.009C162.699 108.759 161.443 108.237 160.517 107.31C159.591 106.383 159.071 105.127 159.071 103.816C159.071 102.506 159.591 101.25 160.517 100.323C161.443 99.3956 162.699 98.874 164.009 98.8723H188.994C189.643 98.8715 190.287 98.9988 190.888 99.2469C191.488 99.495 192.034 99.8591 192.494 100.318C192.954 100.777 193.319 101.323 193.567 101.923C193.816 102.523 193.944 103.167 193.944 103.816C193.944 104.466 193.816 105.11 193.567 105.71C193.319 106.31 192.954 106.855 192.494 107.315C192.034 107.774 191.488 108.138 190.888 108.386C190.287 108.634 189.643 108.761 188.994 108.76Z" fill="#CCCCCC"/>
<path d="M251.975 265.466H164.01C162.698 265.466 161.441 264.945 160.513 264.018C159.586 263.09 159.065 261.833 159.065 260.522C159.065 259.21 159.586 257.953 160.513 257.026C161.441 256.098 162.698 255.578 164.01 255.578H251.975C252.624 255.578 253.267 255.705 253.867 255.954C254.467 256.202 255.012 256.567 255.471 257.026C255.931 257.485 256.295 258.03 256.543 258.63C256.792 259.229 256.92 259.872 256.92 260.522C256.92 261.171 256.792 261.814 256.543 262.414C256.295 263.014 255.931 263.559 255.471 264.018C255.012 264.477 254.467 264.841 253.867 265.089C253.267 265.338 252.624 265.466 251.975 265.466Z" fill="#CCCCCC"/>
<path d="M361.281 265.466H273.316C272.004 265.466 270.746 264.945 269.819 264.018C268.892 263.09 268.371 261.833 268.371 260.522C268.371 259.21 268.892 257.953 269.819 257.026C270.746 256.098 272.004 255.578 273.316 255.578H361.281C361.93 255.578 362.573 255.705 363.173 255.954C363.773 256.202 364.318 256.567 364.777 257.026C365.236 257.485 365.601 258.03 365.849 258.63C366.098 259.229 366.225 259.872 366.225 260.522C366.225 261.171 366.098 261.814 365.849 262.414C365.601 263.014 365.236 263.559 364.777 264.018C364.318 264.477 363.773 264.841 363.173 265.089C362.573 265.338 361.93 265.466 361.281 265.466Z" fill="#CCCCCC"/>
<path d="M361.281 284.2H208.253C206.941 284.2 205.684 283.68 204.756 282.752C203.829 281.825 203.308 280.568 203.308 279.256C203.308 277.945 203.829 276.688 204.756 275.76C205.684 274.833 206.941 274.312 208.253 274.312H361.281C361.931 274.312 362.574 274.439 363.175 274.687C363.776 274.935 364.321 275.299 364.781 275.758C365.241 276.217 365.606 276.763 365.855 277.363C366.104 277.963 366.232 278.607 366.232 279.256C366.232 279.906 366.104 280.55 365.855 281.15C365.606 281.75 365.241 282.295 364.781 282.755C364.321 283.214 363.776 283.578 363.175 283.826C362.574 284.074 361.931 284.201 361.281 284.2Z" fill="#CCCCCC"/>
<path d="M251.975 246.47H164.01C162.698 246.47 161.441 245.949 160.513 245.022C159.586 244.095 159.065 242.837 159.065 241.526C159.065 240.215 159.586 238.957 160.513 238.03C161.441 237.103 162.698 236.582 164.01 236.582H251.975C253.286 236.582 254.544 237.103 255.471 238.03C256.399 238.957 256.92 240.215 256.92 241.526C256.92 242.837 256.399 244.095 255.471 245.022C254.544 245.949 253.286 246.47 251.975 246.47Z" fill="#CCCCCC"/>
<path d="M300.382 246.731H275.398C274.086 246.731 272.829 246.21 271.901 245.283C270.974 244.356 270.453 243.098 270.453 241.787C270.453 240.476 270.974 239.218 271.901 238.291C272.829 237.364 274.086 236.843 275.398 236.843H300.382C301.693 236.843 302.951 237.364 303.878 238.291C304.806 239.218 305.327 240.476 305.327 241.787C305.327 243.098 304.806 244.356 303.878 245.283C302.951 246.21 301.693 246.731 300.382 246.731Z" fill="#CCCCCC"/>
<path d="M188.994 284.2H164.01C162.698 284.2 161.441 283.68 160.513 282.752C159.586 281.825 159.065 280.568 159.065 279.256C159.065 277.945 159.586 276.688 160.513 275.76C161.441 274.833 162.698 274.312 164.01 274.312H188.994C189.644 274.312 190.287 274.439 190.888 274.687C191.489 274.935 192.035 275.299 192.494 275.758C192.954 276.217 193.319 276.763 193.568 277.363C193.817 277.963 193.945 278.607 193.945 279.256C193.945 279.906 193.817 280.55 193.568 281.15C193.319 281.75 192.954 282.295 192.494 282.755C192.035 283.214 191.489 283.578 190.888 283.826C190.287 284.074 189.644 284.201 188.994 284.2Z" fill="#CCCCCC"/>
<path d="M229.001 212.387C227.134 212.391 225.341 211.658 224.013 210.346L190.947 177.699C190.297 177.058 189.782 176.294 189.43 175.452C189.078 174.611 188.897 173.708 188.897 172.795C188.897 171.883 189.078 170.98 189.43 170.139C189.782 169.297 190.297 168.533 190.947 167.892L223.879 135.376C225.251 134.028 227.1 133.275 229.023 133.282C230.947 133.288 232.79 134.052 234.154 135.409C235.519 136.776 236.285 138.629 236.285 140.561C236.285 142.493 235.519 144.346 234.154 145.714L209.682 170.183C208.92 170.947 208.492 171.982 208.492 173.062C208.492 174.141 208.92 175.176 209.682 175.94L234.021 200.276C235.015 201.268 235.692 202.533 235.967 203.91C236.241 205.287 236.101 206.714 235.563 208.011C235.026 209.308 234.115 210.416 232.947 211.195C231.778 211.974 230.405 212.389 229.001 212.387V212.387Z" fill="#0094FF"/>
<path d="M281.69 212.387C280.286 212.389 278.912 211.974 277.744 211.195C276.576 210.416 275.665 209.308 275.128 208.011C274.59 206.714 274.45 205.287 274.724 203.91C274.999 202.533 275.676 201.268 276.67 200.276L301.009 175.941C301.771 175.176 302.199 174.141 302.199 173.062C302.199 171.982 301.771 170.947 301.009 170.183L276.537 145.714C275.86 145.038 275.323 144.234 274.957 143.35C274.591 142.466 274.402 141.518 274.402 140.561C274.402 139.604 274.591 138.657 274.957 137.773C275.323 136.889 275.86 136.085 276.537 135.409C277.9 134.052 279.744 133.288 281.668 133.282C283.591 133.275 285.44 134.028 286.812 135.376L319.744 167.892C320.394 168.533 320.909 169.297 321.261 170.139C321.612 170.98 321.794 171.883 321.794 172.796C321.794 173.708 321.612 174.611 321.261 175.453C320.909 176.294 320.394 177.058 319.744 177.699L286.678 210.347C285.349 211.658 283.557 212.391 281.69 212.387Z" fill="#0094FF"/>
<defs>
<filter id="filter0_d_157_12" x="0.108925" y="0.593079" width="523.45" height="335.062" filterUnits="userSpaceOnUse" color-interpolation-filters="sRGB">
<feFlood flood-opacity="0" result="BackgroundImageFix"/>
<feColorMatrix in="SourceAlpha" type="matrix" values="0 0 0 0 0 0 0 0 0 0 0 0 0 0 0 0 0 0 127 0" result="hardAlpha"/>
<feOffset/>
<feGaussianBlur stdDeviation="4"/>
<feColorMatrix type="matrix" values="0 0 0 0 0 0 0 0 0 0 0 0 0 0 0 0 0 0 0.19 0"/>
<feBlend mode="normal" in2="BackgroundImageFix" result="effect1_dropShadow_157_12"/>
<feBlend mode="normal" in="SourceGraphic" in2="effect1_dropShadow_157_12" result="shape"/>
</filter>
</defs>
</svg>
