<svg width="217" height="245" viewBox="0 0 217 245" fill="none" xmlns="http://www.w3.org/2000/svg">
<path d="M94.4896 3.49804C88.7372 5.43861 83.5257 9.97747 82.3477 15.9273C81.8017 18.6853 82.1364 21.5524 81.6769 24.3261C80.6112 30.7589 75.5562 35.6717 70.8937 40.235C66.2313 44.7983 61.4165 50.1005 61.0762 56.6119C60.7035 63.7422 65.8802 70.4219 64.9844 77.5056C63.9437 85.7352 55.242 91.0679 53.0909 99.0798C51.6546 104.43 53.4147 110.193 56.3105 114.916C61.8288 123.918 71.2611 130.029 81.3059 133.305C91.3507 136.581 102.049 137.27 112.615 137.381C125.48 137.515 139.449 136.412 149.115 127.93C154.637 123.042 158.104 116.249 158.822 108.914C159.741 99.0896 155.636 88.9379 158.467 79.4844C160.249 73.5349 164.718 68.1012 164.051 61.9271C163.399 55.8901 158.121 51.611 154.5 46.7341C151.119 42.1806 149.067 36.8031 147.057 31.5016L140.177 13.3621C138.825 9.79621 137.34 6.04581 134.326 3.70535C128.683 -0.676072 119.611 0.184787 113.013 1.08845C106.893 1.92676 100.376 1.51242 94.4896 3.49804Z" fill="#2F2E41"/>
<path d="M96.6444 56.3382C96.6444 56.3382 99.6941 66.239 76.8214 77.6629C53.9487 89.0868 79.1087 101.272 79.1087 101.272L105.794 107.365C105.794 107.365 133.241 103.557 136.291 98.9875C139.34 94.418 144.677 79.1861 143.152 76.9013C142.011 75.2746 140.736 73.7461 139.34 72.3318C139.34 72.3318 121.042 69.2854 121.804 60.9078C122.567 52.5303 96.6444 56.3382 96.6444 56.3382Z" fill="#FFB9B9"/>
<path opacity="0.1" d="M96.6444 56.3382C96.6444 56.3382 99.6941 66.239 76.8214 77.6629C53.9487 89.0868 79.1087 101.272 79.1087 101.272L105.794 107.365C105.794 107.365 133.241 103.557 136.291 98.9875C139.34 94.418 144.677 79.1861 143.152 76.9013C142.011 75.2746 140.736 73.7461 139.34 72.3318C139.34 72.3318 121.042 69.2854 121.804 60.9078C122.567 52.5303 96.6444 56.3382 96.6444 56.3382Z" fill="black"/>
<path d="M111.511 71.9513C124.986 71.9513 135.909 61.04 135.909 47.5803C135.909 34.1206 124.986 23.2093 111.511 23.2093C98.0368 23.2093 87.1136 34.1206 87.1136 47.5803C87.1136 61.04 98.0368 71.9513 111.511 71.9513Z" fill="#FFB9B9"/>
<path d="M108.842 98.9871C108.842 98.9871 79.4598 96.8406 78.9026 76.5893C78.9026 76.5893 68.4339 75.3777 65.3842 78.4241C62.3345 81.4704 52.4229 83.7552 52.4229 91.3711C52.4229 98.9871 69.1963 121.835 69.1963 121.835C69.1963 121.835 78.3453 152.299 74.5332 157.63C70.7211 162.961 69.9587 176.67 69.9587 176.67C69.9587 176.67 108.08 173.623 114.179 176.67C120.279 179.716 144.676 179.716 146.201 176.67C147.726 173.623 144.676 135.544 144.676 135.544C144.676 135.544 151.538 126.404 150.013 115.742L168.311 94.4176C168.311 94.4176 161.45 73.8545 150.776 73.8545C150.776 73.8545 136.29 70.0465 135.908 71.9505C135.527 73.8545 143.151 95.1791 108.842 98.9871Z" fill="#0094FF"/>
<path d="M40.2255 166.008C40.2255 166.008 47.0873 176.67 64.6231 178.955C82.1589 181.24 85.2085 175.147 83.6837 173.624C82.1588 172.101 63.8607 165.246 63.8607 165.246L53.1867 156.869L40.2255 166.008Z" fill="#FFB9B9"/>
<path d="M165.261 156.869L145.438 168.293C145.438 168.293 119.516 166.769 129.427 174.385C139.339 182.001 157.637 178.955 157.637 178.955L175.173 170.577L165.261 156.869Z" fill="#FFB9B9"/>
<path d="M66.1485 176.67C66.1485 176.67 47.8503 221.604 69.9606 228.459C92.0709 235.313 153.065 233.79 166.788 224.651C180.512 215.511 184.324 203.326 182.037 199.518C179.75 195.71 164.501 185.048 153.827 184.286C143.153 183.524 66.1485 176.67 66.1485 176.67Z" fill="#2F2E41"/>
<path opacity="0.05" d="M66.1485 176.67C66.1485 176.67 47.8503 221.604 69.9606 228.459C92.0709 235.313 153.065 233.79 166.788 224.651C180.512 215.511 184.324 203.326 182.037 199.518C179.75 195.71 164.501 185.048 153.827 184.286C143.153 183.524 66.1485 176.67 66.1485 176.67Z" fill="black"/>
<path d="M152.521 179.462C152.521 179.462 217.108 156.107 216.346 184.286C215.583 212.465 175.175 220.081 175.175 220.081L162.976 221.605L95.8827 223.889C95.8827 223.889 98.17 211.704 92.833 210.181C92.833 210.181 110.369 205.611 111.131 204.849C111.894 204.088 155.352 188.856 158.401 188.094C161.451 187.333 170.6 181.24 177.462 182.002C177.462 182.002 185.086 175.909 193.473 177.432L169.838 178.955L152.521 179.462Z" fill="#2F2E41"/>
<path opacity="0.1" d="M152.521 179.462C152.521 179.462 217.108 156.107 216.346 184.286C215.583 212.465 175.175 220.081 175.175 220.081L162.976 221.605L95.8827 223.889C95.8827 223.889 98.17 211.704 92.833 210.181C92.833 210.181 110.369 205.611 111.131 204.849C111.894 204.088 155.352 188.856 158.401 188.094C161.451 187.333 170.6 181.24 177.462 182.002C177.462 182.002 185.086 175.909 193.473 177.432L169.838 178.955L152.521 179.462Z" fill="black"/>
<path d="M141.109 183.244L149.252 201.803L198.809 184.286L202.622 174.386L189.66 172.1L163.602 176.671L152.301 179.717L141.109 183.244Z" fill="#2F2E41"/>
<path opacity="0.1" d="M141.109 183.244L149.252 201.803L198.809 184.286L202.622 174.386L189.66 172.1L163.602 176.671L152.301 179.717L141.109 183.244Z" fill="black"/>
<path d="M35.6505 205.611C35.6505 205.611 50.1365 223.889 66.9099 228.458C83.6833 233.028 92.8323 226.935 92.8323 226.935L87.4954 205.611L85.2081 191.902L75.2966 185.048L55.4735 175.908L31.8384 168.292C31.8384 168.292 21.9268 166.769 21.9268 168.292C21.9268 169.816 31.076 192.663 31.076 192.663L35.6505 205.611Z" fill="#2F2E41"/>
<path d="M53.1854 215.511C53.1854 215.511 56.2351 237.597 60.0472 239.121C63.8594 240.644 75.2957 237.597 78.3454 236.074C81.3951 234.551 91.7613 227.523 91.7613 227.523C91.7613 227.523 55.4726 213.988 53.1854 215.511Z" fill="#CCCCCC"/>
<path d="M122.568 217.796L137.054 220.081L135.528 237.597L115.323 232.695L122.568 217.796Z" fill="#FFB9B9"/>
<path d="M131.642 222.671C131.642 222.671 124.853 230.744 131.715 235.313L136.29 239.121C136.29 239.121 151.538 242.167 153.063 243.691C154.588 245.214 160.687 241.406 160.687 241.406C160.687 241.406 161.45 218.558 160.687 217.035C159.925 215.512 150.776 213.989 150.013 215.512C149.251 217.035 140.102 219.32 134.765 217.797L131.642 222.671Z" fill="#CCCCCC"/>
<path d="M70.7214 182.001C70.7214 182.001 17.3517 150.776 8.96504 162.2C0.578362 173.623 -8.57072 189.617 15.8268 201.802C40.2244 213.988 116.467 239.121 116.467 239.121C116.467 239.121 127.903 221.604 127.903 217.034C127.903 217.034 87.4947 198.756 80.6328 197.233C73.771 195.71 46.3238 178.193 42.5117 176.67C38.6996 175.147 33.3626 170.577 33.3626 170.577L70.7214 182.001Z" fill="#2F2E41"/>
<path d="M55.4737 87.5633L52.4241 89.8481C52.4241 89.8481 45.5622 107.365 44.7998 117.265C44.0373 127.166 34.8883 157.63 35.6507 161.438C36.4131 165.246 37.1756 168.292 41.7502 172.1C41.7502 172.1 47.8496 158.392 58.5235 160.676L71.4847 113.457L55.4737 87.5633Z" fill="#0094FF"/>
<path d="M162.213 87.5633L168.312 94.4176C168.312 94.4176 172.124 103.557 172.124 105.842C172.124 108.126 179.748 141.636 180.511 143.16C181.273 144.683 184.323 163.723 180.511 168.292C176.699 172.862 169.837 175.908 169.837 175.908C169.837 175.908 174.412 159.915 159.925 159.153L161.45 153.06L147.727 107.365L162.213 87.5633Z" fill="#0094FF"/>
<path d="M56.9981 139.998V180.114C56.9981 182.647 57.9958 185.079 59.7757 186.883C61.5555 188.688 63.9746 189.72 66.5103 189.758L150.497 191C153.018 191.038 155.453 190.089 157.283 188.356C159.112 186.623 160.191 184.244 160.288 181.727L161.833 141.607C161.882 140.322 161.674 139.04 161.22 137.836C160.766 136.633 160.076 135.532 159.19 134.599C158.304 133.666 157.24 132.919 156.061 132.403C154.882 131.887 153.612 131.611 152.324 131.592L66.7932 130.354C65.5136 130.336 64.2431 130.571 63.0556 131.048C61.868 131.524 60.7871 132.231 59.8757 133.129C58.9643 134.026 58.2405 135.096 57.7465 136.275C57.2525 137.454 56.9981 138.72 56.9981 139.998V139.998Z" fill="#3F3D56"/>
<path d="M112.942 46.7988C127.446 46.7988 139.204 40.4746 139.204 32.6733C139.204 24.872 127.446 18.5478 112.942 18.5478C98.4382 18.5478 86.6805 24.872 86.6805 32.6733C86.6805 40.4746 98.4382 46.7988 112.942 46.7988Z" fill="#2F2E41"/>
<path d="M108.461 167.15C111.829 167.15 114.56 164.422 114.56 161.057C114.56 157.693 111.829 154.965 108.461 154.965C105.092 154.965 102.361 157.693 102.361 161.057C102.361 164.422 105.092 167.15 108.461 167.15Z" fill="#F2F2F2"/>
</svg>
