<svg width="570" height="267" viewBox="0 0 570 267" fill="none" xmlns="http://www.w3.org/2000/svg">
<path d="M447.49 3.49804C441.737 5.43861 436.526 9.97747 435.348 15.9273C434.802 18.6853 435.136 21.5524 434.677 24.3261C433.611 30.7589 428.556 35.6717 423.894 40.235C419.231 44.7983 414.416 50.1005 414.076 56.6119C413.704 63.7422 418.88 70.4219 417.984 77.5056C416.944 85.7352 408.242 91.0679 406.091 99.0798C404.655 104.43 406.415 110.193 409.31 114.916C414.829 123.918 424.261 130.029 434.306 133.305C444.351 136.581 455.049 137.27 465.615 137.381C478.48 137.515 492.449 136.412 502.115 127.93C507.637 123.042 511.104 116.249 511.822 108.914C512.741 99.0896 508.636 88.9379 511.467 79.4844C513.249 73.5349 517.718 68.1012 517.051 61.9271C516.399 55.8901 511.121 51.611 507.5 46.7341C504.119 42.1806 502.067 36.8031 500.057 31.5016L493.177 13.3621C491.825 9.79621 490.34 6.04581 487.326 3.70535C481.683 -0.676072 472.611 0.184787 466.013 1.08845C459.893 1.92676 453.376 1.51242 447.49 3.49804Z" fill="#2F2E41"/>
<path d="M449.644 56.3382C449.644 56.3382 452.694 66.239 429.821 77.6629C406.949 89.0868 432.109 101.272 432.109 101.272L458.794 107.365C458.794 107.365 486.241 103.557 489.291 98.9875C492.34 94.418 497.677 79.1861 496.152 76.9013C495.011 75.2746 493.736 73.7461 492.34 72.3318C492.34 72.3318 474.042 69.2854 474.804 60.9078C475.567 52.5303 449.644 56.3382 449.644 56.3382Z" fill="#FFB9B9"/>
<path opacity="0.1" d="M449.644 56.3382C449.644 56.3382 452.694 66.239 429.821 77.6629C406.949 89.0868 432.109 101.272 432.109 101.272L458.794 107.365C458.794 107.365 486.241 103.557 489.291 98.9875C492.34 94.418 497.677 79.1861 496.152 76.9013C495.011 75.2746 493.736 73.7461 492.34 72.3318C492.34 72.3318 474.042 69.2854 474.804 60.9078C475.567 52.5303 449.644 56.3382 449.644 56.3382Z" fill="black"/>
<path d="M464.511 71.9513C477.986 71.9513 488.909 61.04 488.909 47.5803C488.909 34.1206 477.986 23.2093 464.511 23.2093C451.037 23.2093 440.114 34.1206 440.114 47.5803C440.114 61.04 451.037 71.9513 464.511 71.9513Z" fill="#FFB9B9"/>
<path d="M461.842 98.9871C461.842 98.9871 432.46 96.8406 431.903 76.5893C431.903 76.5893 421.434 75.3777 418.384 78.4241C415.334 81.4704 405.423 83.7552 405.423 91.3711C405.423 98.9871 422.196 121.835 422.196 121.835C422.196 121.835 431.345 152.299 427.533 157.63C423.721 162.961 422.959 176.67 422.959 176.67C422.959 176.67 461.08 173.623 467.179 176.67C473.279 179.716 497.676 179.716 499.201 176.67C500.726 173.623 497.676 135.544 497.676 135.544C497.676 135.544 504.538 126.404 503.013 115.742L521.311 94.4176C521.311 94.4176 514.45 73.8545 503.776 73.8545C503.776 73.8545 489.29 70.0465 488.908 71.9505C488.527 73.8545 496.151 95.1791 461.842 98.9871Z" fill="#0094FF"/>
<path d="M393.225 166.008C393.225 166.008 400.087 176.67 417.623 178.955C435.159 181.24 438.209 175.147 436.684 173.624C435.159 172.101 416.861 165.246 416.861 165.246L406.187 156.869L393.225 166.008Z" fill="#FFB9B9"/>
<path d="M518.261 156.869L498.438 168.293C498.438 168.293 472.516 166.769 482.427 174.385C492.339 182.001 510.637 178.955 510.637 178.955L528.173 170.577L518.261 156.869Z" fill="#FFB9B9"/>
<path d="M419.148 176.67C419.148 176.67 400.85 221.604 422.961 228.459C445.071 235.313 506.065 233.79 519.788 224.651C533.512 215.511 537.324 203.326 535.037 199.518C532.75 195.71 517.501 185.048 506.827 184.286C496.153 183.524 419.148 176.67 419.148 176.67Z" fill="#2F2E41"/>
<path opacity="0.05" d="M419.148 176.67C419.148 176.67 400.85 221.604 422.961 228.459C445.071 235.313 506.065 233.79 519.788 224.651C533.512 215.511 537.324 203.326 535.037 199.518C532.75 195.71 517.501 185.048 506.827 184.286C496.153 183.524 419.148 176.67 419.148 176.67Z" fill="black"/>
<path d="M505.521 179.462C505.521 179.462 570.108 156.107 569.346 184.286C568.583 212.465 528.175 220.081 528.175 220.081L515.976 221.605L448.883 223.889C448.883 223.889 451.17 211.704 445.833 210.181C445.833 210.181 463.369 205.611 464.131 204.849C464.894 204.088 508.352 188.856 511.401 188.094C514.451 187.333 523.6 181.24 530.462 182.002C530.462 182.002 538.086 175.909 546.473 177.432L522.838 178.955L505.521 179.462Z" fill="#2F2E41"/>
<path opacity="0.1" d="M505.521 179.462C505.521 179.462 570.108 156.107 569.346 184.286C568.583 212.465 528.175 220.081 528.175 220.081L515.976 221.605L448.883 223.889C448.883 223.889 451.17 211.704 445.833 210.181C445.833 210.181 463.369 205.611 464.131 204.849C464.894 204.088 508.352 188.856 511.401 188.094C514.451 187.333 523.6 181.24 530.462 182.002C530.462 182.002 538.086 175.909 546.473 177.432L522.838 178.955L505.521 179.462Z" fill="black"/>
<path d="M494.109 183.244L502.252 201.803L551.809 184.286L555.622 174.386L542.66 172.1L516.602 176.671L505.301 179.717L494.109 183.244Z" fill="#2F2E41"/>
<path opacity="0.1" d="M494.109 183.244L502.252 201.803L551.809 184.286L555.622 174.386L542.66 172.1L516.602 176.671L505.301 179.717L494.109 183.244Z" fill="black"/>
<path d="M388.65 205.611C388.65 205.611 403.137 223.889 419.91 228.458C436.683 233.028 445.832 226.935 445.832 226.935L440.495 205.611L438.208 191.902L428.297 185.048L408.474 175.908L384.838 168.292C384.838 168.292 374.927 166.769 374.927 168.292C374.927 169.816 384.076 192.663 384.076 192.663L388.65 205.611Z" fill="#2F2E41"/>
<path d="M406.185 215.511C406.185 215.511 409.235 237.597 413.047 239.121C416.859 240.644 428.296 237.597 431.345 236.074C434.395 234.551 444.761 227.523 444.761 227.523C444.761 227.523 408.473 213.988 406.185 215.511Z" fill="#CCCCCC"/>
<path d="M475.568 217.796L490.054 220.081L488.528 237.597L468.323 232.695L475.568 217.796Z" fill="#FFB9B9"/>
<path d="M484.642 222.671C484.642 222.671 477.853 230.744 484.715 235.313L489.29 239.121C489.29 239.121 504.538 242.167 506.063 243.691C507.588 245.214 513.687 241.406 513.687 241.406C513.687 241.406 514.45 218.558 513.687 217.035C512.925 215.512 503.776 213.989 503.013 215.512C502.251 217.035 493.102 219.32 487.765 217.797L484.642 222.671Z" fill="#CCCCCC"/>
<path d="M423.721 182.001C423.721 182.001 370.352 150.776 361.965 162.2C353.578 173.623 344.429 189.617 368.827 201.802C393.224 213.988 469.467 239.121 469.467 239.121C469.467 239.121 480.903 221.604 480.903 217.034C480.903 217.034 440.495 198.756 433.633 197.233C426.771 195.71 399.324 178.193 395.512 176.67C391.7 175.147 386.363 170.577 386.363 170.577L423.721 182.001Z" fill="#2F2E41"/>
<path d="M408.474 87.5633L405.424 89.8481C405.424 89.8481 398.562 107.365 397.8 117.265C397.037 127.166 387.888 157.63 388.651 161.438C389.413 165.246 390.176 168.292 394.75 172.1C394.75 172.1 400.85 158.392 411.523 160.676L424.485 113.457L408.474 87.5633Z" fill="#0094FF"/>
<path d="M515.213 87.5633L521.312 94.4176C521.312 94.4176 525.124 103.557 525.124 105.842C525.124 108.126 532.748 141.636 533.511 143.16C534.273 144.683 537.323 163.723 533.511 168.292C529.699 172.862 522.837 175.908 522.837 175.908C522.837 175.908 527.412 159.915 512.925 159.153L514.45 153.06L500.727 107.365L515.213 87.5633Z" fill="#0094FF"/>
<path d="M409.998 139.998V180.114C409.998 182.647 410.996 185.079 412.776 186.883C414.556 188.688 416.975 189.72 419.51 189.758L503.497 191C506.018 191.038 508.453 190.089 510.283 188.356C512.112 186.623 513.191 184.244 513.288 181.727L514.833 141.607C514.882 140.322 514.674 139.04 514.22 137.836C513.766 136.633 513.076 135.532 512.19 134.599C511.304 133.666 510.24 132.919 509.061 132.403C507.882 131.887 506.612 131.611 505.324 131.592L419.793 130.354C418.514 130.336 417.243 130.571 416.056 131.048C414.868 131.524 413.787 132.231 412.876 133.129C411.964 134.026 411.241 135.096 410.747 136.275C410.253 137.454 409.998 138.72 409.998 139.998V139.998Z" fill="#3F3D56"/>
<path d="M465.942 46.7988C480.446 46.7988 492.204 40.4746 492.204 32.6733C492.204 24.872 480.446 18.5478 465.942 18.5478C451.438 18.5478 439.681 24.872 439.681 32.6733C439.681 40.4746 451.438 46.7988 465.942 46.7988Z" fill="#2F2E41"/>
<path d="M461.461 167.15C464.829 167.15 467.56 164.422 467.56 161.057C467.56 157.693 464.829 154.965 461.461 154.965C458.092 154.965 455.361 157.693 455.361 161.057C455.361 164.422 458.092 167.15 461.461 167.15Z" fill="#F2F2F2"/>
<path d="M5.53467 171.569L0.91801 190.592C0.866553 190.804 0.874579 191.026 0.941153 191.234L21.8832 256.606C21.9661 256.865 22.1355 257.088 22.3629 257.237C22.5903 257.386 22.862 257.453 23.1328 257.427C23.4036 257.4 23.657 257.281 23.8509 257.09C24.0447 256.9 24.1672 256.648 24.1979 256.378L27.0951 230.912C27.1143 230.742 27.0969 230.571 27.0441 230.409L7.82157 171.48C7.74137 171.234 7.5831 171.021 7.37071 170.874C7.15832 170.726 6.90344 170.651 6.64476 170.661C6.38608 170.671 6.1377 170.765 5.93736 170.929C5.73702 171.093 5.59564 171.317 5.53467 171.569V171.569Z" fill="#2F2E41"/>
<path d="M7.23285 173.175L2.96934 189.496L21.4407 249.105L25.7029 230.655L7.23285 173.175Z" fill="#F2F2F2"/>
<path d="M100.295 261.878C99.5846 264.007 26.4131 261.169 25.7027 260.459C25.0834 259.57 24.5595 258.619 24.1399 257.62C23.4721 256.201 22.8612 254.782 22.8612 254.782L25.7027 231.804L98.1638 229.235C98.1638 229.235 99.9754 248.708 100.345 257.62C100.471 259.038 100.454 260.464 100.295 261.878V261.878Z" fill="#2F2E41"/>
<path opacity="0.1" d="M34.9378 234.912L33.5179 254.782H65.4861V234.912H34.9378Z" fill="black"/>
<path opacity="0.1" d="M76.1414 241.299L75.9505 241.262L76.8513 249.815H94.6115V241.299H76.1414Z" fill="black"/>
<path opacity="0.1" d="M100.295 261.878C99.5846 264.007 26.4131 261.169 25.7028 260.459C25.0834 259.57 24.5596 258.619 24.1399 257.62H100.345C100.471 259.038 100.454 260.464 100.295 261.878V261.878Z" fill="black"/>
<path d="M213.25 187.367H193.359L144.341 168.207C144.341 168.207 109.531 154.015 112.373 180.981C115.215 207.947 120.187 244.138 120.187 244.138C120.187 244.138 135.816 237.041 144.341 239.17C152.866 241.299 147.183 195.883 147.183 195.883C147.183 195.883 216.802 229.235 223.196 224.978C229.589 220.72 231.01 190.916 231.01 190.916L213.25 187.367Z" fill="#2F2E41"/>
<path opacity="0.1" d="M213.25 187.367H193.359L144.341 168.207C144.341 168.207 109.531 154.015 112.373 180.981C115.215 207.947 120.187 244.138 120.187 244.138C120.187 244.138 135.816 237.041 144.341 239.17C152.866 241.299 147.183 195.883 147.183 195.883C147.183 195.883 216.802 229.235 223.196 224.978C229.589 220.72 231.01 190.916 231.01 190.916L213.25 187.367Z" fill="black"/>
<path d="M181.91 125.143L157.838 159.692L101.716 206.527C101.716 206.527 49.8565 218.591 56.9605 227.106C64.0645 235.622 107.399 218.591 107.399 218.591C107.399 218.591 172.046 171.755 174.177 168.207C176.308 164.659 199.751 131.306 199.751 131.306L181.91 125.143Z" fill="#FFB8B8"/>
<path opacity="0.1" d="M181.91 125.143L157.838 159.692L101.716 206.527C101.716 206.527 49.8565 218.591 56.9605 227.106C64.0645 235.622 107.399 218.591 107.399 218.591C107.399 218.591 172.046 171.755 174.177 168.207C176.308 164.659 199.751 131.306 199.751 131.306L181.91 125.143Z" fill="black"/>
<path d="M185.544 87.3093C167.888 87.3093 153.576 73.0123 153.576 55.376C153.576 37.7397 167.888 23.4427 185.544 23.4427C203.199 23.4427 217.512 37.7397 217.512 55.376C217.512 73.0123 203.199 87.3093 185.544 87.3093Z" fill="#FFB8B8"/>
<path d="M187.674 83.7618C187.674 83.7618 198.33 102.212 200.461 112.147C202.592 122.082 232.429 92.2773 232.429 92.2773L236.336 81.9877C236.336 81.9877 208.275 68.8595 210.406 58.2151C212.538 47.5707 187.674 83.7618 187.674 83.7618Z" fill="#FFB8B8"/>
<path d="M196.199 97.2444L180.57 127.758C180.57 127.758 184.122 142.661 189.805 144.08C195.489 145.499 219.642 125.63 219.642 125.63L196.199 97.2444Z" fill="#C1E8F2"/>
<path d="M181.992 139.113L152.865 177.432L83.246 229.235C83.246 229.235 32.8074 239.88 44.1739 247.686C55.5403 255.492 88.2187 240.589 88.2187 240.589C88.2187 240.589 158.549 202.979 173.467 187.367C188.385 171.755 216.091 145.499 216.091 145.499L181.992 139.113Z" fill="#FFB8B8"/>
<path d="M221.062 198.721L212.538 212.204L161.661 196.216C156.149 194.436 150.317 193.873 144.566 194.566C138.816 195.259 133.284 197.192 128.355 200.229C119.475 205.818 113.792 214.688 126.579 227.816C152.153 254.073 169.203 239.88 169.203 239.88C169.203 239.88 255.162 280.329 269.37 260.459C283.578 240.589 284.288 230.655 284.288 230.655C284.288 230.655 229.587 196.593 221.062 198.721Z" fill="#2F2E41"/>
<path d="M114.17 242.212C114.17 242.212 91.4371 257.114 118.432 264.21C145.428 271.306 165.319 261.372 165.319 261.372C165.319 261.372 188.762 261.372 188.762 249.308C188.762 237.244 180.948 235.825 180.948 235.825L156.794 239.373C156.794 239.373 127.668 231.567 114.17 242.212Z" fill="#CCCCCC"/>
<path d="M159.317 47.3438C157.217 48.4731 154.959 49.2811 152.618 49.7408C151.442 49.951 150.23 49.8126 149.132 49.3427C148.034 48.8728 147.098 48.0919 146.439 47.0964C145.917 45.9165 145.676 44.6311 145.738 43.3422C145.652 39.4455 145.934 35.2329 148.406 32.2173C149.98 30.298 152.276 29.0882 153.905 27.2155C154.999 25.8126 155.931 24.2909 156.684 22.679C159.851 16.7371 164.541 11.0265 171.058 9.31356C173.813 8.72216 176.635 8.5066 179.448 8.67279L195.86 8.90409C198.518 8.81857 201.176 9.10426 203.755 9.7529C209.037 11.3484 212.884 15.7858 216.406 20.0294C219.141 23.1232 221.571 26.473 223.662 30.0323C226.498 35.3154 227.932 41.236 227.827 47.2297C227.849 48.7669 227.65 50.2993 227.237 51.7802C226.754 53.1383 226.154 54.4527 225.446 55.7087C222.369 61.7474 220.541 69.2902 224.007 75.1151C217.986 72.6583 212.029 69.4369 208.057 64.292C206.28 61.9905 204.887 59.2962 202.519 57.6073C200.151 55.9183 196.292 55.7718 194.773 58.2506C194.251 59.2533 193.982 60.3684 193.99 61.4986C194.038 63.3659 193.733 65.2255 193.092 66.9802C192.748 67.8486 192.118 68.574 191.306 69.0368C190.494 69.4997 189.549 69.6723 188.625 69.5262C185.532 68.6559 185.828 63.9139 183.446 61.7599C181.637 60.124 178.846 60.4367 176.521 59.6941C175.189 59.1882 173.977 58.4111 172.962 57.4121C171.946 56.4132 171.15 55.2141 170.623 53.8913C169.743 51.9195 169.756 46.7597 168.091 45.692C166.002 44.3529 161.253 46.4818 159.317 47.3438Z" fill="#2F2E41"/>
<path d="M238.875 78.6216C237.437 78.2383 235.923 78.2421 234.487 78.6327C229.927 79.8557 219.704 83.0931 217.512 88.0196C214.67 94.4062 204.725 104.341 204.725 104.341C204.725 104.341 191.227 117.824 194.069 127.049C196.91 136.274 207.566 146.919 207.566 146.919C207.566 146.919 204.725 190.916 218.933 202.27C233.141 213.624 238.824 205.818 238.824 216.462C238.824 227.107 282.869 260.459 291.394 239.88C291.394 239.88 287.132 201.56 288.552 188.077C289.953 174.789 287.903 91.88 238.875 78.6216Z" fill="#C1E8F2"/>
<path d="M216.09 96.5356C216.09 96.5356 172.756 128.469 180.57 141.952C180.57 141.952 206.855 154.725 212.538 154.016C218.222 153.306 240.244 128.469 245.927 126.34C251.611 124.211 254.452 85.8912 216.09 96.5356Z" fill="#C1E8F2"/>
</svg>
