<svg width="695" height="753" viewBox="0 0 695 753" fill="none" xmlns="http://www.w3.org/2000/svg">
<path fill-rule="evenodd" clip-rule="evenodd" d="M440.351 76.4993C366.631 60.5979 295.689 105.428 230.906 154.049C161.848 205.879 86.3843 262.675 73.313 351.972C59.3142 447.605 104.322 535.716 165.721 599.359C229.699 665.674 314.061 716.321 403.469 694.194C491.301 672.456 551.223 583.921 592.032 493.852C629.545 411.059 640.847 318.033 611.051 236.047C581.566 154.919 518.709 93.4013 440.351 76.4993Z" fill="white"/>
<g filter="url(#filter0_d_157_10)">
<path d="M600.133 424.655H117.535C114.24 424.652 111.082 423.342 108.752 421.012C106.423 418.683 105.113 415.525 105.109 412.232V114.695C105.112 112.282 106.072 109.969 107.778 108.262C109.485 106.556 111.798 105.596 114.212 105.593H603.298C605.753 105.596 608.107 106.572 609.843 108.308C611.579 110.044 612.556 112.398 612.559 114.853V412.232C612.555 415.525 611.245 418.683 608.915 421.012C606.586 423.342 603.427 424.652 600.133 424.655V424.655Z" fill="#F2F2F2"/>
</g>
<path d="M584.529 408.969H134.76C128.167 408.969 122.803 403.947 122.803 397.774V138.676C122.803 134.098 126.778 130.373 131.664 130.373H587.479C592.446 130.373 596.487 134.159 596.487 138.813V397.774C596.487 403.947 591.122 408.969 584.529 408.969Z" fill="white"/>
<path d="M612.386 116.244H104.935V109.918C104.94 106.614 106.255 103.446 108.593 101.11C110.931 98.7734 114.1 97.4598 117.406 97.4571H599.915C603.22 97.4598 606.39 98.7733 608.728 101.109C611.066 103.446 612.381 106.614 612.386 109.918V116.244Z" fill="#0094FF"/>
<path d="M127.598 110.095C129.38 110.095 130.824 108.651 130.824 106.869C130.824 105.088 129.38 103.644 127.598 103.644C125.817 103.644 124.372 105.088 124.372 106.869C124.372 108.651 125.817 110.095 127.598 110.095Z" fill="white"/>
<path d="M139.843 110.095C141.624 110.095 143.068 108.651 143.068 106.869C143.068 105.088 141.624 103.644 139.843 103.644C138.061 103.644 136.617 105.088 136.617 106.869C136.617 108.651 138.061 110.095 139.843 110.095Z" fill="white"/>
<path d="M152.087 110.095C153.868 110.095 155.313 108.651 155.313 106.869C155.313 105.088 153.868 103.644 152.087 103.644C150.305 103.644 148.861 105.088 148.861 106.869C148.861 108.651 150.305 110.095 152.087 110.095Z" fill="white"/>
<path d="M348.975 187.025H261.01C259.698 187.025 258.441 186.505 257.513 185.577C256.586 184.65 256.065 183.393 256.065 182.081C256.065 180.77 256.586 179.513 257.513 178.585C258.441 177.658 259.698 177.137 261.01 177.137H348.975C350.286 177.137 351.544 177.658 352.471 178.585C353.399 179.513 353.92 180.77 353.92 182.081C353.92 183.393 353.399 184.65 352.471 185.577C351.544 186.505 350.286 187.025 348.975 187.025V187.025Z" fill="#CCCCCC"/>
<path d="M458.281 187.025H370.316C369.004 187.025 367.746 186.505 366.819 185.577C365.892 184.65 365.371 183.393 365.371 182.081C365.371 180.77 365.892 179.513 366.819 178.585C367.746 177.658 369.004 177.137 370.316 177.137H458.281C459.592 177.137 460.85 177.658 461.777 178.585C462.704 179.513 463.225 180.77 463.225 182.081C463.225 183.393 462.704 184.65 461.777 185.577C460.85 186.505 459.592 187.025 458.281 187.025V187.025Z" fill="#CCCCCC"/>
<path d="M458.281 205.76H305.253C303.941 205.76 302.684 205.24 301.756 204.312C300.829 203.385 300.308 202.128 300.308 200.816C300.308 199.505 300.829 198.248 301.756 197.32C302.684 196.393 303.941 195.872 305.253 195.872H458.281C459.592 195.872 460.85 196.393 461.777 197.32C462.705 198.248 463.226 199.505 463.226 200.816C463.226 202.128 462.705 203.385 461.777 204.312C460.85 205.24 459.592 205.76 458.281 205.76Z" fill="#CCCCCC"/>
<path d="M348.974 168.03H261.009C259.699 168.028 258.443 167.507 257.517 166.58C256.591 165.653 256.071 164.396 256.071 163.086C256.071 161.776 256.591 160.519 257.517 159.592C258.443 158.665 259.699 158.144 261.009 158.142H348.974C349.624 158.141 350.268 158.268 350.869 158.517C351.469 158.765 352.015 159.129 352.475 159.588C352.935 160.047 353.299 160.592 353.548 161.193C353.797 161.793 353.925 162.436 353.925 163.086C353.925 163.736 353.797 164.379 353.548 164.979C353.299 165.58 352.935 166.125 352.475 166.584C352.015 167.043 351.469 167.407 350.869 167.656C350.268 167.904 349.624 168.031 348.974 168.03V168.03Z" fill="#CCCCCC"/>
<path d="M397.382 168.29H372.398C371.086 168.29 369.829 167.769 368.901 166.842C367.974 165.915 367.453 164.657 367.453 163.346C367.453 162.035 367.974 160.777 368.901 159.85C369.829 158.923 371.086 158.402 372.398 158.402H397.382C398.693 158.402 399.951 158.923 400.878 159.85C401.806 160.777 402.327 162.035 402.327 163.346C402.327 164.657 401.806 165.915 400.878 166.842C399.951 167.769 398.693 168.29 397.382 168.29Z" fill="#CCCCCC"/>
<path d="M285.994 205.76H261.009C259.699 205.759 258.443 205.237 257.517 204.31C256.591 203.383 256.071 202.127 256.071 200.816C256.071 199.506 256.591 198.25 257.517 197.323C258.443 196.396 259.699 195.874 261.009 195.872H285.994C286.643 195.872 287.287 195.999 287.888 196.247C288.488 196.495 289.034 196.859 289.494 197.318C289.954 197.777 290.319 198.323 290.567 198.923C290.816 199.523 290.944 200.167 290.944 200.816C290.944 201.466 290.816 202.11 290.567 202.71C290.319 203.31 289.954 203.855 289.494 204.315C289.034 204.774 288.488 205.138 287.888 205.386C287.287 205.634 286.643 205.761 285.994 205.76Z" fill="#CCCCCC"/>
<path d="M348.975 362.466H261.01C259.698 362.466 258.441 361.945 257.513 361.018C256.586 360.09 256.065 358.833 256.065 357.522C256.065 356.21 256.586 354.953 257.513 354.026C258.441 353.098 259.698 352.578 261.01 352.578H348.975C349.624 352.578 350.267 352.705 350.867 352.954C351.467 353.202 352.012 353.567 352.471 354.026C352.931 354.485 353.295 355.03 353.543 355.63C353.792 356.229 353.92 356.872 353.92 357.522C353.92 358.171 353.792 358.814 353.543 359.414C353.295 360.014 352.931 360.559 352.471 361.018C352.012 361.477 351.467 361.841 350.867 362.089C350.267 362.338 349.624 362.466 348.975 362.466V362.466Z" fill="#CCCCCC"/>
<path d="M458.281 362.466H370.316C369.004 362.466 367.746 361.945 366.819 361.018C365.892 360.09 365.371 358.833 365.371 357.522C365.371 356.21 365.892 354.953 366.819 354.026C367.746 353.098 369.004 352.578 370.316 352.578H458.281C458.93 352.578 459.573 352.705 460.173 352.954C460.773 353.202 461.318 353.567 461.777 354.026C462.236 354.485 462.601 355.03 462.849 355.63C463.098 356.229 463.225 356.872 463.225 357.522C463.225 358.171 463.098 358.814 462.849 359.414C462.601 360.014 462.236 360.559 461.777 361.018C461.318 361.477 460.773 361.841 460.173 362.089C459.573 362.338 458.93 362.466 458.281 362.466V362.466Z" fill="#CCCCCC"/>
<path d="M458.281 381.2H305.253C303.941 381.2 302.684 380.68 301.756 379.752C300.829 378.825 300.308 377.568 300.308 376.256C300.308 374.945 300.829 373.688 301.756 372.76C302.684 371.833 303.941 371.312 305.253 371.312H458.281C458.931 371.312 459.574 371.439 460.175 371.687C460.776 371.935 461.321 372.299 461.781 372.758C462.241 373.217 462.606 373.763 462.855 374.363C463.104 374.963 463.232 375.607 463.232 376.256C463.232 376.906 463.104 377.55 462.855 378.15C462.606 378.75 462.241 379.295 461.781 379.755C461.321 380.214 460.776 380.578 460.175 380.826C459.574 381.074 458.931 381.201 458.281 381.2Z" fill="#CCCCCC"/>
<path d="M348.975 343.47H261.01C259.698 343.47 258.441 342.949 257.513 342.022C256.586 341.095 256.065 339.837 256.065 338.526C256.065 337.215 256.586 335.957 257.513 335.03C258.441 334.103 259.698 333.582 261.01 333.582H348.975C350.286 333.582 351.544 334.103 352.471 335.03C353.399 335.957 353.92 337.215 353.92 338.526C353.92 339.837 353.399 341.095 352.471 342.022C351.544 342.949 350.286 343.47 348.975 343.47Z" fill="#CCCCCC"/>
<path d="M397.382 343.731H372.398C371.086 343.731 369.829 343.21 368.901 342.283C367.974 341.356 367.453 340.098 367.453 338.787C367.453 337.476 367.974 336.218 368.901 335.291C369.829 334.364 371.086 333.843 372.398 333.843H397.382C398.693 333.843 399.951 334.364 400.878 335.291C401.806 336.218 402.327 337.476 402.327 338.787C402.327 340.098 401.806 341.356 400.878 342.283C399.951 343.21 398.693 343.731 397.382 343.731V343.731Z" fill="#CCCCCC"/>
<path d="M285.994 381.2H261.01C259.698 381.2 258.441 380.68 257.513 379.752C256.586 378.825 256.065 377.568 256.065 376.256C256.065 374.945 256.586 373.688 257.513 372.76C258.441 371.833 259.698 371.312 261.01 371.312H285.994C286.644 371.312 287.287 371.439 287.888 371.687C288.489 371.935 289.035 372.299 289.494 372.758C289.954 373.217 290.319 373.763 290.568 374.363C290.817 374.963 290.945 375.607 290.945 376.256C290.945 376.906 290.817 377.55 290.568 378.15C290.319 378.75 289.954 379.295 289.494 379.755C289.035 380.214 288.489 380.578 287.888 380.826C287.287 381.074 286.644 381.201 285.994 381.2Z" fill="#CCCCCC"/>
<path d="M326.001 309.387C324.134 309.391 322.341 308.658 321.013 307.346L287.947 274.699C287.297 274.058 286.782 273.294 286.43 272.452C286.078 271.611 285.897 270.708 285.897 269.795C285.897 268.883 286.078 267.98 286.43 267.139C286.782 266.297 287.297 265.533 287.947 264.892L320.879 232.376C322.251 231.028 324.1 230.275 326.023 230.282C327.947 230.288 329.79 231.052 331.154 232.409C332.519 233.776 333.285 235.629 333.285 237.561C333.285 239.493 332.519 241.346 331.154 242.714L306.682 267.183C305.92 267.947 305.492 268.982 305.492 270.062C305.492 271.141 305.92 272.176 306.682 272.94L331.021 297.276C332.015 298.268 332.692 299.533 332.967 300.91C333.241 302.287 333.101 303.714 332.563 305.011C332.026 306.308 331.115 307.416 329.947 308.195C328.778 308.974 327.405 309.389 326.001 309.387V309.387Z" fill="#0094FF"/>
<path d="M378.69 309.387C377.286 309.389 375.912 308.974 374.744 308.195C373.576 307.416 372.665 306.308 372.128 305.011C371.59 303.714 371.45 302.287 371.724 300.91C371.999 299.533 372.676 298.268 373.67 297.276L398.009 272.941C398.771 272.176 399.199 271.141 399.199 270.062C399.199 268.982 398.771 267.947 398.009 267.183L373.537 242.714C372.86 242.038 372.323 241.234 371.957 240.35C371.591 239.466 371.402 238.518 371.402 237.561C371.402 236.604 371.591 235.657 371.957 234.773C372.323 233.889 372.86 233.085 373.537 232.409V232.409C374.9 231.052 376.744 230.288 378.668 230.282C380.591 230.275 382.44 231.028 383.812 232.376L416.744 264.892C417.394 265.533 417.909 266.297 418.261 267.139C418.612 267.98 418.794 268.883 418.794 269.796C418.794 270.708 418.612 271.611 418.261 272.453C417.909 273.294 417.394 274.058 416.744 274.699L383.678 307.347C382.349 308.658 380.557 309.391 378.69 309.387Z" fill="#0094FF"/>
<path d="M461.49 352.498C455.737 354.439 450.526 358.977 449.348 364.927C448.802 367.685 449.136 370.552 448.677 373.326C447.611 379.759 442.556 384.672 437.894 389.235C433.231 393.798 428.416 399.101 428.076 405.612C427.704 412.742 432.88 419.422 431.984 426.506C430.944 434.735 422.242 440.068 420.091 448.08C418.655 453.43 420.415 459.193 423.31 463.916C428.829 472.918 438.261 479.029 448.306 482.305C458.351 485.581 469.049 486.27 479.615 486.381C492.48 486.515 506.449 485.412 516.115 476.93C521.637 472.042 525.104 465.249 525.822 457.914C526.741 448.09 522.636 437.938 525.467 428.484C527.249 422.535 531.718 417.101 531.051 410.927C530.399 404.89 525.121 400.611 521.5 395.734C518.119 391.181 516.067 385.803 514.057 380.502L507.177 362.362C505.825 358.796 504.34 355.046 501.326 352.705C495.683 348.324 486.611 349.185 480.013 350.088C473.893 350.927 467.376 350.512 461.49 352.498Z" fill="#2F2E41"/>
<path d="M463.644 405.338C463.644 405.338 466.694 415.239 443.821 426.663C420.949 438.087 446.109 450.272 446.109 450.272L472.794 456.365C472.794 456.365 500.241 452.557 503.291 447.988C506.34 443.418 511.677 428.186 510.152 425.901C509.011 424.275 507.736 422.746 506.34 421.332C506.34 421.332 488.042 418.285 488.804 409.908C489.567 401.53 463.644 405.338 463.644 405.338Z" fill="#FFB9B9"/>
<path opacity="0.1" d="M463.644 405.338C463.644 405.338 466.694 415.239 443.821 426.663C420.949 438.087 446.109 450.272 446.109 450.272L472.794 456.365C472.794 456.365 500.241 452.557 503.291 447.988C506.34 443.418 511.677 428.186 510.152 425.901C509.011 424.275 507.736 422.746 506.34 421.332C506.34 421.332 488.042 418.285 488.804 409.908C489.567 401.53 463.644 405.338 463.644 405.338Z" fill="black"/>
<path d="M478.511 420.951C491.986 420.951 502.909 410.04 502.909 396.58C502.909 383.121 491.986 372.209 478.511 372.209C465.037 372.209 454.114 383.121 454.114 396.58C454.114 410.04 465.037 420.951 478.511 420.951Z" fill="#FFB9B9"/>
<path d="M475.842 447.987C475.842 447.987 446.46 445.841 445.903 425.589C445.903 425.589 435.434 424.378 432.384 427.424C429.334 430.47 419.423 432.755 419.423 440.371C419.423 447.987 436.196 470.835 436.196 470.835C436.196 470.835 445.345 501.299 441.533 506.63C437.721 511.961 436.959 525.67 436.959 525.67C436.959 525.67 475.08 522.623 481.179 525.67C487.279 528.716 511.676 528.716 513.201 525.67C514.726 522.623 511.676 484.544 511.676 484.544C511.676 484.544 518.538 475.404 517.013 464.742L535.311 443.418C535.311 443.418 528.45 422.855 517.776 422.855C517.776 422.855 503.29 419.047 502.908 420.951C502.527 422.855 510.151 444.179 475.842 447.987Z" fill="#0094FF"/>
<path d="M407.225 515.008C407.225 515.008 414.087 525.67 431.623 527.955C449.159 530.24 452.209 524.147 450.684 522.624C449.159 521.101 430.861 514.246 430.861 514.246L420.187 505.869L407.225 515.008Z" fill="#FFB9B9"/>
<path d="M532.261 505.869L512.438 517.293C512.438 517.293 486.516 515.769 496.427 523.385C506.339 531.001 524.637 527.955 524.637 527.955L542.173 519.577L532.261 505.869Z" fill="#FFB9B9"/>
<path d="M433.148 525.67C433.148 525.67 414.85 570.604 436.961 577.459C459.071 584.313 520.065 582.79 533.788 573.651C547.512 564.511 551.324 552.326 549.037 548.518C546.75 544.71 531.501 534.048 520.827 533.286C510.153 532.524 433.148 525.67 433.148 525.67Z" fill="#2F2E41"/>
<path opacity="0.05" d="M433.148 525.67C433.148 525.67 414.85 570.604 436.961 577.459C459.071 584.313 520.065 582.79 533.788 573.651C547.512 564.511 551.324 552.326 549.037 548.518C546.75 544.71 531.501 534.048 520.827 533.286C510.153 532.524 433.148 525.67 433.148 525.67Z" fill="black"/>
<path d="M519.521 528.462C519.521 528.462 584.108 505.107 583.346 533.286C582.583 561.465 542.175 569.081 542.175 569.081L529.976 570.605L462.883 572.889C462.883 572.889 465.17 560.704 459.833 559.181C459.833 559.181 477.369 554.611 478.131 553.849C478.894 553.088 522.352 537.856 525.401 537.094C528.451 536.333 537.6 530.24 544.462 531.002C544.462 531.002 552.086 524.909 560.473 526.432L536.838 527.955L519.521 528.462Z" fill="#2F2E41"/>
<path opacity="0.1" d="M519.521 528.462C519.521 528.462 584.108 505.107 583.346 533.286C582.583 561.465 542.175 569.081 542.175 569.081L529.976 570.605L462.883 572.889C462.883 572.889 465.17 560.704 459.833 559.181C459.833 559.181 477.369 554.611 478.131 553.849C478.894 553.088 522.352 537.856 525.401 537.094C528.451 536.333 537.6 530.24 544.462 531.002C544.462 531.002 552.086 524.909 560.473 526.432L536.838 527.955L519.521 528.462Z" fill="black"/>
<path d="M508.109 532.244L516.252 550.803L565.809 533.286L569.622 523.386L556.66 521.1L530.602 525.671L519.301 528.717L508.109 532.244Z" fill="#2F2E41"/>
<path opacity="0.1" d="M508.109 532.244L516.252 550.803L565.809 533.286L569.622 523.386L556.66 521.1L530.602 525.671L519.301 528.717L508.109 532.244Z" fill="black"/>
<path d="M402.65 554.611C402.65 554.611 417.137 572.889 433.91 577.458C450.683 582.028 459.832 575.935 459.832 575.935L454.495 554.611L452.208 540.902L442.297 534.048L422.474 524.908L398.838 517.292C398.838 517.292 388.927 515.769 388.927 517.292C388.927 518.816 398.076 541.663 398.076 541.663L402.65 554.611Z" fill="#2F2E41"/>
<path d="M420.185 564.511C420.185 564.511 423.235 586.597 427.047 588.121C430.859 589.644 442.296 586.597 445.345 585.074C448.395 583.551 458.761 576.523 458.761 576.523C458.761 576.523 422.473 562.988 420.185 564.511Z" fill="#CCCCCC"/>
<path d="M489.568 566.796L504.054 569.081L502.528 586.597L482.323 581.695L489.568 566.796Z" fill="#FFB9B9"/>
<path d="M498.642 571.671C498.642 571.671 491.853 579.744 498.715 584.313L503.29 588.121C503.29 588.121 518.538 591.167 520.063 592.691C521.588 594.214 527.687 590.406 527.687 590.406C527.687 590.406 528.45 567.558 527.687 566.035C526.925 564.512 517.776 562.989 517.013 564.512C516.251 566.035 507.102 568.32 501.765 566.797L498.642 571.671Z" fill="#CCCCCC"/>
<path d="M437.721 531.001C437.721 531.001 384.352 499.776 375.965 511.2C367.578 522.623 358.429 538.617 382.827 550.802C407.224 562.988 483.467 588.121 483.467 588.121C483.467 588.121 494.903 570.604 494.903 566.034C494.903 566.034 454.495 547.756 447.633 546.233C440.771 544.71 413.324 527.193 409.512 525.67C405.7 524.147 400.363 519.577 400.363 519.577L437.721 531.001Z" fill="#2F2E41"/>
<path d="M422.474 436.563L419.424 438.848C419.424 438.848 412.562 456.365 411.8 466.265C411.037 476.166 401.888 506.63 402.651 510.438C403.413 514.246 404.176 517.292 408.75 521.1C408.75 521.1 414.85 507.392 425.523 509.676L438.485 462.457L422.474 436.563Z" fill="#0094FF"/>
<path d="M529.213 436.563L535.312 443.418C535.312 443.418 539.124 452.557 539.124 454.842C539.124 457.126 546.748 490.636 547.511 492.16C548.273 493.683 551.323 512.723 547.511 517.292C543.699 521.862 536.837 524.908 536.837 524.908C536.837 524.908 541.412 508.915 526.925 508.153L528.45 502.06L514.727 456.365L529.213 436.563Z" fill="#0094FF"/>
<path d="M423.998 488.998V529.114C423.998 531.647 424.996 534.079 426.776 535.883C428.556 537.688 430.975 538.72 433.51 538.758L517.497 540C520.018 540.038 522.453 539.089 524.283 537.356C526.112 535.623 527.191 533.244 527.288 530.727L528.833 490.607C528.882 489.322 528.674 488.04 528.22 486.836C527.766 485.633 527.076 484.532 526.19 483.599C525.304 482.666 524.24 481.919 523.061 481.403C521.882 480.887 520.612 480.611 519.324 480.592L433.793 479.354C432.514 479.336 431.243 479.571 430.056 480.048C428.868 480.524 427.787 481.231 426.876 482.129C425.964 483.026 425.241 484.096 424.747 485.275C424.253 486.454 423.998 487.72 423.998 488.998V488.998Z" fill="#3F3D56"/>
<path d="M479.942 395.799C494.446 395.799 506.204 389.475 506.204 381.673C506.204 373.872 494.446 367.548 479.942 367.548C465.438 367.548 453.681 373.872 453.681 381.673C453.681 389.475 465.438 395.799 479.942 395.799Z" fill="#2F2E41"/>
<path d="M475.461 516.15C478.829 516.15 481.56 513.422 481.56 510.057C481.56 506.693 478.829 503.965 475.461 503.965C472.092 503.965 469.361 506.693 469.361 510.057C469.361 513.422 472.092 516.15 475.461 516.15Z" fill="#F2F2F2"/>
<path d="M19.5347 520.569L14.918 539.592C14.8666 539.804 14.8746 540.026 14.9412 540.234L35.8832 605.606C35.9661 605.865 36.1355 606.088 36.3629 606.237C36.5903 606.386 36.862 606.453 37.1328 606.427C37.4036 606.4 37.657 606.281 37.8509 606.09C38.0447 605.9 38.1672 605.648 38.1979 605.378L41.0951 579.912C41.1143 579.742 41.0969 579.571 41.0441 579.409L21.8216 520.48C21.7414 520.234 21.5831 520.021 21.3707 519.874C21.1583 519.726 20.9034 519.651 20.6448 519.661C20.3861 519.671 20.1377 519.765 19.9374 519.929C19.737 520.093 19.5956 520.317 19.5347 520.569V520.569Z" fill="#2F2E41"/>
<path d="M21.2328 522.175L16.9693 538.496L35.4407 598.105L39.7029 579.655L21.2328 522.175Z" fill="#F2F2F2"/>
<path d="M114.295 610.878C113.585 613.007 40.4131 610.169 39.7027 609.459C39.0834 608.57 38.5595 607.619 38.1399 606.62C37.4721 605.201 36.8612 603.782 36.8612 603.782L39.7027 580.804L112.164 578.235C112.164 578.235 113.975 597.708 114.345 606.62C114.471 608.038 114.454 609.464 114.295 610.878V610.878Z" fill="#2F2E41"/>
<path opacity="0.1" d="M48.9378 583.912L47.5179 603.782H79.4861V583.912H48.9378Z" fill="black"/>
<path opacity="0.1" d="M90.1414 590.299L89.9505 590.262L90.8513 598.815H108.611V590.299H90.1414Z" fill="black"/>
<path opacity="0.1" d="M114.295 610.878C113.585 613.007 40.4131 610.169 39.7028 609.459C39.0834 608.57 38.5596 607.619 38.1399 606.62H114.345C114.471 608.038 114.454 609.464 114.295 610.878V610.878Z" fill="black"/>
<path d="M227.25 536.367H207.359L158.341 517.207C158.341 517.207 123.531 503.015 126.373 529.981C129.215 556.947 134.187 593.138 134.187 593.138C134.187 593.138 149.816 586.041 158.341 588.17C166.866 590.299 161.183 544.883 161.183 544.883C161.183 544.883 230.802 578.235 237.196 573.978C243.589 569.72 245.01 539.916 245.01 539.916L227.25 536.367Z" fill="#2F2E41"/>
<path opacity="0.1" d="M227.25 536.367H207.359L158.341 517.207C158.341 517.207 123.531 503.015 126.373 529.981C129.215 556.947 134.187 593.138 134.187 593.138C134.187 593.138 149.816 586.041 158.341 588.17C166.866 590.299 161.183 544.883 161.183 544.883C161.183 544.883 230.802 578.235 237.196 573.978C243.589 569.72 245.01 539.916 245.01 539.916L227.25 536.367Z" fill="black"/>
<path d="M195.91 474.143L171.838 508.692L115.716 555.527C115.716 555.527 63.8565 567.591 70.9605 576.106C78.0645 584.622 121.399 567.591 121.399 567.591C121.399 567.591 186.046 520.755 188.177 517.207C190.308 513.659 213.751 480.306 213.751 480.306L195.91 474.143Z" fill="#FFB8B8"/>
<path opacity="0.1" d="M195.91 474.143L171.838 508.692L115.716 555.527C115.716 555.527 63.8565 567.591 70.9605 576.106C78.0645 584.622 121.399 567.591 121.399 567.591C121.399 567.591 186.046 520.755 188.177 517.207C190.308 513.659 213.751 480.306 213.751 480.306L195.91 474.143Z" fill="black"/>
<path d="M199.544 436.309C181.888 436.309 167.576 422.012 167.576 404.376C167.576 386.74 181.888 372.443 199.544 372.443C217.199 372.443 231.512 386.74 231.512 404.376C231.512 422.012 217.199 436.309 199.544 436.309Z" fill="#FFB8B8"/>
<path d="M201.674 432.762C201.674 432.762 212.33 451.212 214.461 461.147C216.592 471.082 246.429 441.277 246.429 441.277L250.336 430.988C250.336 430.988 222.275 417.86 224.406 407.215C226.538 396.571 201.674 432.762 201.674 432.762Z" fill="#FFB8B8"/>
<path d="M210.199 446.244L194.57 476.758C194.57 476.758 198.122 491.661 203.805 493.08C209.489 494.499 233.642 474.63 233.642 474.63L210.199 446.244Z" fill="#C1E8F2"/>
<path d="M195.992 488.113L166.865 526.432L97.246 578.235C97.246 578.235 46.8074 588.88 58.1739 596.686C69.5403 604.492 102.219 589.589 102.219 589.589C102.219 589.589 172.549 551.979 187.467 536.367C202.385 520.755 230.091 494.499 230.091 494.499L195.992 488.113Z" fill="#FFB8B8"/>
<path d="M235.062 547.721L226.538 561.204L175.661 545.216C170.149 543.436 164.317 542.873 158.566 543.566C152.816 544.259 147.284 546.192 142.355 549.229C133.475 554.818 127.792 563.688 140.579 576.816C166.153 603.073 183.203 588.88 183.203 588.88C183.203 588.88 269.162 629.329 283.37 609.459C297.578 589.589 298.288 579.655 298.288 579.655C298.288 579.655 243.587 545.593 235.062 547.721Z" fill="#2F2E41"/>
<path d="M128.17 591.212C128.17 591.212 105.437 606.114 132.432 613.21C159.428 620.306 179.319 610.372 179.319 610.372C179.319 610.372 202.762 610.372 202.762 598.308C202.762 586.244 194.948 584.825 194.948 584.825L170.794 588.373C170.794 588.373 141.668 580.567 128.17 591.212Z" fill="#CCCCCC"/>
<path d="M173.317 396.344C171.217 397.473 168.959 398.281 166.618 398.741C165.442 398.951 164.23 398.813 163.132 398.343C162.034 397.873 161.098 397.092 160.439 396.096C159.917 394.917 159.676 393.631 159.738 392.342C159.652 388.446 159.934 384.233 162.406 381.217C163.98 379.298 166.276 378.088 167.905 376.216C168.999 374.813 169.931 373.291 170.684 371.679C173.851 365.737 178.541 360.027 185.058 358.314C187.813 357.722 190.635 357.507 193.448 357.673L209.86 357.904C212.518 357.819 215.176 358.104 217.755 358.753C223.037 360.348 226.884 364.786 230.406 369.029C233.141 372.123 235.571 375.473 237.662 379.032C240.498 384.315 241.932 390.236 241.827 396.23C241.849 397.767 241.65 399.299 241.237 400.78C240.754 402.138 240.154 403.453 239.446 404.709C236.369 410.747 234.541 418.29 238.007 424.115C231.986 421.658 226.029 418.437 222.057 413.292C220.28 410.99 218.887 408.296 216.519 406.607C214.151 404.918 210.292 404.772 208.773 407.251C208.251 408.253 207.982 409.368 207.99 410.499C208.038 412.366 207.733 414.225 207.092 415.98C206.748 416.849 206.118 417.574 205.306 418.037C204.494 418.5 203.549 418.672 202.625 418.526C199.532 417.656 199.828 412.914 197.446 410.76C195.637 409.124 192.846 409.437 190.521 408.694C189.189 408.188 187.977 407.411 186.962 406.412C185.946 405.413 185.15 404.214 184.623 402.891C183.743 400.92 183.756 395.76 182.091 394.692C180.002 393.353 175.253 395.482 173.317 396.344Z" fill="#2F2E41"/>
<path d="M252.875 427.622C251.437 427.238 249.923 427.242 248.487 427.633C243.927 428.856 233.704 432.093 231.512 437.02C228.67 443.406 218.725 453.341 218.725 453.341C218.725 453.341 205.227 466.824 208.069 476.049C210.91 485.274 221.566 495.919 221.566 495.919C221.566 495.919 218.725 539.916 232.933 551.27C247.141 562.624 252.824 554.818 252.824 565.462C252.824 576.107 296.869 609.459 305.394 588.88C305.394 588.88 301.132 550.56 302.552 537.077C303.953 523.789 301.903 440.88 252.875 427.622Z" fill="#C1E8F2"/>
<path d="M230.09 445.536C230.09 445.536 186.756 477.469 194.57 490.952C194.57 490.952 220.855 503.725 226.538 503.016C232.222 502.306 254.244 477.469 259.927 475.34C265.611 473.211 268.452 434.891 230.09 445.536Z" fill="#C1E8F2"/>
<defs>
<filter id="filter0_d_157_10" x="97.1089" y="97.5931" width="523.45" height="335.062" filterUnits="userSpaceOnUse" color-interpolation-filters="sRGB">
<feFlood flood-opacity="0" result="BackgroundImageFix"/>
<feColorMatrix in="SourceAlpha" type="matrix" values="0 0 0 0 0 0 0 0 0 0 0 0 0 0 0 0 0 0 127 0" result="hardAlpha"/>
<feOffset/>
<feGaussianBlur stdDeviation="4"/>
<feColorMatrix type="matrix" values="0 0 0 0 0 0 0 0 0 0 0 0 0 0 0 0 0 0 0.19 0"/>
<feBlend mode="normal" in2="BackgroundImageFix" result="effect1_dropShadow_157_10"/>
<feBlend mode="normal" in="SourceGraphic" in2="effect1_dropShadow_157_10" result="shape"/>
</filter>
</defs>
</svg>
