<svg width="164" height="260" viewBox="0 0 164 260" fill="none" xmlns="http://www.w3.org/2000/svg">
<path d="M91.5812 59.683C108.074 59.683 121.445 46.3225 121.445 29.8415C121.445 13.3605 108.074 0 91.5812 0C75.0881 0 61.7178 13.3605 61.7178 29.8415C61.7178 46.3225 75.0881 59.683 91.5812 59.683Z" fill="#2F2E41"/>
<path d="M63.1735 221.49L62.3814 207.947L114.302 198.446L115.472 218.437L63.1735 221.49Z" fill="#FFB8B8"/>
<path d="M65.7159 198.038L67.2425 224.137L50.7984 225.097L48.3105 182.566C50.47 182.44 52.6332 182.74 54.6766 183.45C56.72 184.159 58.6036 185.264 60.2198 186.7C61.8361 188.137 63.1533 189.878 64.0963 191.823C65.0393 193.768 65.5896 195.88 65.7159 198.038Z" fill="#2F2E41"/>
<path d="M85.7745 221.314L77.1541 231.769L32.601 203.598L45.3227 188.167L85.7745 221.314Z" fill="#FFB8B8"/>
<path d="M67.9955 236.832L84.6075 216.636L97.333 227.087L70.2615 260C68.5904 258.627 67.2062 256.939 66.1879 255.032C65.1696 253.125 64.5372 251.036 64.3268 248.885C64.1164 246.734 64.3321 244.562 64.9616 242.494C65.591 240.426 66.6219 238.502 67.9955 236.832Z" fill="#2F2E41"/>
<path d="M60.9789 172.611L55.0948 200.372C54.9593 201.011 54.9668 201.673 55.1169 202.309C55.267 202.944 55.5558 203.539 55.9627 204.05C56.3696 204.561 56.8844 204.976 57.4703 205.264C58.0562 205.553 58.6987 205.708 59.3515 205.718L117.198 206.652C117.85 206.662 118.496 206.529 119.09 206.26C119.685 205.991 120.212 205.594 120.636 205.098C121.059 204.601 121.367 204.017 121.538 203.387C121.709 202.758 121.739 202.098 121.626 201.455L116.566 172.76C116.386 171.735 115.85 170.807 115.053 170.138C114.256 169.469 113.249 169.102 112.209 169.102H65.307C64.293 169.102 63.3098 169.451 62.5219 170.089C61.734 170.728 61.1893 171.618 60.9789 172.611Z" fill="#2F2E41"/>
<path d="M70.5426 182.394C70.5426 182.394 14.1527 147.028 3.09591 165.816C-2.4325 175.21 0.331705 184.328 4.47802 191.097C8.32582 197.261 13.8492 202.203 20.4026 205.345L66.1199 227.707L82.7051 210.024L71.6483 200.077L70.5426 182.394Z" fill="#2F2E41"/>
<path d="M99.3521 176.882C99.3521 176.882 172.356 155.866 157.976 195.685C143.597 235.503 89.397 220.018 89.397 220.018L83.8665 203.427L102.67 190.154L99.3521 176.882Z" fill="#2F2E41"/>
<path d="M91.9545 63.8277C106.959 63.8277 119.122 51.6548 119.122 36.6388C119.122 21.6227 106.959 9.44983 91.9545 9.44983C76.9503 9.44983 64.787 21.6227 64.787 36.6388C64.787 51.6548 76.9503 63.8277 91.9545 63.8277Z" fill="#FFB8B8"/>
<path d="M93.3866 181.287C82.0927 181.116 70.8567 179.637 59.9039 176.878L59.5802 176.79L44.4135 107.062C43.0491 100.935 43.9768 94.52 47.0213 89.0297C50.0659 83.5395 55.0166 79.3534 60.9383 77.2622C79.2304 70.7028 99.1674 70.3049 117.707 76.1292H117.707C123.928 78.1328 129.164 82.407 132.371 88.0988C135.578 93.7907 136.52 100.482 135.009 106.837L118.069 176.731L117.83 176.845C110.79 180.178 101.987 181.287 93.3866 181.287Z" fill="#0094FF"/>
<path d="M73.0215 186.664C73.5724 185.137 74.4522 183.748 75.599 182.596C76.7458 181.445 78.1317 180.558 79.6591 179.999C81.1865 179.439 82.8182 179.221 84.4393 179.359C86.0604 179.497 87.6314 179.988 89.0417 180.798L118.908 154.927L121.611 175.258L92.8345 196.708C91.3147 198.982 89.0118 200.621 86.3621 201.314C83.7123 202.007 80.8999 201.706 78.4577 200.468C76.0155 199.23 74.1132 197.141 73.1113 194.597C72.1094 192.053 72.0774 189.23 73.0215 186.664Z" fill="#FFB8B8"/>
<path d="M101.511 192.312C101.026 192.311 100.543 192.241 100.077 192.101C99.322 191.882 98.6303 191.484 98.0602 190.942C97.4901 190.4 97.0581 189.73 96.8004 188.987L93.1971 178.783C92.8598 177.84 92.817 176.817 93.0742 175.849C93.3314 174.881 93.8766 174.013 94.6377 173.362L135.311 148.954L119.278 77.4557L119.685 77.3574C119.851 77.3164 136.278 73.5791 143.01 91.5225C147.724 104.089 165.169 131.414 163.938 149.879C163.704 153.573 162.232 157.08 159.759 159.834C157.285 162.588 153.956 164.428 150.308 165.058L104.525 191.278C103.662 191.947 102.602 192.31 101.511 192.312Z" fill="#0094FF"/>
<path d="M106.076 184.234C105.525 182.703 104.646 181.312 103.499 180.159C102.352 179.005 100.966 178.117 99.4386 177.556C97.9113 176.996 96.2796 176.777 94.6585 176.916C93.0374 177.054 91.4663 177.546 90.056 178.357L60.1893 152.44L57.4871 172.807L86.2633 194.295C87.783 196.573 90.0859 198.215 92.7356 198.909C95.3854 199.604 98.1978 199.302 100.64 198.062C103.082 196.822 104.985 194.729 105.986 192.181C106.988 189.632 107.02 186.804 106.076 184.234Z" fill="#FFB8B8"/>
<path d="M80.5715 192.312C79.4802 192.31 78.4204 191.947 77.558 191.278L28.4504 167.27C24.8016 166.64 21.4716 164.8 18.9981 162.045C16.5247 159.291 15.0522 155.784 14.8183 152.091C13.5875 133.626 34.3532 104.09 39.0677 91.5229C45.7997 73.5796 62.2292 77.3158 62.3953 77.3579L62.8031 77.4562L43.4489 151.165L87.446 173.362C88.2072 174.014 88.7525 174.881 89.0097 175.849C89.267 176.817 89.2241 177.84 88.8867 178.783L85.2831 188.987C85.0253 189.73 84.5933 190.4 84.0231 190.942C83.4529 191.484 82.7611 191.882 82.0057 192.101C81.5404 192.24 81.0572 192.311 80.5715 192.312Z" fill="#0094FF"/>
<path d="M139.165 203.42H40.6789C38.6252 203.417 36.6563 202.601 35.2042 201.151C33.752 199.701 32.9351 197.734 32.9327 195.683V141.526C32.9351 139.475 33.752 137.509 35.2042 136.058C36.6563 134.608 38.6252 133.792 40.6789 133.789H139.165C141.219 133.792 143.188 134.608 144.64 136.058C146.092 137.509 146.909 139.475 146.912 141.526V195.683C146.909 197.734 146.092 199.701 144.64 201.151C143.188 202.601 141.219 203.417 139.165 203.42Z" fill="#3F3D56"/>
<path d="M89.9221 175.236C93.5872 175.236 96.5584 172.267 96.5584 168.605C96.5584 164.942 93.5872 161.973 89.9221 161.973C86.2569 161.973 83.2858 164.942 83.2858 168.605C83.2858 172.267 86.2569 175.236 89.9221 175.236Z" fill="white"/>
<path d="M64.5202 35.5611C62.9103 31.4744 65.5517 26.6043 69.4702 24.6247C73.3887 22.6451 78.1172 23.0216 82.3086 24.3263C85.8309 25.4228 89.1321 27.122 92.5685 28.464C95.9563 29.9664 99.6571 30.626 103.355 30.3864C107.02 29.9722 110.669 27.9152 112.168 24.5425C113.723 21.0466 112.666 16.7804 110.272 13.7968C107.724 10.9125 104.427 8.79184 100.747 7.67088C92.6653 4.8215 83.3301 4.7382 75.8271 8.88006C68.3242 13.0219 63.2252 21.841 64.7761 30.2746" fill="#2F2E41"/>
</svg>
